  0
SECTION
  2
BLOCKS
  0
ENDSEC
  0
SECTION
  2
ENTITIES
  0
LINE
  8
0
 10
0
 11
0
 20
0
 21
57.2
  0
LINE
  8
0
 10
0
 11
72
 20
57.2
 21
57.2
  0
LINE
  8
0
 10
72
 11
72
 20
57.2
 21
0
  0
LINE
  8
0
 10
72
 11
64.8
 20
0
 21
0
  0
LINE
  8
0
 10
64.8
 11
64.8
 20
0
 21
50
  0
LINE
  8
0
 10
64.8
 11
61.2
 20
50
 21
50
  0
LINE
  8
0
 10
61.2
 11
61.2
 20
50
 21
0
  0
LINE
  8
0
 10
61.2
 11
57.4
 20
0
 21
0
  0
LINE
  8
0
 10
57.4
 11
57.4
 20
0
 21
50
  0
LINE
  8
0
 10
57.4
 11
54
 20
50
 21
50
  0
LINE
  8
0
 10
54
 11
54
 20
50
 21
0
  0
LINE
  8
0
 10
54
 11
50
 20
0
 21
0
  0
LINE
  8
0
 10
50
 11
50
 20
0
 21
50
  0
LINE
  8
0
 10
50
 11
46.8
 20
50
 21
50
  0
LINE
  8
0
 10
46.8
 11
46.8
 20
50
 21
0
  0
LINE
  8
0
 10
46.8
 11
42.6
 20
0
 21
0
  0
LINE
  8
0
 10
42.6
 11
42.6
 20
0
 21
50
  0
LINE
  8
0
 10
42.6
 11
39.6
 20
50
 21
50
  0
LINE
  8
0
 10
39.6
 11
39.6
 20
50
 21
0
  0
LINE
  8
0
 10
39.6
 11
35.2
 20
0
 21
0
  0
LINE
  8
0
 10
35.2
 11
35.2
 20
0
 21
50
  0
LINE
  8
0
 10
35.2
 11
32.4
 20
50
 21
50
  0
LINE
  8
0
 10
32.4
 11
32.4
 20
50
 21
0
  0
LINE
  8
0
 10
32.4
 11
27.8
 20
0
 21
0
  0
LINE
  8
0
 10
27.8
 11
27.8
 20
0
 21
50
  0
LINE
  8
0
 10
27.8
 11
25.2
 20
50
 21
50
  0
LINE
  8
0
 10
25.2
 11
25.2
 20
50
 21
0
  0
LINE
  8
0
 10
25.2
 11
20.4
 20
0
 21
0
  0
LINE
  8
0
 10
20.4
 11
20.4
 20
0
 21
50
  0
LINE
  8
0
 10
20.4
 11
18
 20
50
 21
50
  0
LINE
  8
0
 10
18
 11
18
 20
50
 21
0
  0
LINE
  8
0
 10
18
 11
13
 20
0
 21
0
  0
LINE
  8
0
 10
13
 11
13
 20
0
 21
50
  0
LINE
  8
0
 10
13
 11
10.8
 20
50
 21
50
  0
LINE
  8
0
 10
10.8
 11
10.8
 20
50
 21
0
  0
LINE
  8
0
 10
10.8
 11
5.6
 20
0
 21
0
  0
LINE
  8
0
 10
5.6
 11
5.6
 20
0
 21
50
  0
LINE
  8
0
 10
5.6
 11
3.6
 20
50
 21
50
  0
LINE
  8
0
 10
3.6
 11
3.6
 20
50
 21
0
  0
LINE
  8
0
 10
3.6
 11
0
 20
0
 21
0
  0
ENDSEC
  0
SECTION
  2
OBJECTS
  0
DICTIONARY
  0
ENDSEC
  0
EOF
