  0
SECTION
  2
BLOCKS
  0
ENDSEC
  0
SECTION
  2
ENTITIES
  0
LINE
  8
0
 10
291.75
 20
21.9688
 11
299
 21
21.9688
  0
LINE
  8
0
 10
299
 20
21.9688
 11
299
 21
65.9062
  0
LINE
  8
0
 10
299
 20
65.9062
 11
291.75
 21
65.9062
  0
LINE
  8
0
 10
291.75
 20
65.9062
 11
291.75
 21
109.844
  0
LINE
  8
0
 10
291.75
 20
109.844
 11
299
 21
109.844
  0
LINE
  8
0
 10
299
 20
109.844
 11
299
 21
153.781
  0
LINE
  8
0
 10
299
 20
153.781
 11
291.75
 21
153.781
  0
LINE
  8
0
 10
291.75
 20
153.781
 11
291.75
 21
197.719
  0
LINE
  8
0
 10
291.75
 20
197.719
 11
299
 21
197.719
  0
LINE
  8
0
 10
299
 20
197.719
 11
299
 21
241.656
  0
LINE
  8
0
 10
299
 20
241.656
 11
291.75
 21
241.656
  0
LINE
  8
0
 10
291.75
 20
241.656
 11
291.75
 21
285.594
  0
LINE
  8
0
 10
291.75
 20
285.594
 11
299
 21
285.594
  0
LINE
  8
0
 10
299
 20
285.594
 11
299
 21
329.531
  0
LINE
  8
0
 10
299
 20
329.531
 11
291.75
 21
329.531
  0
LINE
  8
0
 10
291.75
 20
329.531
 11
291.75
 21
349.75
  0
LINE
  8
0
 10
291.75
 20
349.75
 11
1.75
 21
349.75
  0
LINE
  8
0
 10
1.75
 20
349.75
 11
1.75
 21
329.531
  0
LINE
  8
0
 10
1.75
 20
329.531
 11
-5.5
 21
329.531
  0
LINE
  8
0
 10
-5.5
 20
329.531
 11
-5.5
 21
285.594
  0
LINE
  8
0
 10
-5.5
 20
285.594
 11
1.75
 21
285.594
  0
LINE
  8
0
 10
1.75
 20
285.594
 11
1.75
 21
241.656
  0
LINE
  8
0
 10
1.75
 20
241.656
 11
-5.5
 21
241.656
  0
LINE
  8
0
 10
-5.5
 20
241.656
 11
-5.5
 21
197.719
  0
LINE
  8
0
 10
-5.5
 20
197.719
 11
1.75
 21
197.719
  0
LINE
  8
0
 10
1.75
 20
197.719
 11
1.75
 21
153.781
  0
LINE
  8
0
 10
1.75
 20
153.781
 11
-5.5
 21
153.781
  0
LINE
  8
0
 10
-5.5
 20
153.781
 11
-5.5
 21
109.844
  0
LINE
  8
0
 10
-5.5
 20
109.844
 11
1.75
 21
109.844
  0
LINE
  8
0
 10
1.75
 20
109.844
 11
1.75
 21
65.9062
  0
LINE
  8
0
 10
1.75
 20
65.9062
 11
-5.5
 21
65.9062
  0
LINE
  8
0
 10
-5.5
 20
65.9062
 11
-5.5
 21
21.9688
  0
LINE
  8
0
 10
-5.5
 20
21.9688
 11
1.75
 21
21.9688
  0
LINE
  8
0
 10
1.75
 20
21.9688
 11
1.75
 21
1.75
  0
LINE
  8
0
 10
1.75
 20
1.75
 11
291.75
 21
1.75
  0
LINE
  8
0
 10
291.75
 20
1.75
 11
291.75
 21
21.9688
  0
LINE
  8
0
 10
71.75
 20
260.25
 11
71.75
 21
323.25
  0
LINE
  8
0
 10
71.75
 20
323.25
 11
75.25
 21
323.25
  0
LINE
  8
0
 10
75.25
 20
323.25
 11
75.25
 21
260.25
  0
LINE
  8
0
 10
75.25
 20
260.25
 11
71.75
 21
260.25
  0
LINE
  8
0
 10
71.75
 20
144.25
 11
71.75
 21
207.25
  0
LINE
  8
0
 10
71.75
 20
207.25
 11
75.25
 21
207.25
  0
LINE
  8
0
 10
75.25
 20
207.25
 11
75.25
 21
144.25
  0
LINE
  8
0
 10
75.25
 20
144.25
 11
71.75
 21
144.25
  0
LINE
  8
0
 10
71.75
 20
28.25
 11
71.75
 21
91.25
  0
LINE
  8
0
 10
71.75
 20
91.25
 11
75.25
 21
91.25
  0
LINE
  8
0
 10
75.25
 20
91.25
 11
75.25
 21
28.25
  0
LINE
  8
0
 10
75.25
 20
28.25
 11
71.75
 21
28.25
  0
ENDSEC
  0
SECTION
  2
OBJECTS
  0
DICTIONARY
  0
ENDSEC
  0
EOF
