  0
SECTION
  2
BLOCKS
  0
ENDSEC
  0
SECTION
  2
ENTITIES
  0
LINE
  8
0
 10
206
 20
23.5
 11
202.5
 21
23.5
  0
LINE
  8
0
 10
202.5
 20
23.5
 11
202.5
 21
67
  0
LINE
  8
0
 10
202.5
 20
67
 11
206
 21
67
  0
LINE
  8
0
 10
206
 20
67
 11
206
 21
110.5
  0
LINE
  8
0
 10
206
 20
110.5
 11
202.5
 21
110.5
  0
LINE
  8
0
 10
202.5
 20
110.5
 11
202.5
 21
154
  0
LINE
  8
0
 10
202.5
 20
154
 11
206
 21
154
  0
LINE
  8
0
 10
206
 20
154
 11
206
 21
197.5
  0
LINE
  8
0
 10
206
 20
197.5
 11
202.5
 21
197.5
  0
LINE
  8
0
 10
202.5
 20
197.5
 11
202.5
 21
241
  0
LINE
  8
0
 10
202.5
 20
241
 11
206
 21
241
  0
LINE
  8
0
 10
206
 20
241
 11
206
 21
284.5
  0
LINE
  8
0
 10
206
 20
284.5
 11
202.5
 21
284.5
  0
LINE
  8
0
 10
202.5
 20
284.5
 11
202.5
 21
328
  0
LINE
  8
0
 10
202.5
 20
328
 11
206
 21
328
  0
LINE
  8
0
 10
206
 20
328
 11
206
 21
366.5
  0
LINE
  8
0
 10
206
 20
366.5
 11
51.5
 21
366.5
  0
LINE
  8
0
 10
51.5
 20
366.5
 11
51.5
 21
366.487
  0
LINE
  8
0
 10
51.5
 20
366.487
 11
51.084
 21
366.487
  0
LINE
  8
0
 10
51.084
 20
366.487
 11
50.2586
 21
366.383
  0
LINE
  8
0
 10
50.2586
 20
366.383
 11
49.4528
 21
366.176
  0
LINE
  8
0
 10
49.4528
 20
366.176
 11
48.6792
 21
365.869
  0
LINE
  8
0
 10
48.6792
 20
365.869
 11
47.9501
 21
365.469
  0
LINE
  8
0
 10
47.9501
 20
365.469
 11
47.2771
 21
364.98
  0
LINE
  8
0
 10
47.2771
 20
364.98
 11
46.6706
 21
364.41
  0
LINE
  8
0
 10
46.6706
 20
364.41
 11
46.1403
 21
363.769
  0
LINE
  8
0
 10
46.1403
 20
363.769
 11
45.6945
 21
363.067
  0
LINE
  8
0
 10
45.6945
 20
363.067
 11
45.3402
 21
362.314
  0
LINE
  8
0
 10
45.3402
 20
362.314
 11
45.0831
 21
361.523
  0
LINE
  8
0
 10
45.0831
 20
361.523
 11
44.9272
 21
360.705
  0
LINE
  8
0
 10
44.9272
 20
360.705
 11
44.875
 21
359.875
  0
LINE
  8
0
 10
44.875
 20
359.875
 11
44.9272
 21
359.045
  0
LINE
  8
0
 10
44.9272
 20
359.045
 11
45.0831
 21
358.227
  0
LINE
  8
0
 10
45.0831
 20
358.227
 11
45.3402
 21
357.436
  0
LINE
  8
0
 10
45.3402
 20
357.436
 11
45.6945
 21
356.683
  0
LINE
  8
0
 10
45.6945
 20
356.683
 11
46.1403
 21
355.981
  0
LINE
  8
0
 10
46.1403
 20
355.981
 11
46.6706
 21
355.34
  0
LINE
  8
0
 10
46.6706
 20
355.34
 11
47.2771
 21
354.77
  0
LINE
  8
0
 10
47.2771
 20
354.77
 11
47.9501
 21
354.281
  0
LINE
  8
0
 10
47.9501
 20
354.281
 11
48.6792
 21
353.881
  0
LINE
  8
0
 10
48.6792
 20
353.881
 11
49.4528
 21
353.574
  0
LINE
  8
0
 10
49.4528
 20
353.574
 11
50.2586
 21
353.367
  0
LINE
  8
0
 10
50.2586
 20
353.367
 11
51.084
 21
353.263
  0
LINE
  8
0
 10
51.084
 20
353.263
 11
51.5
 21
353.263
  0
LINE
  8
0
 10
51.5
 20
353.263
 11
51.5
 21
353.25
  0
LINE
  8
0
 10
51.5
 20
353.25
 11
103
 21
353.25
  0
LINE
  8
0
 10
103
 20
353.25
 11
103
 21
349.75
  0
LINE
  8
0
 10
103
 20
349.75
 11
0
 21
349.75
  0
LINE
  8
0
 10
0
 20
349.75
 11
0
 21
1.75
  0
LINE
  8
0
 10
0
 20
1.75
 11
103
 21
1.75
  0
LINE
  8
0
 10
103
 20
1.75
 11
103
 21
-1.75
  0
LINE
  8
0
 10
103
 20
-1.75
 11
51.5
 21
-1.75
  0
LINE
  8
0
 10
51.5
 20
-1.75
 11
51.5
 21
-1.76306
  0
LINE
  8
0
 10
51.5
 20
-1.76306
 11
51.084
 21
-1.76306
  0
LINE
  8
0
 10
51.084
 20
-1.76306
 11
50.2586
 21
-1.86734
  0
LINE
  8
0
 10
50.2586
 20
-1.86734
 11
49.4528
 21
-2.07425
  0
LINE
  8
0
 10
49.4528
 20
-2.07425
 11
48.6792
 21
-2.38051
  0
LINE
  8
0
 10
48.6792
 20
-2.38051
 11
47.9501
 21
-2.78133
  0
LINE
  8
0
 10
47.9501
 20
-2.78133
 11
47.2771
 21
-3.27034
  0
LINE
  8
0
 10
47.2771
 20
-3.27034
 11
46.6706
 21
-3.83987
  0
LINE
  8
0
 10
46.6706
 20
-3.83987
 11
46.1403
 21
-4.48091
  0
LINE
  8
0
 10
46.1403
 20
-4.48091
 11
45.6945
 21
-5.18338
  0
LINE
  8
0
 10
45.6945
 20
-5.18338
 11
45.3402
 21
-5.93617
  0
LINE
  8
0
 10
45.3402
 20
-5.93617
 11
45.0831
 21
-6.72742
  0
LINE
  8
0
 10
45.0831
 20
-6.72742
 11
44.9272
 21
-7.54466
  0
LINE
  8
0
 10
44.9272
 20
-7.54466
 11
44.875
 21
-8.375
  0
LINE
  8
0
 10
44.875
 20
-8.375
 11
44.9272
 21
-9.20532
  0
LINE
  8
0
 10
44.9272
 20
-9.20532
 11
45.0831
 21
-10.0226
  0
LINE
  8
0
 10
45.0831
 20
-10.0226
 11
45.3402
 21
-10.8138
  0
LINE
  8
0
 10
45.3402
 20
-10.8138
 11
45.6945
 21
-11.5666
  0
LINE
  8
0
 10
45.6945
 20
-11.5666
 11
46.1403
 21
-12.2691
  0
LINE
  8
0
 10
46.1403
 20
-12.2691
 11
46.6706
 21
-12.9101
  0
LINE
  8
0
 10
46.6706
 20
-12.9101
 11
47.2771
 21
-13.4796
  0
LINE
  8
0
 10
47.2771
 20
-13.4796
 11
47.9501
 21
-13.9687
  0
LINE
  8
0
 10
47.9501
 20
-13.9687
 11
48.6792
 21
-14.3695
  0
LINE
  8
0
 10
48.6792
 20
-14.3695
 11
49.4528
 21
-14.6757
  0
LINE
  8
0
 10
49.4528
 20
-14.6757
 11
50.2586
 21
-14.8826
  0
LINE
  8
0
 10
50.2586
 20
-14.8826
 11
51.084
 21
-14.9869
  0
LINE
  8
0
 10
51.084
 20
-14.9869
 11
51.5
 21
-14.9869
  0
LINE
  8
0
 10
51.5
 20
-14.9869
 11
51.5
 21
-15
  0
LINE
  8
0
 10
51.5
 20
-15
 11
206
 21
-15
  0
LINE
  8
0
 10
206
 20
-15
 11
206
 21
23.5
  0
LINE
  8
0
 10
7.5
 20
285.594
 11
7.5
 21
329.531
  0
LINE
  8
0
 10
7.5
 20
329.531
 11
11
 21
329.531
  0
LINE
  8
0
 10
11
 20
329.531
 11
11
 21
285.594
  0
LINE
  8
0
 10
11
 20
285.594
 11
7.5
 21
285.594
  0
LINE
  8
0
 10
7.5
 20
197.719
 11
7.5
 21
241.656
  0
LINE
  8
0
 10
7.5
 20
241.656
 11
11
 21
241.656
  0
LINE
  8
0
 10
11
 20
241.656
 11
11
 21
197.719
  0
LINE
  8
0
 10
11
 20
197.719
 11
7.5
 21
197.719
  0
LINE
  8
0
 10
7.5
 20
109.844
 11
7.5
 21
153.781
  0
LINE
  8
0
 10
7.5
 20
153.781
 11
11
 21
153.781
  0
LINE
  8
0
 10
11
 20
153.781
 11
11
 21
109.844
  0
LINE
  8
0
 10
11
 20
109.844
 11
7.5
 21
109.844
  0
LINE
  8
0
 10
7.5
 20
21.9688
 11
7.5
 21
65.9062
  0
LINE
  8
0
 10
7.5
 20
65.9062
 11
11
 21
65.9062
  0
LINE
  8
0
 10
11
 20
65.9062
 11
11
 21
21.9688
  0
LINE
  8
0
 10
11
 20
21.9688
 11
7.5
 21
21.9688
  0
ENDSEC
  0
SECTION
  2
OBJECTS
  0
DICTIONARY
  0
ENDSEC
  0
EOF
