  0
SECTION
  2
BLOCKS
  0
ENDSEC
  0
SECTION
  2
ENTITIES
  0
LINE
  8
0
 10
206
 20
23.5
 11
202.5
 21
23.5
  0
LINE
  8
0
 10
202.5
 20
23.5
 11
202.5
 21
67
  0
LINE
  8
0
 10
202.5
 20
67
 11
206
 21
67
  0
LINE
  8
0
 10
206
 20
67
 11
206
 21
110.5
  0
LINE
  8
0
 10
206
 20
110.5
 11
202.5
 21
110.5
  0
LINE
  8
0
 10
202.5
 20
110.5
 11
202.5
 21
154
  0
LINE
  8
0
 10
202.5
 20
154
 11
206
 21
154
  0
LINE
  8
0
 10
206
 20
154
 11
206
 21
197.5
  0
LINE
  8
0
 10
206
 20
197.5
 11
202.5
 21
197.5
  0
LINE
  8
0
 10
202.5
 20
197.5
 11
202.5
 21
241
  0
LINE
  8
0
 10
202.5
 20
241
 11
206
 21
241
  0
LINE
  8
0
 10
206
 20
241
 11
206
 21
284.5
  0
LINE
  8
0
 10
206
 20
284.5
 11
202.5
 21
284.5
  0
LINE
  8
0
 10
202.5
 20
284.5
 11
202.5
 21
328
  0
LINE
  8
0
 10
202.5
 20
328
 11
206
 21
328
  0
LINE
  8
0
 10
206
 20
328
 11
206
 21
366.5
  0
LINE
  8
0
 10
206
 20
366.5
 11
51.5
 21
366.5
  0
LINE
  8
0
 10
51.5
 20
366.5
 11
51.5
 21
366.487
  0
LINE
  8
0
 10
51.5
 20
366.487
 11
51.084
 21
366.487
  0
LINE
  8
0
 10
51.084
 20
366.487
 11
50.2586
 21
366.383
  0
LINE
  8
0
 10
50.2586
 20
366.383
 11
49.4528
 21
366.176
  0
LINE
  8
0
 10
49.4528
 20
366.176
 11
48.6792
 21
365.869
  0
LINE
  8
0
 10
48.6792
 20
365.869
 11
47.9501
 21
365.469
  0
LINE
  8
0
 10
47.9501
 20
365.469
 11
47.2771
 21
364.98
  0
LINE
  8
0
 10
47.2771
 20
364.98
 11
46.6706
 21
364.41
  0
LINE
  8
0
 10
46.6706
 20
364.41
 11
46.1403
 21
363.769
  0
LINE
  8
0
 10
46.1403
 20
363.769
 11
45.6945
 21
363.067
  0
LINE
  8
0
 10
45.6945
 20
363.067
 11
45.3402
 21
362.314
  0
LINE
  8
0
 10
45.3402
 20
362.314
 11
45.0831
 21
361.523
  0
LINE
  8
0
 10
45.0831
 20
361.523
 11
44.9272
 21
360.705
  0
LINE
  8
0
 10
44.9272
 20
360.705
 11
44.875
 21
359.875
  0
LINE
  8
0
 10
44.875
 20
359.875
 11
44.9272
 21
359.045
  0
LINE
  8
0
 10
44.9272
 20
359.045
 11
45.0831
 21
358.227
  0
LINE
  8
0
 10
45.0831
 20
358.227
 11
45.3402
 21
357.436
  0
LINE
  8
0
 10
45.3402
 20
357.436
 11
45.6945
 21
356.683
  0
LINE
  8
0
 10
45.6945
 20
356.683
 11
46.1403
 21
355.981
  0
LINE
  8
0
 10
46.1403
 20
355.981
 11
46.6706
 21
355.34
  0
LINE
  8
0
 10
46.6706
 20
355.34
 11
47.2771
 21
354.77
  0
LINE
  8
0
 10
47.2771
 20
354.77
 11
47.9501
 21
354.281
  0
LINE
  8
0
 10
47.9501
 20
354.281
 11
48.6792
 21
353.881
  0
LINE
  8
0
 10
48.6792
 20
353.881
 11
49.4528
 21
353.574
  0
LINE
  8
0
 10
49.4528
 20
353.574
 11
50.2586
 21
353.367
  0
LINE
  8
0
 10
50.2586
 20
353.367
 11
51.084
 21
353.263
  0
LINE
  8
0
 10
51.084
 20
353.263
 11
51.5
 21
353.263
  0
LINE
  8
0
 10
51.5
 20
353.263
 11
51.5
 21
353.25
  0
LINE
  8
0
 10
51.5
 20
353.25
 11
103
 21
353.25
  0
LINE
  8
0
 10
103
 20
353.25
 11
103
 21
349.75
  0
LINE
  8
0
 10
103
 20
349.75
 11
0
 21
349.75
  0
LINE
  8
0
 10
0
 20
349.75
 11
0
 21
1.75
  0
LINE
  8
0
 10
0
 20
1.75
 11
103
 21
1.75
  0
LINE
  8
0
 10
103
 20
1.75
 11
103
 21
-1.75
  0
LINE
  8
0
 10
103
 20
-1.75
 11
51.5
 21
-1.75
  0
LINE
  8
0
 10
51.5
 20
-1.75
 11
51.5
 21
-1.76306
  0
LINE
  8
0
 10
51.5
 20
-1.76306
 11
51.084
 21
-1.76306
  0
LINE
  8
0
 10
51.084
 20
-1.76306
 11
50.2586
 21
-1.86734
  0
LINE
  8
0
 10
50.2586
 20
-1.86734
 11
49.4528
 21
-2.07425
  0
LINE
  8
0
 10
49.4528
 20
-2.07425
 11
48.6792
 21
-2.38051
  0
LINE
  8
0
 10
48.6792
 20
-2.38051
 11
47.9501
 21
-2.78133
  0
LINE
  8
0
 10
47.9501
 20
-2.78133
 11
47.2771
 21
-3.27034
  0
LINE
  8
0
 10
47.2771
 20
-3.27034
 11
46.6706
 21
-3.83987
  0
LINE
  8
0
 10
46.6706
 20
-3.83987
 11
46.1403
 21
-4.48091
  0
LINE
  8
0
 10
46.1403
 20
-4.48091
 11
45.6945
 21
-5.18338
  0
LINE
  8
0
 10
45.6945
 20
-5.18338
 11
45.3402
 21
-5.93617
  0
LINE
  8
0
 10
45.3402
 20
-5.93617
 11
45.0831
 21
-6.72742
  0
LINE
  8
0
 10
45.0831
 20
-6.72742
 11
44.9272
 21
-7.54466
  0
LINE
  8
0
 10
44.9272
 20
-7.54466
 11
44.875
 21
-8.375
  0
LINE
  8
0
 10
44.875
 20
-8.375
 11
44.9272
 21
-9.20532
  0
LINE
  8
0
 10
44.9272
 20
-9.20532
 11
45.0831
 21
-10.0226
  0
LINE
  8
0
 10
45.0831
 20
-10.0226
 11
45.3402
 21
-10.8138
  0
LINE
  8
0
 10
45.3402
 20
-10.8138
 11
45.6945
 21
-11.5666
  0
LINE
  8
0
 10
45.6945
 20
-11.5666
 11
46.1403
 21
-12.2691
  0
LINE
  8
0
 10
46.1403
 20
-12.2691
 11
46.6706
 21
-12.9101
  0
LINE
  8
0
 10
46.6706
 20
-12.9101
 11
47.2771
 21
-13.4796
  0
LINE
  8
0
 10
47.2771
 20
-13.4796
 11
47.9501
 21
-13.9687
  0
LINE
  8
0
 10
47.9501
 20
-13.9687
 11
48.6792
 21
-14.3695
  0
LINE
  8
0
 10
48.6792
 20
-14.3695
 11
49.4528
 21
-14.6757
  0
LINE
  8
0
 10
49.4528
 20
-14.6757
 11
50.2586
 21
-14.8826
  0
LINE
  8
0
 10
50.2586
 20
-14.8826
 11
51.084
 21
-14.9869
  0
LINE
  8
0
 10
51.084
 20
-14.9869
 11
51.5
 21
-14.9869
  0
LINE
  8
0
 10
51.5
 20
-14.9869
 11
51.5
 21
-15
  0
LINE
  8
0
 10
51.5
 20
-15
 11
206
 21
-15
  0
LINE
  8
0
 10
206
 20
-15
 11
206
 21
23.5
  0
LINE
  8
0
 10
7.5
 20
285.594
 11
7.5
 21
329.531
  0
LINE
  8
0
 10
7.5
 20
329.531
 11
11
 21
329.531
  0
LINE
  8
0
 10
11
 20
329.531
 11
11
 21
285.594
  0
LINE
  8
0
 10
11
 20
285.594
 11
7.5
 21
285.594
  0
LINE
  8
0
 10
44.7488
 20
307.508
 11
44.2505
 21
307.571
  0
LINE
  8
0
 10
44.2505
 20
307.571
 11
43.7639
 21
307.696
  0
LINE
  8
0
 10
43.7639
 20
307.696
 11
43.2969
 21
307.881
  0
LINE
  8
0
 10
43.2969
 20
307.881
 11
42.8567
 21
308.123
  0
LINE
  8
0
 10
42.8567
 20
308.123
 11
42.4503
 21
308.418
  0
LINE
  8
0
 10
42.4503
 20
308.418
 11
42.0841
 21
308.762
  0
LINE
  8
0
 10
42.0841
 20
308.762
 11
41.7639
 21
309.149
  0
LINE
  8
0
 10
41.7639
 20
309.149
 11
41.4948
 21
309.573
  0
LINE
  8
0
 10
41.4948
 20
309.573
 11
41.2809
 21
310.027
  0
LINE
  8
0
 10
41.2809
 20
310.027
 11
41.1257
 21
310.505
  0
LINE
  8
0
 10
41.1257
 20
310.505
 11
41.0315
 21
310.999
  0
LINE
  8
0
 10
41.0315
 20
310.999
 11
41
 21
311.5
  0
LINE
  8
0
 10
41
 20
311.5
 11
41.0315
 21
312.001
  0
LINE
  8
0
 10
41.0315
 20
312.001
 11
41.1257
 21
312.495
  0
LINE
  8
0
 10
41.1257
 20
312.495
 11
41.2809
 21
312.973
  0
LINE
  8
0
 10
41.2809
 20
312.973
 11
41.4948
 21
313.427
  0
LINE
  8
0
 10
41.4948
 20
313.427
 11
41.7639
 21
313.851
  0
LINE
  8
0
 10
41.7639
 20
313.851
 11
42.0841
 21
314.238
  0
LINE
  8
0
 10
42.0841
 20
314.238
 11
42.4503
 21
314.582
  0
LINE
  8
0
 10
42.4503
 20
314.582
 11
42.8567
 21
314.877
  0
LINE
  8
0
 10
42.8567
 20
314.877
 11
43.2969
 21
315.119
  0
LINE
  8
0
 10
43.2969
 20
315.119
 11
43.7639
 21
315.304
  0
LINE
  8
0
 10
43.7639
 20
315.304
 11
44.2505
 21
315.429
  0
LINE
  8
0
 10
44.2505
 20
315.429
 11
44.7488
 21
315.492
  0
LINE
  8
0
 10
44.7488
 20
315.492
 11
45.2512
 21
315.492
  0
LINE
  8
0
 10
45.2512
 20
315.492
 11
45.7495
 21
315.429
  0
LINE
  8
0
 10
45.7495
 20
315.429
 11
46.2361
 21
315.304
  0
LINE
  8
0
 10
46.2361
 20
315.304
 11
46.7031
 21
315.119
  0
LINE
  8
0
 10
46.7031
 20
315.119
 11
47.1433
 21
314.877
  0
LINE
  8
0
 10
47.1433
 20
314.877
 11
47.5497
 21
314.582
  0
LINE
  8
0
 10
47.5497
 20
314.582
 11
47.9159
 21
314.238
  0
LINE
  8
0
 10
47.9159
 20
314.238
 11
48.2361
 21
313.851
  0
LINE
  8
0
 10
48.2361
 20
313.851
 11
48.5052
 21
313.427
  0
LINE
  8
0
 10
48.5052
 20
313.427
 11
48.7191
 21
312.973
  0
LINE
  8
0
 10
48.7191
 20
312.973
 11
48.8743
 21
312.495
  0
LINE
  8
0
 10
48.8743
 20
312.495
 11
48.9685
 21
312.001
  0
LINE
  8
0
 10
48.9685
 20
312.001
 11
49
 21
311.5
  0
LINE
  8
0
 10
49
 20
311.5
 11
48.9685
 21
310.999
  0
LINE
  8
0
 10
48.9685
 20
310.999
 11
48.8743
 21
310.505
  0
LINE
  8
0
 10
48.8743
 20
310.505
 11
48.7191
 21
310.027
  0
LINE
  8
0
 10
48.7191
 20
310.027
 11
48.5052
 21
309.573
  0
LINE
  8
0
 10
48.5052
 20
309.573
 11
48.2361
 21
309.149
  0
LINE
  8
0
 10
48.2361
 20
309.149
 11
47.9159
 21
308.762
  0
LINE
  8
0
 10
47.9159
 20
308.762
 11
47.5497
 21
308.418
  0
LINE
  8
0
 10
47.5497
 20
308.418
 11
47.1433
 21
308.123
  0
LINE
  8
0
 10
47.1433
 20
308.123
 11
46.7031
 21
307.881
  0
LINE
  8
0
 10
46.7031
 20
307.881
 11
46.2361
 21
307.696
  0
LINE
  8
0
 10
46.2361
 20
307.696
 11
45.7495
 21
307.571
  0
LINE
  8
0
 10
45.7495
 20
307.571
 11
45.2512
 21
307.508
  0
LINE
  8
0
 10
45.2512
 20
307.508
 11
44.7488
 21
307.508
  0
LINE
  8
0
 10
34.6232
 20
243.774
 11
33.8757
 21
243.963
  0
LINE
  8
0
 10
33.8757
 20
243.963
 11
33.1459
 21
244.337
  0
LINE
  8
0
 10
33.1459
 20
244.337
 11
32.4453
 21
244.892
  0
LINE
  8
0
 10
32.4453
 20
244.892
 11
31.785
 21
245.618
  0
LINE
  8
0
 10
31.785
 20
245.618
 11
31.1754
 21
246.504
  0
LINE
  8
0
 10
31.1754
 20
246.504
 11
30.6262
 21
247.535
  0
LINE
  8
0
 10
30.6262
 20
247.535
 11
30.1459
 21
248.697
  0
LINE
  8
0
 10
30.1459
 20
248.697
 11
29.7422
 21
249.969
  0
LINE
  8
0
 10
29.7422
 20
249.969
 11
29.4213
 21
251.333
  0
LINE
  8
0
 10
29.4213
 20
251.333
 11
29.1885
 21
252.766
  0
LINE
  8
0
 10
29.1885
 20
252.766
 11
29.0473
 21
254.246
  0
LINE
  8
0
 10
29.0473
 20
254.246
 11
29
 21
255.75
  0
LINE
  8
0
 10
29
 20
255.75
 11
29.0473
 21
257.254
  0
LINE
  8
0
 10
29.0473
 20
257.254
 11
29.1885
 21
258.734
  0
LINE
  8
0
 10
29.1885
 20
258.734
 11
29.4213
 21
260.167
  0
LINE
  8
0
 10
29.4213
 20
260.167
 11
29.7422
 21
261.531
  0
LINE
  8
0
 10
29.7422
 20
261.531
 11
30.1459
 21
262.803
  0
LINE
  8
0
 10
30.1459
 20
262.803
 11
30.6262
 21
263.965
  0
LINE
  8
0
 10
30.6262
 20
263.965
 11
31.1754
 21
264.996
  0
LINE
  8
0
 10
31.1754
 20
264.996
 11
31.785
 21
265.882
  0
LINE
  8
0
 10
31.785
 20
265.882
 11
32.4453
 21
266.608
  0
LINE
  8
0
 10
32.4453
 20
266.608
 11
33.1459
 21
267.163
  0
LINE
  8
0
 10
33.1459
 20
267.163
 11
33.8757
 21
267.537
  0
LINE
  8
0
 10
33.8757
 20
267.537
 11
34.6232
 21
267.726
  0
LINE
  8
0
 10
34.6232
 20
267.726
 11
35.3767
 21
267.726
  0
LINE
  8
0
 10
35.3767
 20
267.726
 11
36.1243
 21
267.537
  0
LINE
  8
0
 10
36.1243
 20
267.537
 11
36.8541
 21
267.163
  0
LINE
  8
0
 10
36.8541
 20
267.163
 11
37.5547
 21
266.608
  0
LINE
  8
0
 10
37.5547
 20
266.608
 11
38.215
 21
265.882
  0
LINE
  8
0
 10
38.215
 20
265.882
 11
38.8245
 21
264.996
  0
LINE
  8
0
 10
38.8245
 20
264.996
 11
39.3738
 21
263.965
  0
LINE
  8
0
 10
39.3738
 20
263.965
 11
39.8541
 21
262.803
  0
LINE
  8
0
 10
39.8541
 20
262.803
 11
40.2578
 21
261.531
  0
LINE
  8
0
 10
40.2578
 20
261.531
 11
40.5787
 21
260.167
  0
LINE
  8
0
 10
40.5787
 20
260.167
 11
40.8115
 21
258.734
  0
LINE
  8
0
 10
40.8115
 20
258.734
 11
40.9527
 21
257.254
  0
LINE
  8
0
 10
40.9527
 20
257.254
 11
41
 21
255.75
  0
LINE
  8
0
 10
41
 20
255.75
 11
40.9527
 21
254.246
  0
LINE
  8
0
 10
40.9527
 20
254.246
 11
40.8115
 21
252.766
  0
LINE
  8
0
 10
40.8115
 20
252.766
 11
40.5787
 21
251.333
  0
LINE
  8
0
 10
40.5787
 20
251.333
 11
40.2578
 21
249.969
  0
LINE
  8
0
 10
40.2578
 20
249.969
 11
39.8541
 21
248.697
  0
LINE
  8
0
 10
39.8541
 20
248.697
 11
39.3738
 21
247.535
  0
LINE
  8
0
 10
39.3738
 20
247.535
 11
38.8245
 21
246.504
  0
LINE
  8
0
 10
38.8245
 20
246.504
 11
38.215
 21
245.618
  0
LINE
  8
0
 10
38.215
 20
245.618
 11
37.5547
 21
244.892
  0
LINE
  8
0
 10
37.5547
 20
244.892
 11
36.8541
 21
244.337
  0
LINE
  8
0
 10
36.8541
 20
244.337
 11
36.1243
 21
243.963
  0
LINE
  8
0
 10
36.1243
 20
243.963
 11
35.3767
 21
243.774
  0
LINE
  8
0
 10
35.3767
 20
243.774
 11
34.6232
 21
243.774
  0
LINE
  8
0
 10
7.5
 20
197.719
 11
7.5
 21
241.656
  0
LINE
  8
0
 10
7.5
 20
241.656
 11
11
 21
241.656
  0
LINE
  8
0
 10
11
 20
241.656
 11
11
 21
197.719
  0
LINE
  8
0
 10
11
 20
197.719
 11
7.5
 21
197.719
  0
LINE
  8
0
 10
145.5
 20
224
 11
145.5
 21
227.5
  0
LINE
  8
0
 10
145.5
 20
227.5
 11
160.5
 21
227.5
  0
LINE
  8
0
 10
160.5
 20
227.5
 11
160.5
 21
224
  0
LINE
  8
0
 10
160.5
 20
224
 11
145.5
 21
224
  0
LINE
  8
0
 10
55.5
 20
224
 11
55.5
 21
227.5
  0
LINE
  8
0
 10
55.5
 20
227.5
 11
65.5
 21
227.5
  0
LINE
  8
0
 10
65.5
 20
227.5
 11
65.5
 21
224
  0
LINE
  8
0
 10
65.5
 20
224
 11
55.5
 21
224
  0
LINE
  8
0
 10
102.947
 20
185.402
 11
102.841
 21
185.415
  0
LINE
  8
0
 10
102.841
 20
185.415
 11
102.737
 21
185.442
  0
LINE
  8
0
 10
102.737
 20
185.442
 11
102.638
 21
185.481
  0
LINE
  8
0
 10
102.638
 20
185.481
 11
102.545
 21
185.532
  0
LINE
  8
0
 10
102.545
 20
185.532
 11
102.458
 21
185.595
  0
LINE
  8
0
 10
102.458
 20
185.595
 11
102.38
 21
185.668
  0
LINE
  8
0
 10
102.38
 20
185.668
 11
102.312
 21
185.75
  0
LINE
  8
0
 10
102.312
 20
185.75
 11
102.255
 21
185.841
  0
LINE
  8
0
 10
102.255
 20
185.841
 11
102.21
 21
185.937
  0
LINE
  8
0
 10
102.21
 20
185.937
 11
102.177
 21
186.039
  0
LINE
  8
0
 10
102.177
 20
186.039
 11
102.157
 21
186.143
  0
LINE
  8
0
 10
102.157
 20
186.143
 11
102.15
 21
186.25
  0
LINE
  8
0
 10
102.15
 20
186.25
 11
102.157
 21
186.357
  0
LINE
  8
0
 10
102.157
 20
186.357
 11
102.177
 21
186.461
  0
LINE
  8
0
 10
102.177
 20
186.461
 11
102.21
 21
186.563
  0
LINE
  8
0
 10
102.21
 20
186.563
 11
102.255
 21
186.659
  0
LINE
  8
0
 10
102.255
 20
186.659
 11
102.312
 21
186.75
  0
LINE
  8
0
 10
102.312
 20
186.75
 11
102.38
 21
186.832
  0
LINE
  8
0
 10
102.38
 20
186.832
 11
102.458
 21
186.905
  0
LINE
  8
0
 10
102.458
 20
186.905
 11
102.545
 21
186.968
  0
LINE
  8
0
 10
102.545
 20
186.968
 11
102.638
 21
187.019
  0
LINE
  8
0
 10
102.638
 20
187.019
 11
102.737
 21
187.058
  0
LINE
  8
0
 10
102.737
 20
187.058
 11
102.841
 21
187.085
  0
LINE
  8
0
 10
102.841
 20
187.085
 11
102.947
 21
187.098
  0
LINE
  8
0
 10
102.947
 20
187.098
 11
103.053
 21
187.098
  0
LINE
  8
0
 10
103.053
 20
187.098
 11
103.159
 21
187.085
  0
LINE
  8
0
 10
103.159
 20
187.085
 11
103.263
 21
187.058
  0
LINE
  8
0
 10
103.263
 20
187.058
 11
103.362
 21
187.019
  0
LINE
  8
0
 10
103.362
 20
187.019
 11
103.455
 21
186.968
  0
LINE
  8
0
 10
103.455
 20
186.968
 11
103.542
 21
186.905
  0
LINE
  8
0
 10
103.542
 20
186.905
 11
103.62
 21
186.832
  0
LINE
  8
0
 10
103.62
 20
186.832
 11
103.688
 21
186.75
  0
LINE
  8
0
 10
103.688
 20
186.75
 11
103.745
 21
186.659
  0
LINE
  8
0
 10
103.745
 20
186.659
 11
103.79
 21
186.563
  0
LINE
  8
0
 10
103.79
 20
186.563
 11
103.823
 21
186.461
  0
LINE
  8
0
 10
103.823
 20
186.461
 11
103.843
 21
186.357
  0
LINE
  8
0
 10
103.843
 20
186.357
 11
103.85
 21
186.25
  0
LINE
  8
0
 10
103.85
 20
186.25
 11
103.843
 21
186.143
  0
LINE
  8
0
 10
103.843
 20
186.143
 11
103.823
 21
186.039
  0
LINE
  8
0
 10
103.823
 20
186.039
 11
103.79
 21
185.937
  0
LINE
  8
0
 10
103.79
 20
185.937
 11
103.745
 21
185.841
  0
LINE
  8
0
 10
103.745
 20
185.841
 11
103.688
 21
185.75
  0
LINE
  8
0
 10
103.688
 20
185.75
 11
103.62
 21
185.668
  0
LINE
  8
0
 10
103.62
 20
185.668
 11
103.542
 21
185.595
  0
LINE
  8
0
 10
103.542
 20
185.595
 11
103.455
 21
185.532
  0
LINE
  8
0
 10
103.455
 20
185.532
 11
103.362
 21
185.481
  0
LINE
  8
0
 10
103.362
 20
185.481
 11
103.263
 21
185.442
  0
LINE
  8
0
 10
103.263
 20
185.442
 11
103.159
 21
185.415
  0
LINE
  8
0
 10
103.159
 20
185.415
 11
103.053
 21
185.402
  0
LINE
  8
0
 10
103.053
 20
185.402
 11
102.947
 21
185.402
  0
LINE
  8
0
 10
115.447
 20
185.402
 11
115.341
 21
185.415
  0
LINE
  8
0
 10
115.341
 20
185.415
 11
115.237
 21
185.442
  0
LINE
  8
0
 10
115.237
 20
185.442
 11
115.138
 21
185.481
  0
LINE
  8
0
 10
115.138
 20
185.481
 11
115.045
 21
185.532
  0
LINE
  8
0
 10
115.045
 20
185.532
 11
114.958
 21
185.595
  0
LINE
  8
0
 10
114.958
 20
185.595
 11
114.88
 21
185.668
  0
LINE
  8
0
 10
114.88
 20
185.668
 11
114.812
 21
185.75
  0
LINE
  8
0
 10
114.812
 20
185.75
 11
114.755
 21
185.841
  0
LINE
  8
0
 10
114.755
 20
185.841
 11
114.71
 21
185.937
  0
LINE
  8
0
 10
114.71
 20
185.937
 11
114.677
 21
186.039
  0
LINE
  8
0
 10
114.677
 20
186.039
 11
114.657
 21
186.143
  0
LINE
  8
0
 10
114.657
 20
186.143
 11
114.65
 21
186.25
  0
LINE
  8
0
 10
114.65
 20
186.25
 11
114.657
 21
186.357
  0
LINE
  8
0
 10
114.657
 20
186.357
 11
114.677
 21
186.461
  0
LINE
  8
0
 10
114.677
 20
186.461
 11
114.71
 21
186.563
  0
LINE
  8
0
 10
114.71
 20
186.563
 11
114.755
 21
186.659
  0
LINE
  8
0
 10
114.755
 20
186.659
 11
114.812
 21
186.75
  0
LINE
  8
0
 10
114.812
 20
186.75
 11
114.88
 21
186.832
  0
LINE
  8
0
 10
114.88
 20
186.832
 11
114.958
 21
186.905
  0
LINE
  8
0
 10
114.958
 20
186.905
 11
115.045
 21
186.968
  0
LINE
  8
0
 10
115.045
 20
186.968
 11
115.138
 21
187.019
  0
LINE
  8
0
 10
115.138
 20
187.019
 11
115.237
 21
187.058
  0
LINE
  8
0
 10
115.237
 20
187.058
 11
115.341
 21
187.085
  0
LINE
  8
0
 10
115.341
 20
187.085
 11
115.447
 21
187.098
  0
LINE
  8
0
 10
115.447
 20
187.098
 11
115.553
 21
187.098
  0
LINE
  8
0
 10
115.553
 20
187.098
 11
115.659
 21
187.085
  0
LINE
  8
0
 10
115.659
 20
187.085
 11
115.763
 21
187.058
  0
LINE
  8
0
 10
115.763
 20
187.058
 11
115.862
 21
187.019
  0
LINE
  8
0
 10
115.862
 20
187.019
 11
115.955
 21
186.968
  0
LINE
  8
0
 10
115.955
 20
186.968
 11
116.042
 21
186.905
  0
LINE
  8
0
 10
116.042
 20
186.905
 11
116.12
 21
186.832
  0
LINE
  8
0
 10
116.12
 20
186.832
 11
116.188
 21
186.75
  0
LINE
  8
0
 10
116.188
 20
186.75
 11
116.245
 21
186.659
  0
LINE
  8
0
 10
116.245
 20
186.659
 11
116.29
 21
186.563
  0
LINE
  8
0
 10
116.29
 20
186.563
 11
116.323
 21
186.461
  0
LINE
  8
0
 10
116.323
 20
186.461
 11
116.343
 21
186.357
  0
LINE
  8
0
 10
116.343
 20
186.357
 11
116.35
 21
186.25
  0
LINE
  8
0
 10
116.35
 20
186.25
 11
116.343
 21
186.143
  0
LINE
  8
0
 10
116.343
 20
186.143
 11
116.323
 21
186.039
  0
LINE
  8
0
 10
116.323
 20
186.039
 11
116.29
 21
185.937
  0
LINE
  8
0
 10
116.29
 20
185.937
 11
116.245
 21
185.841
  0
LINE
  8
0
 10
116.245
 20
185.841
 11
116.188
 21
185.75
  0
LINE
  8
0
 10
116.188
 20
185.75
 11
116.12
 21
185.668
  0
LINE
  8
0
 10
116.12
 20
185.668
 11
116.042
 21
185.595
  0
LINE
  8
0
 10
116.042
 20
185.595
 11
115.955
 21
185.532
  0
LINE
  8
0
 10
115.955
 20
185.532
 11
115.862
 21
185.481
  0
LINE
  8
0
 10
115.862
 20
185.481
 11
115.763
 21
185.442
  0
LINE
  8
0
 10
115.763
 20
185.442
 11
115.659
 21
185.415
  0
LINE
  8
0
 10
115.659
 20
185.415
 11
115.553
 21
185.402
  0
LINE
  8
0
 10
115.553
 20
185.402
 11
115.447
 21
185.402
  0
LINE
  8
0
 10
98
 20
170.75
 11
98
 21
180.75
  0
LINE
  8
0
 10
98
 20
180.75
 11
108
 21
180.75
  0
LINE
  8
0
 10
108
 20
180.75
 11
108
 21
170.75
  0
LINE
  8
0
 10
108
 20
170.75
 11
98
 21
170.75
  0
LINE
  8
0
 10
15.0185
 20
174
 11
15.0185
 21
177.5
  0
LINE
  8
0
 10
15.0185
 20
177.5
 11
49.3019
 21
177.5
  0
LINE
  8
0
 10
49.3019
 20
177.5
 11
49.3019
 21
174
  0
LINE
  8
0
 10
49.3019
 20
174
 11
15.0185
 21
174
  0
LINE
  8
0
 10
115.447
 20
164.402
 11
115.341
 21
164.415
  0
LINE
  8
0
 10
115.341
 20
164.415
 11
115.237
 21
164.442
  0
LINE
  8
0
 10
115.237
 20
164.442
 11
115.138
 21
164.481
  0
LINE
  8
0
 10
115.138
 20
164.481
 11
115.045
 21
164.532
  0
LINE
  8
0
 10
115.045
 20
164.532
 11
114.958
 21
164.595
  0
LINE
  8
0
 10
114.958
 20
164.595
 11
114.88
 21
164.668
  0
LINE
  8
0
 10
114.88
 20
164.668
 11
114.812
 21
164.75
  0
LINE
  8
0
 10
114.812
 20
164.75
 11
114.755
 21
164.841
  0
LINE
  8
0
 10
114.755
 20
164.841
 11
114.71
 21
164.937
  0
LINE
  8
0
 10
114.71
 20
164.937
 11
114.677
 21
165.039
  0
LINE
  8
0
 10
114.677
 20
165.039
 11
114.657
 21
165.143
  0
LINE
  8
0
 10
114.657
 20
165.143
 11
114.65
 21
165.25
  0
LINE
  8
0
 10
114.65
 20
165.25
 11
114.657
 21
165.357
  0
LINE
  8
0
 10
114.657
 20
165.357
 11
114.677
 21
165.461
  0
LINE
  8
0
 10
114.677
 20
165.461
 11
114.71
 21
165.563
  0
LINE
  8
0
 10
114.71
 20
165.563
 11
114.755
 21
165.659
  0
LINE
  8
0
 10
114.755
 20
165.659
 11
114.812
 21
165.75
  0
LINE
  8
0
 10
114.812
 20
165.75
 11
114.88
 21
165.832
  0
LINE
  8
0
 10
114.88
 20
165.832
 11
114.958
 21
165.905
  0
LINE
  8
0
 10
114.958
 20
165.905
 11
115.045
 21
165.968
  0
LINE
  8
0
 10
115.045
 20
165.968
 11
115.138
 21
166.019
  0
LINE
  8
0
 10
115.138
 20
166.019
 11
115.237
 21
166.058
  0
LINE
  8
0
 10
115.237
 20
166.058
 11
115.341
 21
166.085
  0
LINE
  8
0
 10
115.341
 20
166.085
 11
115.447
 21
166.098
  0
LINE
  8
0
 10
115.447
 20
166.098
 11
115.553
 21
166.098
  0
LINE
  8
0
 10
115.553
 20
166.098
 11
115.659
 21
166.085
  0
LINE
  8
0
 10
115.659
 20
166.085
 11
115.763
 21
166.058
  0
LINE
  8
0
 10
115.763
 20
166.058
 11
115.862
 21
166.019
  0
LINE
  8
0
 10
115.862
 20
166.019
 11
115.955
 21
165.968
  0
LINE
  8
0
 10
115.955
 20
165.968
 11
116.042
 21
165.905
  0
LINE
  8
0
 10
116.042
 20
165.905
 11
116.12
 21
165.832
  0
LINE
  8
0
 10
116.12
 20
165.832
 11
116.188
 21
165.75
  0
LINE
  8
0
 10
116.188
 20
165.75
 11
116.245
 21
165.659
  0
LINE
  8
0
 10
116.245
 20
165.659
 11
116.29
 21
165.563
  0
LINE
  8
0
 10
116.29
 20
165.563
 11
116.323
 21
165.461
  0
LINE
  8
0
 10
116.323
 20
165.461
 11
116.343
 21
165.357
  0
LINE
  8
0
 10
116.343
 20
165.357
 11
116.35
 21
165.25
  0
LINE
  8
0
 10
116.35
 20
165.25
 11
116.343
 21
165.143
  0
LINE
  8
0
 10
116.343
 20
165.143
 11
116.323
 21
165.039
  0
LINE
  8
0
 10
116.323
 20
165.039
 11
116.29
 21
164.937
  0
LINE
  8
0
 10
116.29
 20
164.937
 11
116.245
 21
164.841
  0
LINE
  8
0
 10
116.245
 20
164.841
 11
116.188
 21
164.75
  0
LINE
  8
0
 10
116.188
 20
164.75
 11
116.12
 21
164.668
  0
LINE
  8
0
 10
116.12
 20
164.668
 11
116.042
 21
164.595
  0
LINE
  8
0
 10
116.042
 20
164.595
 11
115.955
 21
164.532
  0
LINE
  8
0
 10
115.955
 20
164.532
 11
115.862
 21
164.481
  0
LINE
  8
0
 10
115.862
 20
164.481
 11
115.763
 21
164.442
  0
LINE
  8
0
 10
115.763
 20
164.442
 11
115.659
 21
164.415
  0
LINE
  8
0
 10
115.659
 20
164.415
 11
115.553
 21
164.402
  0
LINE
  8
0
 10
115.553
 20
164.402
 11
115.447
 21
164.402
  0
LINE
  8
0
 10
102.947
 20
164.402
 11
102.841
 21
164.415
  0
LINE
  8
0
 10
102.841
 20
164.415
 11
102.737
 21
164.442
  0
LINE
  8
0
 10
102.737
 20
164.442
 11
102.638
 21
164.481
  0
LINE
  8
0
 10
102.638
 20
164.481
 11
102.545
 21
164.532
  0
LINE
  8
0
 10
102.545
 20
164.532
 11
102.458
 21
164.595
  0
LINE
  8
0
 10
102.458
 20
164.595
 11
102.38
 21
164.668
  0
LINE
  8
0
 10
102.38
 20
164.668
 11
102.312
 21
164.75
  0
LINE
  8
0
 10
102.312
 20
164.75
 11
102.255
 21
164.841
  0
LINE
  8
0
 10
102.255
 20
164.841
 11
102.21
 21
164.937
  0
LINE
  8
0
 10
102.21
 20
164.937
 11
102.177
 21
165.039
  0
LINE
  8
0
 10
102.177
 20
165.039
 11
102.157
 21
165.143
  0
LINE
  8
0
 10
102.157
 20
165.143
 11
102.15
 21
165.25
  0
LINE
  8
0
 10
102.15
 20
165.25
 11
102.157
 21
165.357
  0
LINE
  8
0
 10
102.157
 20
165.357
 11
102.177
 21
165.461
  0
LINE
  8
0
 10
102.177
 20
165.461
 11
102.21
 21
165.563
  0
LINE
  8
0
 10
102.21
 20
165.563
 11
102.255
 21
165.659
  0
LINE
  8
0
 10
102.255
 20
165.659
 11
102.312
 21
165.75
  0
LINE
  8
0
 10
102.312
 20
165.75
 11
102.38
 21
165.832
  0
LINE
  8
0
 10
102.38
 20
165.832
 11
102.458
 21
165.905
  0
LINE
  8
0
 10
102.458
 20
165.905
 11
102.545
 21
165.968
  0
LINE
  8
0
 10
102.545
 20
165.968
 11
102.638
 21
166.019
  0
LINE
  8
0
 10
102.638
 20
166.019
 11
102.737
 21
166.058
  0
LINE
  8
0
 10
102.737
 20
166.058
 11
102.841
 21
166.085
  0
LINE
  8
0
 10
102.841
 20
166.085
 11
102.947
 21
166.098
  0
LINE
  8
0
 10
102.947
 20
166.098
 11
103.053
 21
166.098
  0
LINE
  8
0
 10
103.053
 20
166.098
 11
103.159
 21
166.085
  0
LINE
  8
0
 10
103.159
 20
166.085
 11
103.263
 21
166.058
  0
LINE
  8
0
 10
103.263
 20
166.058
 11
103.362
 21
166.019
  0
LINE
  8
0
 10
103.362
 20
166.019
 11
103.455
 21
165.968
  0
LINE
  8
0
 10
103.455
 20
165.968
 11
103.542
 21
165.905
  0
LINE
  8
0
 10
103.542
 20
165.905
 11
103.62
 21
165.832
  0
LINE
  8
0
 10
103.62
 20
165.832
 11
103.688
 21
165.75
  0
LINE
  8
0
 10
103.688
 20
165.75
 11
103.745
 21
165.659
  0
LINE
  8
0
 10
103.745
 20
165.659
 11
103.79
 21
165.563
  0
LINE
  8
0
 10
103.79
 20
165.563
 11
103.823
 21
165.461
  0
LINE
  8
0
 10
103.823
 20
165.461
 11
103.843
 21
165.357
  0
LINE
  8
0
 10
103.843
 20
165.357
 11
103.85
 21
165.25
  0
LINE
  8
0
 10
103.85
 20
165.25
 11
103.843
 21
165.143
  0
LINE
  8
0
 10
103.843
 20
165.143
 11
103.823
 21
165.039
  0
LINE
  8
0
 10
103.823
 20
165.039
 11
103.79
 21
164.937
  0
LINE
  8
0
 10
103.79
 20
164.937
 11
103.745
 21
164.841
  0
LINE
  8
0
 10
103.745
 20
164.841
 11
103.688
 21
164.75
  0
LINE
  8
0
 10
103.688
 20
164.75
 11
103.62
 21
164.668
  0
LINE
  8
0
 10
103.62
 20
164.668
 11
103.542
 21
164.595
  0
LINE
  8
0
 10
103.542
 20
164.595
 11
103.455
 21
164.532
  0
LINE
  8
0
 10
103.455
 20
164.532
 11
103.362
 21
164.481
  0
LINE
  8
0
 10
103.362
 20
164.481
 11
103.263
 21
164.442
  0
LINE
  8
0
 10
103.263
 20
164.442
 11
103.159
 21
164.415
  0
LINE
  8
0
 10
103.159
 20
164.415
 11
103.053
 21
164.402
  0
LINE
  8
0
 10
103.053
 20
164.402
 11
102.947
 21
164.402
  0
LINE
  8
0
 10
7.5
 20
109.844
 11
7.5
 21
153.781
  0
LINE
  8
0
 10
7.5
 20
153.781
 11
11
 21
153.781
  0
LINE
  8
0
 10
11
 20
153.781
 11
11
 21
109.844
  0
LINE
  8
0
 10
11
 20
109.844
 11
7.5
 21
109.844
  0
LINE
  8
0
 10
7.5
 20
21.9688
 11
7.5
 21
65.9062
  0
LINE
  8
0
 10
7.5
 20
65.9062
 11
11
 21
65.9062
  0
LINE
  8
0
 10
11
 20
65.9062
 11
11
 21
21.9688
  0
LINE
  8
0
 10
11
 20
21.9688
 11
7.5
 21
21.9688
  0
ENDSEC
  0
SECTION
  2
OBJECTS
  0
DICTIONARY
  0
ENDSEC
  0
EOF
