  0
SECTION
  2
BLOCKS
  0
ENDSEC
  0
SECTION
  2
ENTITIES
  0
LINE
  8
0
 10
202.5
 20
10.3258
 11
202.121
 21
10.4759
  0
LINE
  8
0
 10
202.121
 20
10.4759
 11
201.571
 21
10.7784
  0
LINE
  8
0
 10
201.571
 20
10.7784
 11
201.063
 21
11.1474
  0
LINE
  8
0
 10
201.063
 20
11.1474
 11
200.605
 21
11.5773
  0
LINE
  8
0
 10
200.605
 20
11.5773
 11
200.205
 21
12.0611
  0
LINE
  8
0
 10
200.205
 20
12.0611
 11
199.868
 21
12.5912
  0
LINE
  8
0
 10
199.868
 20
12.5912
 11
199.601
 21
13.1594
  0
LINE
  8
0
 10
199.601
 20
13.1594
 11
199.407
 21
13.7565
  0
LINE
  8
0
 10
199.407
 20
13.7565
 11
199.289
 21
14.3733
  0
LINE
  8
0
 10
199.289
 20
14.3733
 11
199.25
 21
15
  0
LINE
  8
0
 10
199.25
 20
15
 11
199.289
 21
15.6267
  0
LINE
  8
0
 10
199.289
 20
15.6267
 11
199.407
 21
16.2434
  0
LINE
  8
0
 10
199.407
 20
16.2434
 11
199.601
 21
16.8406
  0
LINE
  8
0
 10
199.601
 20
16.8406
 11
199.868
 21
17.4088
  0
LINE
  8
0
 10
199.868
 20
17.4088
 11
200.205
 21
17.9389
  0
LINE
  8
0
 10
200.205
 20
17.9389
 11
200.605
 21
18.4227
  0
LINE
  8
0
 10
200.605
 20
18.4227
 11
201.063
 21
18.8526
  0
LINE
  8
0
 10
201.063
 20
18.8526
 11
201.571
 21
19.2216
  0
LINE
  8
0
 10
201.571
 20
19.2216
 11
202.121
 21
19.5241
  0
LINE
  8
0
 10
202.121
 20
19.5241
 11
202.5
 21
19.6741
  0
LINE
  8
0
 10
202.5
 20
19.6741
 11
202.5
 21
331.826
  0
LINE
  8
0
 10
202.5
 20
331.826
 11
202.121
 21
331.976
  0
LINE
  8
0
 10
202.121
 20
331.976
 11
201.571
 21
332.278
  0
LINE
  8
0
 10
201.571
 20
332.278
 11
201.063
 21
332.647
  0
LINE
  8
0
 10
201.063
 20
332.647
 11
200.605
 21
333.077
  0
LINE
  8
0
 10
200.605
 20
333.077
 11
200.205
 21
333.561
  0
LINE
  8
0
 10
200.205
 20
333.561
 11
199.868
 21
334.091
  0
LINE
  8
0
 10
199.868
 20
334.091
 11
199.601
 21
334.659
  0
LINE
  8
0
 10
199.601
 20
334.659
 11
199.407
 21
335.257
  0
LINE
  8
0
 10
199.407
 20
335.257
 11
199.289
 21
335.873
  0
LINE
  8
0
 10
199.289
 20
335.873
 11
199.25
 21
336.5
  0
LINE
  8
0
 10
199.25
 20
336.5
 11
199.289
 21
337.127
  0
LINE
  8
0
 10
199.289
 20
337.127
 11
199.407
 21
337.743
  0
LINE
  8
0
 10
199.407
 20
337.743
 11
199.601
 21
338.341
  0
LINE
  8
0
 10
199.601
 20
338.341
 11
199.868
 21
338.909
  0
LINE
  8
0
 10
199.868
 20
338.909
 11
200.205
 21
339.439
  0
LINE
  8
0
 10
200.205
 20
339.439
 11
200.605
 21
339.923
  0
LINE
  8
0
 10
200.605
 20
339.923
 11
201.063
 21
340.353
  0
LINE
  8
0
 10
201.063
 20
340.353
 11
201.571
 21
340.722
  0
LINE
  8
0
 10
201.571
 20
340.722
 11
202.121
 21
341.024
  0
LINE
  8
0
 10
202.121
 20
341.024
 11
202.5
 21
341.174
  0
LINE
  8
0
 10
202.5
 20
341.174
 11
202.5
 21
366.5
  0
LINE
  8
0
 10
202.5
 20
366.5
 11
51.5
 21
366.5
  0
LINE
  8
0
 10
51.5
 20
366.5
 11
51.5
 21
366.487
  0
LINE
  8
0
 10
51.5
 20
366.487
 11
51.084
 21
366.487
  0
LINE
  8
0
 10
51.084
 20
366.487
 11
50.2586
 21
366.383
  0
LINE
  8
0
 10
50.2586
 20
366.383
 11
49.4528
 21
366.176
  0
LINE
  8
0
 10
49.4528
 20
366.176
 11
48.6792
 21
365.869
  0
LINE
  8
0
 10
48.6792
 20
365.869
 11
47.9501
 21
365.469
  0
LINE
  8
0
 10
47.9501
 20
365.469
 11
47.2771
 21
364.98
  0
LINE
  8
0
 10
47.2771
 20
364.98
 11
46.6706
 21
364.41
  0
LINE
  8
0
 10
46.6706
 20
364.41
 11
46.1403
 21
363.769
  0
LINE
  8
0
 10
46.1403
 20
363.769
 11
45.6945
 21
363.067
  0
LINE
  8
0
 10
45.6945
 20
363.067
 11
45.3402
 21
362.314
  0
LINE
  8
0
 10
45.3402
 20
362.314
 11
45.0831
 21
361.523
  0
LINE
  8
0
 10
45.0831
 20
361.523
 11
44.9272
 21
360.705
  0
LINE
  8
0
 10
44.9272
 20
360.705
 11
44.875
 21
359.875
  0
LINE
  8
0
 10
44.875
 20
359.875
 11
44.9272
 21
359.045
  0
LINE
  8
0
 10
44.9272
 20
359.045
 11
45.0831
 21
358.227
  0
LINE
  8
0
 10
45.0831
 20
358.227
 11
45.3402
 21
357.436
  0
LINE
  8
0
 10
45.3402
 20
357.436
 11
45.6945
 21
356.683
  0
LINE
  8
0
 10
45.6945
 20
356.683
 11
46.1403
 21
355.981
  0
LINE
  8
0
 10
46.1403
 20
355.981
 11
46.6706
 21
355.34
  0
LINE
  8
0
 10
46.6706
 20
355.34
 11
47.2771
 21
354.77
  0
LINE
  8
0
 10
47.2771
 20
354.77
 11
47.9501
 21
354.281
  0
LINE
  8
0
 10
47.9501
 20
354.281
 11
48.6792
 21
353.881
  0
LINE
  8
0
 10
48.6792
 20
353.881
 11
49.4528
 21
353.574
  0
LINE
  8
0
 10
49.4528
 20
353.574
 11
50.2586
 21
353.367
  0
LINE
  8
0
 10
50.2586
 20
353.367
 11
51.084
 21
353.263
  0
LINE
  8
0
 10
51.084
 20
353.263
 11
51.5
 21
353.263
  0
LINE
  8
0
 10
51.5
 20
353.263
 11
51.5
 21
353.25
  0
LINE
  8
0
 10
51.5
 20
353.25
 11
103
 21
353.25
  0
LINE
  8
0
 10
103
 20
353.25
 11
103
 21
349.75
  0
LINE
  8
0
 10
103
 20
349.75
 11
21
 21
349.75
  0
LINE
  8
0
 10
21
 20
349.75
 11
20.9211
 21
348.497
  0
LINE
  8
0
 10
20.9211
 20
348.497
 11
20.6858
 21
347.263
  0
LINE
  8
0
 10
20.6858
 20
347.263
 11
20.2978
 21
346.069
  0
LINE
  8
0
 10
20.2978
 20
346.069
 11
19.7631
 21
344.932
  0
LINE
  8
0
 10
19.7631
 20
344.932
 11
19.0902
 21
343.872
  0
LINE
  8
0
 10
19.0902
 20
343.872
 11
18.2897
 21
342.905
  0
LINE
  8
0
 10
18.2897
 20
342.905
 11
17.3742
 21
342.045
  0
LINE
  8
0
 10
17.3742
 20
342.045
 11
16.3583
 21
341.307
  0
LINE
  8
0
 10
16.3583
 20
341.307
 11
15.2578
 21
340.702
  0
LINE
  8
0
 10
15.2578
 20
340.702
 11
14.0902
 21
340.239
  0
LINE
  8
0
 10
14.0902
 20
340.239
 11
12.8738
 21
339.927
  0
LINE
  8
0
 10
12.8738
 20
339.927
 11
11.6279
 21
339.77
  0
LINE
  8
0
 10
11.6279
 20
339.77
 11
11
 21
339.77
  0
LINE
  8
0
 10
11
 20
339.77
 11
11
 21
320.75
  0
LINE
  8
0
 10
11
 20
320.75
 11
4
 21
320.75
  0
LINE
  8
0
 10
4
 20
320.75
 11
4
 21
262.75
  0
LINE
  8
0
 10
4
 20
262.75
 11
11
 21
262.75
  0
LINE
  8
0
 10
11
 20
262.75
 11
11
 21
204.75
  0
LINE
  8
0
 10
11
 20
204.75
 11
4
 21
204.75
  0
LINE
  8
0
 10
4
 20
204.75
 11
4
 21
146.75
  0
LINE
  8
0
 10
4
 20
146.75
 11
11
 21
146.75
  0
LINE
  8
0
 10
11
 20
146.75
 11
11
 21
88.75
  0
LINE
  8
0
 10
11
 20
88.75
 11
4
 21
88.75
  0
LINE
  8
0
 10
4
 20
88.75
 11
4
 21
30.75
  0
LINE
  8
0
 10
4
 20
30.75
 11
11
 21
30.75
  0
LINE
  8
0
 10
11
 20
30.75
 11
11
 21
1.75
  0
LINE
  8
0
 10
11
 20
1.75
 11
103
 21
1.75
  0
LINE
  8
0
 10
103
 20
1.75
 11
103
 21
-1.75
  0
LINE
  8
0
 10
103
 20
-1.75
 11
51.5
 21
-1.75
  0
LINE
  8
0
 10
51.5
 20
-1.75
 11
51.5
 21
-1.76306
  0
LINE
  8
0
 10
51.5
 20
-1.76306
 11
51.084
 21
-1.76306
  0
LINE
  8
0
 10
51.084
 20
-1.76306
 11
50.2586
 21
-1.86734
  0
LINE
  8
0
 10
50.2586
 20
-1.86734
 11
49.4528
 21
-2.07425
  0
LINE
  8
0
 10
49.4528
 20
-2.07425
 11
48.6792
 21
-2.38051
  0
LINE
  8
0
 10
48.6792
 20
-2.38051
 11
47.9501
 21
-2.78133
  0
LINE
  8
0
 10
47.9501
 20
-2.78133
 11
47.2771
 21
-3.27034
  0
LINE
  8
0
 10
47.2771
 20
-3.27034
 11
46.6706
 21
-3.83987
  0
LINE
  8
0
 10
46.6706
 20
-3.83987
 11
46.1403
 21
-4.48091
  0
LINE
  8
0
 10
46.1403
 20
-4.48091
 11
45.6945
 21
-5.18338
  0
LINE
  8
0
 10
45.6945
 20
-5.18338
 11
45.3402
 21
-5.93617
  0
LINE
  8
0
 10
45.3402
 20
-5.93617
 11
45.0831
 21
-6.72742
  0
LINE
  8
0
 10
45.0831
 20
-6.72742
 11
44.9272
 21
-7.54466
  0
LINE
  8
0
 10
44.9272
 20
-7.54466
 11
44.875
 21
-8.375
  0
LINE
  8
0
 10
44.875
 20
-8.375
 11
44.9272
 21
-9.20532
  0
LINE
  8
0
 10
44.9272
 20
-9.20532
 11
45.0831
 21
-10.0226
  0
LINE
  8
0
 10
45.0831
 20
-10.0226
 11
45.3402
 21
-10.8138
  0
LINE
  8
0
 10
45.3402
 20
-10.8138
 11
45.6945
 21
-11.5666
  0
LINE
  8
0
 10
45.6945
 20
-11.5666
 11
46.1403
 21
-12.2691
  0
LINE
  8
0
 10
46.1403
 20
-12.2691
 11
46.6706
 21
-12.9101
  0
LINE
  8
0
 10
46.6706
 20
-12.9101
 11
47.2771
 21
-13.4796
  0
LINE
  8
0
 10
47.2771
 20
-13.4796
 11
47.9501
 21
-13.9687
  0
LINE
  8
0
 10
47.9501
 20
-13.9687
 11
48.6792
 21
-14.3695
  0
LINE
  8
0
 10
48.6792
 20
-14.3695
 11
49.4528
 21
-14.6757
  0
LINE
  8
0
 10
49.4528
 20
-14.6757
 11
50.2586
 21
-14.8826
  0
LINE
  8
0
 10
50.2586
 20
-14.8826
 11
51.084
 21
-14.9869
  0
LINE
  8
0
 10
51.084
 20
-14.9869
 11
51.5
 21
-14.9869
  0
LINE
  8
0
 10
51.5
 20
-14.9869
 11
51.5
 21
-15
  0
LINE
  8
0
 10
51.5
 20
-15
 11
202.5
 21
-15
  0
LINE
  8
0
 10
202.5
 20
-15
 11
202.5
 21
10.3258
  0
LINE
  8
0
 10
33.25
 20
66.75
 11
33.25
 21
271.75
  0
LINE
  8
0
 10
33.25
 20
271.75
 11
129.25
 21
271.75
  0
LINE
  8
0
 10
129.25
 20
271.75
 11
129.25
 21
66.75
  0
LINE
  8
0
 10
129.25
 20
66.75
 11
33.25
 21
66.75
  0
ENDSEC
  0
SECTION
  2
OBJECTS
  0
DICTIONARY
  0
ENDSEC
  0
EOF
