  0
SECTION
  2
BLOCKS
  0
ENDSEC
  0
SECTION
  2
ENTITIES
  0
LINE
  8
0
 10
381.75
 20
-49.3333
 11
385.25
 21
-49.3333
  0
LINE
  8
0
 10
385.25
 20
-49.3333
 11
385.25
 21
-61.3333
  0
LINE
  8
0
 10
385.25
 20
-61.3333
 11
385.368
 21
-63.2133
  0
LINE
  8
0
 10
385.368
 20
-63.2133
 11
385.721
 21
-65.0637
  0
LINE
  8
0
 10
385.721
 20
-65.0637
 11
386.188
 21
-66.5
  0
LINE
  8
0
 10
386.188
 20
-66.5
 11
392.75
 21
-66.5
  0
LINE
  8
0
 10
392.75
 20
-66.5
 11
392.75
 21
-66.4852
  0
LINE
  8
0
 10
392.75
 20
-66.4852
 11
393.221
 21
-66.4852
  0
LINE
  8
0
 10
393.221
 20
-66.4852
 11
394.155
 21
-66.3672
  0
LINE
  8
0
 10
394.155
 20
-66.3672
 11
395.068
 21
-66.1329
  0
LINE
  8
0
 10
395.068
 20
-66.1329
 11
395.943
 21
-65.7862
  0
LINE
  8
0
 10
395.943
 20
-65.7862
 11
396.769
 21
-65.3325
  0
LINE
  8
0
 10
396.769
 20
-65.3325
 11
397.531
 21
-64.7788
  0
LINE
  8
0
 10
397.531
 20
-64.7788
 11
398.217
 21
-64.1341
  0
LINE
  8
0
 10
398.217
 20
-64.1341
 11
398.818
 21
-63.4084
  0
LINE
  8
0
 10
398.818
 20
-63.4084
 11
399.322
 21
-62.6131
  0
LINE
  8
0
 10
399.322
 20
-62.6131
 11
399.723
 21
-61.7609
  0
LINE
  8
0
 10
399.723
 20
-61.7609
 11
400.014
 21
-60.8652
  0
LINE
  8
0
 10
400.014
 20
-60.8652
 11
400.191
 21
-59.94
  0
LINE
  8
0
 10
400.191
 20
-59.94
 11
400.25
 21
-59
  0
LINE
  8
0
 10
400.25
 20
-59
 11
400.25
 21
618
  0
LINE
  8
0
 10
400.25
 20
618
 11
385.25
 21
618
  0
LINE
  8
0
 10
385.25
 20
618
 11
385.25
 21
-32.1667
  0
LINE
  8
0
 10
385.25
 20
-32.1667
 11
377.75
 21
-32.1667
  0
LINE
  8
0
 10
377.75
 20
-32.1667
 11
377.75
 21
-32.1815
  0
LINE
  8
0
 10
377.75
 20
-32.1815
 11
377.279
 21
-32.1815
  0
LINE
  8
0
 10
377.279
 20
-32.1815
 11
376.345
 21
-32.2995
  0
LINE
  8
0
 10
376.345
 20
-32.2995
 11
375.432
 21
-32.5337
  0
LINE
  8
0
 10
375.432
 20
-32.5337
 11
374.557
 21
-32.8805
  0
LINE
  8
0
 10
374.557
 20
-32.8805
 11
373.731
 21
-33.3342
  0
LINE
  8
0
 10
373.731
 20
-33.3342
 11
372.969
 21
-33.8878
  0
LINE
  8
0
 10
372.969
 20
-33.8878
 11
372.283
 21
-34.5326
  0
LINE
  8
0
 10
372.283
 20
-34.5326
 11
371.682
 21
-35.2583
  0
LINE
  8
0
 10
371.682
 20
-35.2583
 11
371.178
 21
-36.0535
  0
LINE
  8
0
 10
371.178
 20
-36.0535
 11
370.777
 21
-36.9057
  0
LINE
  8
0
 10
370.777
 20
-36.9057
 11
370.486
 21
-37.8015
  0
LINE
  8
0
 10
370.486
 20
-37.8015
 11
370.309
 21
-38.7267
  0
LINE
  8
0
 10
370.309
 20
-38.7267
 11
370.25
 21
-39.6667
  0
LINE
  8
0
 10
370.25
 20
-39.6667
 11
370.25
 21
-59
  0
LINE
  8
0
 10
370.25
 20
-59
 11
370.265
 21
-59
  0
LINE
  8
0
 10
370.265
 20
-59
 11
370.265
 21
-59.4709
  0
LINE
  8
0
 10
370.265
 20
-59.4709
 11
370.383
 21
-60.4053
  0
LINE
  8
0
 10
370.383
 20
-60.4053
 11
370.617
 21
-61.3176
  0
LINE
  8
0
 10
370.617
 20
-61.3176
 11
370.964
 21
-62.1933
  0
LINE
  8
0
 10
370.964
 20
-62.1933
 11
371.418
 21
-63.0187
  0
LINE
  8
0
 10
371.418
 20
-63.0187
 11
371.971
 21
-63.7807
  0
LINE
  8
0
 10
371.971
 20
-63.7807
 11
372.616
 21
-64.4673
  0
LINE
  8
0
 10
372.616
 20
-64.4673
 11
373.342
 21
-65.0676
  0
LINE
  8
0
 10
373.342
 20
-65.0676
 11
374.137
 21
-65.5723
  0
LINE
  8
0
 10
374.137
 20
-65.5723
 11
374.989
 21
-65.9733
  0
LINE
  8
0
 10
374.989
 20
-65.9733
 11
375.885
 21
-66.2644
  0
LINE
  8
0
 10
375.885
 20
-66.2644
 11
376.81
 21
-66.4409
  0
LINE
  8
0
 10
376.81
 20
-66.4409
 11
377.75
 21
-66.5
  0
LINE
  8
0
 10
377.75
 20
-66.5
 11
381.75
 21
-66.5
  0
LINE
  8
0
 10
381.75
 20
-66.5
 11
381.75
 21
-49.3333
  0
LINE
  8
0
 10
336.75
 20
-49.3333
 11
340.25
 21
-49.3333
  0
LINE
  8
0
 10
340.25
 20
-49.3333
 11
340.25
 21
-61.3333
  0
LINE
  8
0
 10
340.25
 20
-61.3333
 11
340.368
 21
-63.2133
  0
LINE
  8
0
 10
340.368
 20
-63.2133
 11
340.721
 21
-65.0637
  0
LINE
  8
0
 10
340.721
 20
-65.0637
 11
341.188
 21
-66.5
  0
LINE
  8
0
 10
341.188
 20
-66.5
 11
347.75
 21
-66.5
  0
LINE
  8
0
 10
347.75
 20
-66.5
 11
347.75
 21
-66.4852
  0
LINE
  8
0
 10
347.75
 20
-66.4852
 11
348.221
 21
-66.4852
  0
LINE
  8
0
 10
348.221
 20
-66.4852
 11
349.155
 21
-66.3672
  0
LINE
  8
0
 10
349.155
 20
-66.3672
 11
350.068
 21
-66.1329
  0
LINE
  8
0
 10
350.068
 20
-66.1329
 11
350.943
 21
-65.7862
  0
LINE
  8
0
 10
350.943
 20
-65.7862
 11
351.769
 21
-65.3325
  0
LINE
  8
0
 10
351.769
 20
-65.3325
 11
352.531
 21
-64.7788
  0
LINE
  8
0
 10
352.531
 20
-64.7788
 11
353.217
 21
-64.1341
  0
LINE
  8
0
 10
353.217
 20
-64.1341
 11
353.818
 21
-63.4084
  0
LINE
  8
0
 10
353.818
 20
-63.4084
 11
354.322
 21
-62.6131
  0
LINE
  8
0
 10
354.322
 20
-62.6131
 11
354.723
 21
-61.7609
  0
LINE
  8
0
 10
354.723
 20
-61.7609
 11
355.014
 21
-60.8652
  0
LINE
  8
0
 10
355.014
 20
-60.8652
 11
355.191
 21
-59.94
  0
LINE
  8
0
 10
355.191
 20
-59.94
 11
355.25
 21
-59
  0
LINE
  8
0
 10
355.25
 20
-59
 11
355.25
 21
412
  0
LINE
  8
0
 10
355.25
 20
412
 11
340.25
 21
412
  0
LINE
  8
0
 10
340.25
 20
412
 11
340.25
 21
-32.1667
  0
LINE
  8
0
 10
340.25
 20
-32.1667
 11
332.75
 21
-32.1667
  0
LINE
  8
0
 10
332.75
 20
-32.1667
 11
332.75
 21
-32.1815
  0
LINE
  8
0
 10
332.75
 20
-32.1815
 11
332.279
 21
-32.1815
  0
LINE
  8
0
 10
332.279
 20
-32.1815
 11
331.345
 21
-32.2995
  0
LINE
  8
0
 10
331.345
 20
-32.2995
 11
330.432
 21
-32.5337
  0
LINE
  8
0
 10
330.432
 20
-32.5337
 11
329.557
 21
-32.8805
  0
LINE
  8
0
 10
329.557
 20
-32.8805
 11
328.731
 21
-33.3342
  0
LINE
  8
0
 10
328.731
 20
-33.3342
 11
327.969
 21
-33.8878
  0
LINE
  8
0
 10
327.969
 20
-33.8878
 11
327.283
 21
-34.5326
  0
LINE
  8
0
 10
327.283
 20
-34.5326
 11
326.682
 21
-35.2583
  0
LINE
  8
0
 10
326.682
 20
-35.2583
 11
326.178
 21
-36.0535
  0
LINE
  8
0
 10
326.178
 20
-36.0535
 11
325.777
 21
-36.9057
  0
LINE
  8
0
 10
325.777
 20
-36.9057
 11
325.486
 21
-37.8015
  0
LINE
  8
0
 10
325.486
 20
-37.8015
 11
325.309
 21
-38.7267
  0
LINE
  8
0
 10
325.309
 20
-38.7267
 11
325.25
 21
-39.6667
  0
LINE
  8
0
 10
325.25
 20
-39.6667
 11
325.25
 21
-59
  0
LINE
  8
0
 10
325.25
 20
-59
 11
325.265
 21
-59
  0
LINE
  8
0
 10
325.265
 20
-59
 11
325.265
 21
-59.4709
  0
LINE
  8
0
 10
325.265
 20
-59.4709
 11
325.383
 21
-60.4053
  0
LINE
  8
0
 10
325.383
 20
-60.4053
 11
325.617
 21
-61.3176
  0
LINE
  8
0
 10
325.617
 20
-61.3176
 11
325.964
 21
-62.1933
  0
LINE
  8
0
 10
325.964
 20
-62.1933
 11
326.418
 21
-63.0187
  0
LINE
  8
0
 10
326.418
 20
-63.0187
 11
326.971
 21
-63.7807
  0
LINE
  8
0
 10
326.971
 20
-63.7807
 11
327.616
 21
-64.4673
  0
LINE
  8
0
 10
327.616
 20
-64.4673
 11
328.342
 21
-65.0676
  0
LINE
  8
0
 10
328.342
 20
-65.0676
 11
329.137
 21
-65.5723
  0
LINE
  8
0
 10
329.137
 20
-65.5723
 11
329.989
 21
-65.9733
  0
LINE
  8
0
 10
329.989
 20
-65.9733
 11
330.885
 21
-66.2644
  0
LINE
  8
0
 10
330.885
 20
-66.2644
 11
331.81
 21
-66.4409
  0
LINE
  8
0
 10
331.81
 20
-66.4409
 11
332.75
 21
-66.5
  0
LINE
  8
0
 10
332.75
 20
-66.5
 11
336.75
 21
-66.5
  0
LINE
  8
0
 10
336.75
 20
-66.5
 11
336.75
 21
-49.3333
  0
LINE
  8
0
 10
291.75
 20
-49.3333
 11
295.25
 21
-49.3333
  0
LINE
  8
0
 10
295.25
 20
-49.3333
 11
295.25
 21
-61.3333
  0
LINE
  8
0
 10
295.25
 20
-61.3333
 11
295.368
 21
-63.2133
  0
LINE
  8
0
 10
295.368
 20
-63.2133
 11
295.721
 21
-65.0637
  0
LINE
  8
0
 10
295.721
 20
-65.0637
 11
296.188
 21
-66.5
  0
LINE
  8
0
 10
296.188
 20
-66.5
 11
302.75
 21
-66.5
  0
LINE
  8
0
 10
302.75
 20
-66.5
 11
302.75
 21
-66.4852
  0
LINE
  8
0
 10
302.75
 20
-66.4852
 11
303.221
 21
-66.4852
  0
LINE
  8
0
 10
303.221
 20
-66.4852
 11
304.155
 21
-66.3672
  0
LINE
  8
0
 10
304.155
 20
-66.3672
 11
305.068
 21
-66.1329
  0
LINE
  8
0
 10
305.068
 20
-66.1329
 11
305.943
 21
-65.7862
  0
LINE
  8
0
 10
305.943
 20
-65.7862
 11
306.769
 21
-65.3325
  0
LINE
  8
0
 10
306.769
 20
-65.3325
 11
307.531
 21
-64.7788
  0
LINE
  8
0
 10
307.531
 20
-64.7788
 11
308.217
 21
-64.1341
  0
LINE
  8
0
 10
308.217
 20
-64.1341
 11
308.818
 21
-63.4084
  0
LINE
  8
0
 10
308.818
 20
-63.4084
 11
309.322
 21
-62.6131
  0
LINE
  8
0
 10
309.322
 20
-62.6131
 11
309.723
 21
-61.7609
  0
LINE
  8
0
 10
309.723
 20
-61.7609
 11
310.014
 21
-60.8652
  0
LINE
  8
0
 10
310.014
 20
-60.8652
 11
310.191
 21
-59.94
  0
LINE
  8
0
 10
310.191
 20
-59.94
 11
310.25
 21
-59
  0
LINE
  8
0
 10
310.25
 20
-59
 11
310.25
 21
206
  0
LINE
  8
0
 10
310.25
 20
206
 11
295.25
 21
206
  0
LINE
  8
0
 10
295.25
 20
206
 11
295.25
 21
-32.1667
  0
LINE
  8
0
 10
295.25
 20
-32.1667
 11
287.75
 21
-32.1667
  0
LINE
  8
0
 10
287.75
 20
-32.1667
 11
287.75
 21
-32.1815
  0
LINE
  8
0
 10
287.75
 20
-32.1815
 11
287.279
 21
-32.1815
  0
LINE
  8
0
 10
287.279
 20
-32.1815
 11
286.345
 21
-32.2995
  0
LINE
  8
0
 10
286.345
 20
-32.2995
 11
285.432
 21
-32.5337
  0
LINE
  8
0
 10
285.432
 20
-32.5337
 11
284.557
 21
-32.8805
  0
LINE
  8
0
 10
284.557
 20
-32.8805
 11
283.731
 21
-33.3342
  0
LINE
  8
0
 10
283.731
 20
-33.3342
 11
282.969
 21
-33.8878
  0
LINE
  8
0
 10
282.969
 20
-33.8878
 11
282.283
 21
-34.5326
  0
LINE
  8
0
 10
282.283
 20
-34.5326
 11
281.682
 21
-35.2583
  0
LINE
  8
0
 10
281.682
 20
-35.2583
 11
281.178
 21
-36.0535
  0
LINE
  8
0
 10
281.178
 20
-36.0535
 11
280.777
 21
-36.9057
  0
LINE
  8
0
 10
280.777
 20
-36.9057
 11
280.486
 21
-37.8015
  0
LINE
  8
0
 10
280.486
 20
-37.8015
 11
280.309
 21
-38.7267
  0
LINE
  8
0
 10
280.309
 20
-38.7267
 11
280.25
 21
-39.6667
  0
LINE
  8
0
 10
280.25
 20
-39.6667
 11
280.25
 21
-59
  0
LINE
  8
0
 10
280.25
 20
-59
 11
280.265
 21
-59
  0
LINE
  8
0
 10
280.265
 20
-59
 11
280.265
 21
-59.4709
  0
LINE
  8
0
 10
280.265
 20
-59.4709
 11
280.383
 21
-60.4053
  0
LINE
  8
0
 10
280.383
 20
-60.4053
 11
280.617
 21
-61.3176
  0
LINE
  8
0
 10
280.617
 20
-61.3176
 11
280.964
 21
-62.1933
  0
LINE
  8
0
 10
280.964
 20
-62.1933
 11
281.418
 21
-63.0187
  0
LINE
  8
0
 10
281.418
 20
-63.0187
 11
281.971
 21
-63.7807
  0
LINE
  8
0
 10
281.971
 20
-63.7807
 11
282.616
 21
-64.4673
  0
LINE
  8
0
 10
282.616
 20
-64.4673
 11
283.342
 21
-65.0676
  0
LINE
  8
0
 10
283.342
 20
-65.0676
 11
284.137
 21
-65.5723
  0
LINE
  8
0
 10
284.137
 20
-65.5723
 11
284.989
 21
-65.9733
  0
LINE
  8
0
 10
284.989
 20
-65.9733
 11
285.885
 21
-66.2644
  0
LINE
  8
0
 10
285.885
 20
-66.2644
 11
286.81
 21
-66.4409
  0
LINE
  8
0
 10
286.81
 20
-66.4409
 11
287.75
 21
-66.5
  0
LINE
  8
0
 10
287.75
 20
-66.5
 11
291.75
 21
-66.5
  0
LINE
  8
0
 10
291.75
 20
-66.5
 11
291.75
 21
-49.3333
  0
ENDSEC
  0
SECTION
  2
OBJECTS
  0
DICTIONARY
  0
ENDSEC
  0
EOF
