  0
SECTION
  2
BLOCKS
  0
ENDSEC
  0
SECTION
  2
ENTITIES
  0
LINE
  8
0
 10
5.75
 20
-52.4803
 11
6.3779
 21
-52.4803
  0
LINE
  8
0
 10
6.3779
 20
-52.4803
 11
7.62381
 21
-52.3229
  0
LINE
  8
0
 10
7.62381
 20
-52.3229
 11
8.84016
 21
-52.0106
  0
LINE
  8
0
 10
8.84016
 20
-52.0106
 11
10.0078
 21
-51.5483
  0
LINE
  8
0
 10
10.0078
 20
-51.5483
 11
11.1083
 21
-50.9433
  0
LINE
  8
0
 10
11.1083
 20
-50.9433
 11
12.1242
 21
-50.2051
  0
LINE
  8
0
 10
12.1242
 20
-50.2051
 11
13.0397
 21
-49.3455
  0
LINE
  8
0
 10
13.0397
 20
-49.3455
 11
13.8402
 21
-48.3779
  0
LINE
  8
0
 10
13.8402
 20
-48.3779
 11
14.5131
 21
-47.3175
  0
LINE
  8
0
 10
14.5131
 20
-47.3175
 11
15.0478
 21
-46.1812
  0
LINE
  8
0
 10
15.0478
 20
-46.1812
 11
15.4358
 21
-44.9869
  0
LINE
  8
0
 10
15.4358
 20
-44.9869
 11
15.6711
 21
-43.7533
  0
LINE
  8
0
 10
15.6711
 20
-43.7533
 11
15.75
 21
-42.5
  0
LINE
  8
0
 10
15.75
 20
-42.5
 11
15.75
 21
42.5
  0
LINE
  8
0
 10
15.75
 20
42.5
 11
15.7303
 21
42.5
  0
LINE
  8
0
 10
15.7303
 20
42.5
 11
15.7303
 21
43.1279
  0
LINE
  8
0
 10
15.7303
 20
43.1279
 11
15.5729
 21
44.3738
  0
LINE
  8
0
 10
15.5729
 20
44.3738
 11
15.2606
 21
45.5902
  0
LINE
  8
0
 10
15.2606
 20
45.5902
 11
14.7983
 21
46.7578
  0
LINE
  8
0
 10
14.7983
 20
46.7578
 11
14.1933
 21
47.8583
  0
LINE
  8
0
 10
14.1933
 20
47.8583
 11
13.4551
 21
48.8742
  0
LINE
  8
0
 10
13.4551
 20
48.8742
 11
12.5955
 21
49.7897
  0
LINE
  8
0
 10
12.5955
 20
49.7897
 11
11.6278
 21
50.5902
  0
LINE
  8
0
 10
11.6278
 20
50.5902
 11
10.5675
 21
51.2631
  0
LINE
  8
0
 10
10.5675
 20
51.2631
 11
9.43124
 21
51.7978
  0
LINE
  8
0
 10
9.43124
 20
51.7978
 11
8.23689
 21
52.1858
  0
LINE
  8
0
 10
8.23689
 20
52.1858
 11
7.00333
 21
52.4211
  0
LINE
  8
0
 10
7.00333
 20
52.4211
 11
5.75
 21
52.5
  0
LINE
  8
0
 10
5.75
 20
52.5
 11
1.75
 21
52.5
  0
LINE
  8
0
 10
1.75
 20
52.5
 11
1.75
 21
47.5
  0
LINE
  8
0
 10
1.75
 20
47.5
 11
-1.75
 21
47.5
  0
LINE
  8
0
 10
-1.75
 20
47.5
 11
-1.75
 21
52.4803
  0
LINE
  8
0
 10
-1.75
 20
52.4803
 11
-2.3779
 21
52.4803
  0
LINE
  8
0
 10
-2.3779
 20
52.4803
 11
-3.62381
 21
52.3229
  0
LINE
  8
0
 10
-3.62381
 20
52.3229
 11
-4.84016
 21
52.0106
  0
LINE
  8
0
 10
-4.84016
 20
52.0106
 11
-6.00778
 21
51.5483
  0
LINE
  8
0
 10
-6.00778
 20
51.5483
 11
-7.10826
 21
50.9433
  0
LINE
  8
0
 10
-7.10826
 20
50.9433
 11
-8.12424
 21
50.2051
  0
LINE
  8
0
 10
-8.12424
 20
50.2051
 11
-9.03967
 21
49.3455
  0
LINE
  8
0
 10
-9.03967
 20
49.3455
 11
-9.84016
 21
48.3779
  0
LINE
  8
0
 10
-9.84016
 20
48.3779
 11
-10.5131
 21
47.3175
  0
LINE
  8
0
 10
-10.5131
 20
47.3175
 11
-11.0478
 21
46.1812
  0
LINE
  8
0
 10
-11.0478
 20
46.1812
 11
-11.4358
 21
44.9869
  0
LINE
  8
0
 10
-11.4358
 20
44.9869
 11
-11.6711
 21
43.7533
  0
LINE
  8
0
 10
-11.6711
 20
43.7533
 11
-11.75
 21
42.5
  0
LINE
  8
0
 10
-11.75
 20
42.5
 11
5.75
 21
42.5
  0
LINE
  8
0
 10
5.75
 20
42.5
 11
5.75
 21
-42.5
  0
LINE
  8
0
 10
5.75
 20
-42.5
 11
-1.75
 21
-42.5
  0
LINE
  8
0
 10
-1.75
 20
-42.5
 11
-1.75
 21
-37.5
  0
LINE
  8
0
 10
-1.75
 20
-37.5
 11
-11.75
 21
-37.5
  0
LINE
  8
0
 10
-11.75
 20
-37.5
 11
-11.75
 21
-42.5
  0
LINE
  8
0
 10
-11.75
 20
-42.5
 11
-11.7303
 21
-42.5
  0
LINE
  8
0
 10
-11.7303
 20
-42.5
 11
-11.7303
 21
-43.1279
  0
LINE
  8
0
 10
-11.7303
 20
-43.1279
 11
-11.5729
 21
-44.3738
  0
LINE
  8
0
 10
-11.5729
 20
-44.3738
 11
-11.2606
 21
-45.5902
  0
LINE
  8
0
 10
-11.2606
 20
-45.5902
 11
-10.7983
 21
-46.7578
  0
LINE
  8
0
 10
-10.7983
 20
-46.7578
 11
-10.1933
 21
-47.8583
  0
LINE
  8
0
 10
-10.1933
 20
-47.8583
 11
-9.45512
 21
-48.8742
  0
LINE
  8
0
 10
-9.45512
 20
-48.8742
 11
-8.59546
 21
-49.7897
  0
LINE
  8
0
 10
-8.59546
 20
-49.7897
 11
-7.62784
 21
-50.5902
  0
LINE
  8
0
 10
-7.62784
 20
-50.5902
 11
-6.56754
 21
-51.2631
  0
LINE
  8
0
 10
-6.56754
 20
-51.2631
 11
-5.43124
 21
-51.7978
  0
LINE
  8
0
 10
-5.43124
 20
-51.7978
 11
-4.23689
 21
-52.1858
  0
LINE
  8
0
 10
-4.23689
 20
-52.1858
 11
-3.00333
 21
-52.4211
  0
LINE
  8
0
 10
-3.00333
 20
-52.4211
 11
-1.75
 21
-52.5
  0
LINE
  8
0
 10
-1.75
 20
-52.5
 11
5.75
 21
-52.5
  0
LINE
  8
0
 10
5.75
 20
-52.5
 11
5.75
 21
-52.4803
  0
ENDSEC
  0
SECTION
  2
OBJECTS
  0
DICTIONARY
  0
ENDSEC
  0
EOF
