  0
SECTION
  2
BLOCKS
  0
ENDSEC
  0
SECTION
  2
ENTITIES
  0
LINE
  8
0
 10
91.6875
 20
-202.5
 11
128.062
 21
-202.5
  0
LINE
  8
0
 10
128.062
 20
-202.5
 11
128.062
 21
-206
  0
LINE
  8
0
 10
128.062
 20
-206
 11
164.438
 21
-206
  0
LINE
  8
0
 10
164.438
 20
-206
 11
164.438
 21
-202.5
  0
LINE
  8
0
 10
164.438
 20
-202.5
 11
200.812
 21
-202.5
  0
LINE
  8
0
 10
200.812
 20
-202.5
 11
200.812
 21
-206
  0
LINE
  8
0
 10
200.812
 20
-206
 11
237.188
 21
-206
  0
LINE
  8
0
 10
237.188
 20
-206
 11
237.188
 21
-202.5
  0
LINE
  8
0
 10
237.188
 20
-202.5
 11
273.562
 21
-202.5
  0
LINE
  8
0
 10
273.562
 20
-202.5
 11
273.562
 21
-206
  0
LINE
  8
0
 10
273.562
 20
-206
 11
291.75
 21
-206
  0
LINE
  8
0
 10
291.75
 20
-206
 11
291.75
 21
-103
  0
LINE
  8
0
 10
291.75
 20
-103
 11
295.25
 21
-103
  0
LINE
  8
0
 10
295.25
 20
-103
 11
295.25
 21
-154.5
  0
LINE
  8
0
 10
295.25
 20
-154.5
 11
295.263
 21
-154.5
  0
LINE
  8
0
 10
295.263
 20
-154.5
 11
295.263
 21
-154.916
  0
LINE
  8
0
 10
295.263
 20
-154.916
 11
295.367
 21
-155.741
  0
LINE
  8
0
 10
295.367
 20
-155.741
 11
295.574
 21
-156.547
  0
LINE
  8
0
 10
295.574
 20
-156.547
 11
295.881
 21
-157.321
  0
LINE
  8
0
 10
295.881
 20
-157.321
 11
296.281
 21
-158.05
  0
LINE
  8
0
 10
296.281
 20
-158.05
 11
296.77
 21
-158.723
  0
LINE
  8
0
 10
296.77
 20
-158.723
 11
297.34
 21
-159.329
  0
LINE
  8
0
 10
297.34
 20
-159.329
 11
297.981
 21
-159.86
  0
LINE
  8
0
 10
297.981
 20
-159.86
 11
298.683
 21
-160.306
  0
LINE
  8
0
 10
298.683
 20
-160.306
 11
299.436
 21
-160.66
  0
LINE
  8
0
 10
299.436
 20
-160.66
 11
300.227
 21
-160.917
  0
LINE
  8
0
 10
300.227
 20
-160.917
 11
301.045
 21
-161.073
  0
LINE
  8
0
 10
301.045
 20
-161.073
 11
301.875
 21
-161.125
  0
LINE
  8
0
 10
301.875
 20
-161.125
 11
302.705
 21
-161.073
  0
LINE
  8
0
 10
302.705
 20
-161.073
 11
303.523
 21
-160.917
  0
LINE
  8
0
 10
303.523
 20
-160.917
 11
304.314
 21
-160.66
  0
LINE
  8
0
 10
304.314
 20
-160.66
 11
305.067
 21
-160.306
  0
LINE
  8
0
 10
305.067
 20
-160.306
 11
305.769
 21
-159.86
  0
LINE
  8
0
 10
305.769
 20
-159.86
 11
306.41
 21
-159.329
  0
LINE
  8
0
 10
306.41
 20
-159.329
 11
306.98
 21
-158.723
  0
LINE
  8
0
 10
306.98
 20
-158.723
 11
307.469
 21
-158.05
  0
LINE
  8
0
 10
307.469
 20
-158.05
 11
307.869
 21
-157.321
  0
LINE
  8
0
 10
307.869
 20
-157.321
 11
308.176
 21
-156.547
  0
LINE
  8
0
 10
308.176
 20
-156.547
 11
308.383
 21
-155.741
  0
LINE
  8
0
 10
308.383
 20
-155.741
 11
308.487
 21
-154.916
  0
LINE
  8
0
 10
308.487
 20
-154.916
 11
308.487
 21
-154.5
  0
LINE
  8
0
 10
308.487
 20
-154.5
 11
308.5
 21
-154.5
  0
LINE
  8
0
 10
308.5
 20
-154.5
 11
308.5
 21
0
  0
LINE
  8
0
 10
308.5
 20
0
 11
-15
 21
0
  0
LINE
  8
0
 10
-15
 20
0
 11
-15
 21
-154.5
  0
LINE
  8
0
 10
-15
 20
-154.5
 11
-14.9869
 21
-154.5
  0
LINE
  8
0
 10
-14.9869
 20
-154.5
 11
-14.9869
 21
-154.916
  0
LINE
  8
0
 10
-14.9869
 20
-154.916
 11
-14.8826
 21
-155.741
  0
LINE
  8
0
 10
-14.8826
 20
-155.741
 11
-14.6757
 21
-156.547
  0
LINE
  8
0
 10
-14.6757
 20
-156.547
 11
-14.3695
 21
-157.321
  0
LINE
  8
0
 10
-14.3695
 20
-157.321
 11
-13.9687
 21
-158.05
  0
LINE
  8
0
 10
-13.9687
 20
-158.05
 11
-13.4796
 21
-158.723
  0
LINE
  8
0
 10
-13.4796
 20
-158.723
 11
-12.9101
 21
-159.329
  0
LINE
  8
0
 10
-12.9101
 20
-159.329
 11
-12.2691
 21
-159.86
  0
LINE
  8
0
 10
-12.2691
 20
-159.86
 11
-11.5666
 21
-160.306
  0
LINE
  8
0
 10
-11.5666
 20
-160.306
 11
-10.8138
 21
-160.66
  0
LINE
  8
0
 10
-10.8138
 20
-160.66
 11
-10.0226
 21
-160.917
  0
LINE
  8
0
 10
-10.0226
 20
-160.917
 11
-9.20532
 21
-161.073
  0
LINE
  8
0
 10
-9.20532
 20
-161.073
 11
-8.375
 21
-161.125
  0
LINE
  8
0
 10
-8.375
 20
-161.125
 11
-7.54466
 21
-161.073
  0
LINE
  8
0
 10
-7.54466
 20
-161.073
 11
-6.72742
 21
-160.917
  0
LINE
  8
0
 10
-6.72742
 20
-160.917
 11
-5.93617
 21
-160.66
  0
LINE
  8
0
 10
-5.93617
 20
-160.66
 11
-5.18338
 21
-160.306
  0
LINE
  8
0
 10
-5.18338
 20
-160.306
 11
-4.48091
 21
-159.86
  0
LINE
  8
0
 10
-4.48091
 20
-159.86
 11
-3.83987
 21
-159.329
  0
LINE
  8
0
 10
-3.83987
 20
-159.329
 11
-3.27034
 21
-158.723
  0
LINE
  8
0
 10
-3.27034
 20
-158.723
 11
-2.78133
 21
-158.05
  0
LINE
  8
0
 10
-2.78133
 20
-158.05
 11
-2.38051
 21
-157.321
  0
LINE
  8
0
 10
-2.38051
 20
-157.321
 11
-2.07425
 21
-156.547
  0
LINE
  8
0
 10
-2.07425
 20
-156.547
 11
-1.86734
 21
-155.741
  0
LINE
  8
0
 10
-1.86734
 20
-155.741
 11
-1.76306
 21
-154.916
  0
LINE
  8
0
 10
-1.76306
 20
-154.916
 11
-1.76306
 21
-154.5
  0
LINE
  8
0
 10
-1.76306
 20
-154.5
 11
-1.75
 21
-154.5
  0
LINE
  8
0
 10
-1.75
 20
-154.5
 11
-1.75
 21
-103
  0
LINE
  8
0
 10
-1.75
 20
-103
 11
1.75
 21
-103
  0
LINE
  8
0
 10
1.75
 20
-103
 11
1.75
 21
-202.5
  0
LINE
  8
0
 10
1.75
 20
-202.5
 11
71.75
 21
-202.5
  0
LINE
  8
0
 10
71.75
 20
-202.5
 11
71.75
 21
-103
  0
LINE
  8
0
 10
71.75
 20
-103
 11
75.25
 21
-103
  0
LINE
  8
0
 10
75.25
 20
-103
 11
75.25
 21
-206
  0
LINE
  8
0
 10
75.25
 20
-206
 11
91.6875
 21
-206
  0
LINE
  8
0
 10
91.6875
 20
-206
 11
91.6875
 21
-202.5
  0
ENDSEC
  0
SECTION
  2
OBJECTS
  0
DICTIONARY
  0
ENDSEC
  0
EOF
