  0
SECTION
  2
BLOCKS
  0
ENDSEC
  0
SECTION
  2
ENTITIES
  0
LINE
  8
0
 10
23.3333
 20
348
 11
0
 21
348
  0
LINE
  8
0
 10
0
 20
348
 11
0
 21
0
  0
LINE
  8
0
 10
0
 20
0
 11
23.3333
 21
0
  0
LINE
  8
0
 10
23.3333
 20
0
 11
23.3333
 21
348
  0
LINE
  8
0
 10
143.5
 20
348
 11
73.5
 21
348
  0
LINE
  8
0
 10
73.5
 20
348
 11
73.5
 21
0
  0
LINE
  8
0
 10
73.5
 20
0
 11
143.5
 21
0
  0
LINE
  8
0
 10
143.5
 20
0
 11
143.5
 21
348
  0
LINE
  8
0
 10
107.715
 20
304.025
 11
106.158
 21
304.221
  0
LINE
  8
0
 10
106.158
 20
304.221
 11
104.637
 21
304.612
  0
LINE
  8
0
 10
104.637
 20
304.612
 11
103.178
 21
305.19
  0
LINE
  8
0
 10
103.178
 20
305.19
 11
101.802
 21
305.946
  0
LINE
  8
0
 10
101.802
 20
305.946
 11
100.532
 21
306.869
  0
LINE
  8
0
 10
100.532
 20
306.869
 11
99.3879
 21
307.943
  0
LINE
  8
0
 10
99.3879
 20
307.943
 11
98.3873
 21
309.153
  0
LINE
  8
0
 10
98.3873
 20
309.153
 11
97.5462
 21
310.478
  0
LINE
  8
0
 10
97.5462
 20
310.478
 11
96.8778
 21
311.898
  0
LINE
  8
0
 10
96.8778
 20
311.898
 11
96.3927
 21
313.391
  0
LINE
  8
0
 10
96.3927
 20
313.391
 11
96.0986
 21
314.933
  0
LINE
  8
0
 10
96.0986
 20
314.933
 11
96
 21
316.5
  0
LINE
  8
0
 10
96
 20
316.5
 11
96.0986
 21
318.067
  0
LINE
  8
0
 10
96.0986
 20
318.067
 11
96.3927
 21
319.609
  0
LINE
  8
0
 10
96.3927
 20
319.609
 11
96.8778
 21
321.102
  0
LINE
  8
0
 10
96.8778
 20
321.102
 11
97.5462
 21
322.522
  0
LINE
  8
0
 10
97.5462
 20
322.522
 11
98.3873
 21
323.847
  0
LINE
  8
0
 10
98.3873
 20
323.847
 11
99.3879
 21
325.057
  0
LINE
  8
0
 10
99.3879
 20
325.057
 11
100.532
 21
326.131
  0
LINE
  8
0
 10
100.532
 20
326.131
 11
101.802
 21
327.054
  0
LINE
  8
0
 10
101.802
 20
327.054
 11
103.178
 21
327.81
  0
LINE
  8
0
 10
103.178
 20
327.81
 11
104.637
 21
328.388
  0
LINE
  8
0
 10
104.637
 20
328.388
 11
106.158
 21
328.779
  0
LINE
  8
0
 10
106.158
 20
328.779
 11
107.715
 21
328.975
  0
LINE
  8
0
 10
107.715
 20
328.975
 11
109.285
 21
328.975
  0
LINE
  8
0
 10
109.285
 20
328.975
 11
110.842
 21
328.779
  0
LINE
  8
0
 10
110.842
 20
328.779
 11
112.363
 21
328.388
  0
LINE
  8
0
 10
112.363
 20
328.388
 11
113.822
 21
327.81
  0
LINE
  8
0
 10
113.822
 20
327.81
 11
115.198
 21
327.054
  0
LINE
  8
0
 10
115.198
 20
327.054
 11
116.468
 21
326.131
  0
LINE
  8
0
 10
116.468
 20
326.131
 11
117.612
 21
325.057
  0
LINE
  8
0
 10
117.612
 20
325.057
 11
118.613
 21
323.847
  0
LINE
  8
0
 10
118.613
 20
323.847
 11
119.454
 21
322.522
  0
LINE
  8
0
 10
119.454
 20
322.522
 11
120.122
 21
321.102
  0
LINE
  8
0
 10
120.122
 20
321.102
 11
120.607
 21
319.609
  0
LINE
  8
0
 10
120.607
 20
319.609
 11
120.901
 21
318.067
  0
LINE
  8
0
 10
120.901
 20
318.067
 11
121
 21
316.5
  0
LINE
  8
0
 10
121
 20
316.5
 11
120.901
 21
314.933
  0
LINE
  8
0
 10
120.901
 20
314.933
 11
120.607
 21
313.391
  0
LINE
  8
0
 10
120.607
 20
313.391
 11
120.122
 21
311.898
  0
LINE
  8
0
 10
120.122
 20
311.898
 11
119.454
 21
310.478
  0
LINE
  8
0
 10
119.454
 20
310.478
 11
118.613
 21
309.153
  0
LINE
  8
0
 10
118.613
 20
309.153
 11
117.612
 21
307.943
  0
LINE
  8
0
 10
117.612
 20
307.943
 11
116.468
 21
306.869
  0
LINE
  8
0
 10
116.468
 20
306.869
 11
115.198
 21
305.946
  0
LINE
  8
0
 10
115.198
 20
305.946
 11
113.822
 21
305.19
  0
LINE
  8
0
 10
113.822
 20
305.19
 11
112.363
 21
304.612
  0
LINE
  8
0
 10
112.363
 20
304.612
 11
110.842
 21
304.221
  0
LINE
  8
0
 10
110.842
 20
304.221
 11
109.285
 21
304.025
  0
LINE
  8
0
 10
109.285
 20
304.025
 11
107.715
 21
304.025
  0
LINE
  8
0
 10
70
 20
328
 11
46.6667
 21
328
  0
LINE
  8
0
 10
46.6667
 20
328
 11
46.6667
 21
0
  0
LINE
  8
0
 10
46.6667
 20
0
 11
70
 21
0
  0
LINE
  8
0
 10
70
 20
0
 11
70
 21
328
  0
ENDSEC
  0
SECTION
  2
OBJECTS
  0
DICTIONARY
  0
ENDSEC
  0
EOF
