  0
SECTION
  2
BLOCKS
  0
ENDSEC
  0
SECTION
  2
ENTITIES
  0
LINE
  8
0
 10
73.5
 20
366.5
 11
1.75
 21
366.5
  0
LINE
  8
0
 10
1.75
 20
366.5
 11
1.75
 21
328
  0
LINE
  8
0
 10
1.75
 20
328
 11
-7.25
 21
328
  0
LINE
  8
0
 10
-7.25
 20
328
 11
-7.25
 21
284.5
  0
LINE
  8
0
 10
-7.25
 20
284.5
 11
1.75
 21
284.5
  0
LINE
  8
0
 10
1.75
 20
284.5
 11
1.75
 21
241
  0
LINE
  8
0
 10
1.75
 20
241
 11
-7.25
 21
241
  0
LINE
  8
0
 10
-7.25
 20
241
 11
-7.25
 21
197.5
  0
LINE
  8
0
 10
-7.25
 20
197.5
 11
1.75
 21
197.5
  0
LINE
  8
0
 10
1.75
 20
197.5
 11
1.75
 21
154
  0
LINE
  8
0
 10
1.75
 20
154
 11
-7.25
 21
154
  0
LINE
  8
0
 10
-7.25
 20
154
 11
-7.25
 21
110.5
  0
LINE
  8
0
 10
-7.25
 20
110.5
 11
1.75
 21
110.5
  0
LINE
  8
0
 10
1.75
 20
110.5
 11
1.75
 21
67
  0
LINE
  8
0
 10
1.75
 20
67
 11
-7.25
 21
67
  0
LINE
  8
0
 10
-7.25
 20
67
 11
-7.25
 21
23.5
  0
LINE
  8
0
 10
-7.25
 20
23.5
 11
1.75
 21
23.5
  0
LINE
  8
0
 10
1.75
 20
23.5
 11
1.75
 21
-15
  0
LINE
  8
0
 10
1.75
 20
-15
 11
73.5
 21
-15
  0
LINE
  8
0
 10
73.5
 20
-15
 11
73.5
 21
366.5
  0
LINE
  8
0
 10
129.062
 20
1.75
 11
165.438
 21
1.75
  0
LINE
  8
0
 10
165.438
 20
1.75
 11
165.438
 21
-5.5
  0
LINE
  8
0
 10
165.438
 20
-5.5
 11
201.812
 21
-5.5
  0
LINE
  8
0
 10
201.812
 20
-5.5
 11
201.812
 21
1.75
  0
LINE
  8
0
 10
201.812
 20
1.75
 11
238.188
 21
1.75
  0
LINE
  8
0
 10
238.188
 20
1.75
 11
238.188
 21
-5.5
  0
LINE
  8
0
 10
238.188
 20
-5.5
 11
274.562
 21
-5.5
  0
LINE
  8
0
 10
274.562
 20
-5.5
 11
274.562
 21
1.75
  0
LINE
  8
0
 10
274.562
 20
1.75
 11
292.75
 21
1.75
  0
LINE
  8
0
 10
292.75
 20
1.75
 11
292.75
 21
23.5
  0
LINE
  8
0
 10
292.75
 20
23.5
 11
301.75
 21
23.5
  0
LINE
  8
0
 10
301.75
 20
23.5
 11
301.75
 21
67
  0
LINE
  8
0
 10
301.75
 20
67
 11
292.75
 21
67
  0
LINE
  8
0
 10
292.75
 20
67
 11
292.75
 21
110.5
  0
LINE
  8
0
 10
292.75
 20
110.5
 11
301.75
 21
110.5
  0
LINE
  8
0
 10
301.75
 20
110.5
 11
301.75
 21
154
  0
LINE
  8
0
 10
301.75
 20
154
 11
292.75
 21
154
  0
LINE
  8
0
 10
292.75
 20
154
 11
292.75
 21
197.5
  0
LINE
  8
0
 10
292.75
 20
197.5
 11
301.75
 21
197.5
  0
LINE
  8
0
 10
301.75
 20
197.5
 11
301.75
 21
241
  0
LINE
  8
0
 10
301.75
 20
241
 11
292.75
 21
241
  0
LINE
  8
0
 10
292.75
 20
241
 11
292.75
 21
284.5
  0
LINE
  8
0
 10
292.75
 20
284.5
 11
301.75
 21
284.5
  0
LINE
  8
0
 10
301.75
 20
284.5
 11
301.75
 21
328
  0
LINE
  8
0
 10
301.75
 20
328
 11
292.75
 21
328
  0
LINE
  8
0
 10
292.75
 20
328
 11
292.75
 21
349.75
  0
LINE
  8
0
 10
292.75
 20
349.75
 11
274.562
 21
349.75
  0
LINE
  8
0
 10
274.562
 20
349.75
 11
274.562
 21
357
  0
LINE
  8
0
 10
274.562
 20
357
 11
238.188
 21
357
  0
LINE
  8
0
 10
238.188
 20
357
 11
238.188
 21
349.75
  0
LINE
  8
0
 10
238.188
 20
349.75
 11
201.812
 21
349.75
  0
LINE
  8
0
 10
201.812
 20
349.75
 11
201.812
 21
357
  0
LINE
  8
0
 10
201.812
 20
357
 11
165.438
 21
357
  0
LINE
  8
0
 10
165.438
 20
357
 11
165.438
 21
349.75
  0
LINE
  8
0
 10
165.438
 20
349.75
 11
129.062
 21
349.75
  0
LINE
  8
0
 10
129.062
 20
349.75
 11
129.062
 21
357
  0
LINE
  8
0
 10
129.062
 20
357
 11
92.6875
 21
357
  0
LINE
  8
0
 10
92.6875
 20
357
 11
92.6875
 21
349.75
  0
LINE
  8
0
 10
92.6875
 20
349.75
 11
74.5
 21
349.75
  0
LINE
  8
0
 10
74.5
 20
349.75
 11
74.5
 21
1.75
  0
LINE
  8
0
 10
74.5
 20
1.75
 11
92.6875
 21
1.75
  0
LINE
  8
0
 10
92.6875
 20
1.75
 11
92.6875
 21
-5.5
  0
LINE
  8
0
 10
92.6875
 20
-5.5
 11
129.062
 21
-5.5
  0
LINE
  8
0
 10
129.062
 20
-5.5
 11
129.062
 21
1.75
  0
ENDSEC
  0
SECTION
  2
OBJECTS
  0
DICTIONARY
  0
ENDSEC
  0
EOF
