solid OpenSCAD_Model
  facet normal -1 0 0
    outer loop
      vertex -18 -10 0
      vertex -18 -10 7
      vertex -18 10 0
    endloop
  endfacet
  facet normal -1 0 0
    outer loop
      vertex -18 10 0
      vertex -18 -10 7
      vertex -18 10 7
    endloop
  endfacet
  facet normal 0 0 -1
    outer loop
      vertex -18 -10 0
      vertex -18 10 0
      vertex -17.9842 10 0
    endloop
  endfacet
  facet normal 0 0 -1
    outer loop
      vertex -17.9842 10 0
      vertex -17.9842 10.5023 0
      vertex -17.8583 11.4991 0
    endloop
  endfacet
  facet normal 0 0 -1
    outer loop
      vertex -17.9842 10 0
      vertex -17.8583 11.4991 0
      vertex -18 -10 0
    endloop
  endfacet
  facet normal 0 0 -1
    outer loop
      vertex -18 -10 0
      vertex -17.8583 11.4991 0
      vertex -17.6085 12.4721 0
    endloop
  endfacet
  facet normal 0 0 -1
    outer loop
      vertex -18 -10 0
      vertex -17.6085 12.4721 0
      vertex -17.2386 13.4062 0
    endloop
  endfacet
  facet normal 0 0 -1
    outer loop
      vertex -18 -10 0
      vertex -17.2386 13.4062 0
      vertex -16.7546 14.2866 0
    endloop
  endfacet
  facet normal 0 0 -1
    outer loop
      vertex -18 -10 0
      vertex -16.7546 14.2866 0
      vertex -16.1641 15.0994 0
    endloop
  endfacet
  facet normal 0 0 -1
    outer loop
      vertex -18 -10 0
      vertex -16.1641 15.0994 0
      vertex -15.4764 15.8317 0
    endloop
  endfacet
  facet normal 0 0 -1
    outer loop
      vertex -18 -10 0
      vertex -15.4764 15.8317 0
      vertex -14.7023 16.4721 0
    endloop
  endfacet
  facet normal 0 0 -1
    outer loop
      vertex -18 -10 0
      vertex -14.7023 16.4721 0
      vertex -13.854 17.0105 0
    endloop
  endfacet
  facet normal 0 0 -1
    outer loop
      vertex -18 -10 0
      vertex -13.854 17.0105 0
      vertex -12.945 17.4382 0
    endloop
  endfacet
  facet normal 0 0 -1
    outer loop
      vertex -18 -10 0
      vertex -12.945 17.4382 0
      vertex -11.9895 17.7487 0
    endloop
  endfacet
  facet normal 0 0 -1
    outer loop
      vertex -18 -10 0
      vertex -11.9895 17.7487 0
      vertex -11.0027 17.9369 0
    endloop
  endfacet
  facet normal 0 0 -1
    outer loop
      vertex -18 -10 0
      vertex -11.0027 17.9369 0
      vertex -10 18 0
    endloop
  endfacet
  facet normal 0 0 -1
    outer loop
      vertex -4.5 -4.5 0
      vertex -18 -10 0
      vertex -4.5 4.5 0
    endloop
  endfacet
  facet normal 0 0 -1
    outer loop
      vertex 4.5 4.5 0
      vertex 17.7487 11.9895 0
      vertex 17.9369 11.0027 0
    endloop
  endfacet
  facet normal 0 0 -1
    outer loop
      vertex 4.5 4.5 0
      vertex 17.9369 11.0027 0
      vertex 18 10 0
    endloop
  endfacet
  facet normal 0 0 -1
    outer loop
      vertex 4.5 4.5 0
      vertex 17.4382 12.945 0
      vertex 17.7487 11.9895 0
    endloop
  endfacet
  facet normal 0 0 -1
    outer loop
      vertex 4.5 -4.5 0
      vertex 18 10 0
      vertex 18 -10 0
    endloop
  endfacet
  facet normal 0 0 -1
    outer loop
      vertex -18 -10 0
      vertex 18 -10 0
      vertex 17.9842 -10 0
    endloop
  endfacet
  facet normal 0 0 -1
    outer loop
      vertex -18 -10 0
      vertex 17.9842 -10 0
      vertex 17.9842 -10.5023 0
    endloop
  endfacet
  facet normal 0 0 -1
    outer loop
      vertex -10.5023 -17.9842 0
      vertex -18 -10 0
      vertex -10 -17.9842 0
    endloop
  endfacet
  facet normal 0 0 -1
    outer loop
      vertex -4.5 4.5 0
      vertex 10.5023 17.9842 0
      vertex 11.4991 17.8583 0
    endloop
  endfacet
  facet normal 0 0 -1
    outer loop
      vertex -4.5 4.5 0
      vertex 11.4991 17.8583 0
      vertex 12.4721 17.6085 0
    endloop
  endfacet
  facet normal 0 0 -1
    outer loop
      vertex -4.5 4.5 0
      vertex 12.4721 17.6085 0
      vertex 13.4062 17.2386 0
    endloop
  endfacet
  facet normal 0 0 -1
    outer loop
      vertex -4.5 4.5 0
      vertex 13.4062 17.2386 0
      vertex 14.2866 16.7546 0
    endloop
  endfacet
  facet normal 0 0 -1
    outer loop
      vertex -4.5 4.5 0
      vertex 14.2866 16.7546 0
      vertex 15.0994 16.1641 0
    endloop
  endfacet
  facet normal 0 0 -1
    outer loop
      vertex -4.5 4.5 0
      vertex 15.0994 16.1641 0
      vertex 15.8317 15.4764 0
    endloop
  endfacet
  facet normal 0 0 -1
    outer loop
      vertex -4.5 4.5 0
      vertex 15.8317 15.4764 0
      vertex 16.4721 14.7023 0
    endloop
  endfacet
  facet normal 0 0 -1
    outer loop
      vertex -4.5 4.5 0
      vertex 16.4721 14.7023 0
      vertex 17.0105 13.854 0
    endloop
  endfacet
  facet normal 0 0 -1
    outer loop
      vertex -4.5 4.5 0
      vertex 17.0105 13.854 0
      vertex 17.4382 12.945 0
    endloop
  endfacet
  facet normal 0 0 -1
    outer loop
      vertex -4.5 4.5 0
      vertex 17.4382 12.945 0
      vertex 4.5 4.5 0
    endloop
  endfacet
  facet normal 0 0 -1
    outer loop
      vertex 10 -18 0
      vertex -10 -18 0
      vertex -10 -17.9842 0
    endloop
  endfacet
  facet normal 0 0 -1
    outer loop
      vertex -10 18 0
      vertex 10 18 0
      vertex -4.5 4.5 0
    endloop
  endfacet
  facet normal 0 0 -1
    outer loop
      vertex -10 18 0
      vertex -4.5 4.5 0
      vertex -18 -10 0
    endloop
  endfacet
  facet normal 0 0 -1
    outer loop
      vertex 4.5 4.5 0
      vertex 18 10 0
      vertex 4.5 -4.5 0
    endloop
  endfacet
  facet normal 0 0 -1
    outer loop
      vertex -18 -10 0
      vertex -4.5 -4.5 0
      vertex 18 -10 0
    endloop
  endfacet
  facet normal 0 0 -1
    outer loop
      vertex -4.5 -4.5 0
      vertex 4.5 -4.5 0
      vertex 18 -10 0
    endloop
  endfacet
  facet normal 0 0 -1
    outer loop
      vertex -18 -10 0
      vertex 17.9842 -10.5023 0
      vertex 17.8583 -11.4991 0
    endloop
  endfacet
  facet normal 0 0 -1
    outer loop
      vertex -18 -10 0
      vertex 17.8583 -11.4991 0
      vertex 17.6085 -12.4721 0
    endloop
  endfacet
  facet normal 0 0 -1
    outer loop
      vertex -18 -10 0
      vertex 17.6085 -12.4721 0
      vertex 17.2386 -13.4062 0
    endloop
  endfacet
  facet normal 0 0 -1
    outer loop
      vertex -18 -10 0
      vertex 17.2386 -13.4062 0
      vertex 16.7546 -14.2866 0
    endloop
  endfacet
  facet normal 0 0 -1
    outer loop
      vertex -18 -10 0
      vertex 16.7546 -14.2866 0
      vertex 16.1641 -15.0994 0
    endloop
  endfacet
  facet normal 0 0 -1
    outer loop
      vertex -18 -10 0
      vertex 16.1641 -15.0994 0
      vertex 15.4764 -15.8317 0
    endloop
  endfacet
  facet normal 0 0 -1
    outer loop
      vertex -18 -10 0
      vertex 15.4764 -15.8317 0
      vertex 14.7023 -16.4721 0
    endloop
  endfacet
  facet normal 0 0 -1
    outer loop
      vertex -18 -10 0
      vertex 14.7023 -16.4721 0
      vertex 13.854 -17.0105 0
    endloop
  endfacet
  facet normal 0 0 -1
    outer loop
      vertex -18 -10 0
      vertex 13.854 -17.0105 0
      vertex 12.945 -17.4382 0
    endloop
  endfacet
  facet normal 0 0 -1
    outer loop
      vertex -18 -10 0
      vertex 12.945 -17.4382 0
      vertex 11.9895 -17.7487 0
    endloop
  endfacet
  facet normal 0 0 -1
    outer loop
      vertex -18 -10 0
      vertex 11.9895 -17.7487 0
      vertex 11.0027 -17.9369 0
    endloop
  endfacet
  facet normal 0 0 -1
    outer loop
      vertex -18 -10 0
      vertex 11.0027 -17.9369 0
      vertex 10 -18 0
    endloop
  endfacet
  facet normal 0 0 -1
    outer loop
      vertex -18 -10 0
      vertex 10 -18 0
      vertex -10 -17.9842 0
    endloop
  endfacet
  facet normal 0 0 -1
    outer loop
      vertex -4.5 4.5 0
      vertex 10 17.9842 0
      vertex 10.5023 17.9842 0
    endloop
  endfacet
  facet normal 0 0 -1
    outer loop
      vertex -4.5 4.5 0
      vertex 10 18 0
      vertex 10 17.9842 0
    endloop
  endfacet
  facet normal 0 0 -1
    outer loop
      vertex -18 -10 0
      vertex -10.5023 -17.9842 0
      vertex -11.4991 -17.8583 0
    endloop
  endfacet
  facet normal 0 0 -1
    outer loop
      vertex -18 -10 0
      vertex -11.4991 -17.8583 0
      vertex -12.4721 -17.6085 0
    endloop
  endfacet
  facet normal 0 0 -1
    outer loop
      vertex -18 -10 0
      vertex -12.4721 -17.6085 0
      vertex -13.4062 -17.2386 0
    endloop
  endfacet
  facet normal 0 0 -1
    outer loop
      vertex -18 -10 0
      vertex -13.4062 -17.2386 0
      vertex -14.2866 -16.7546 0
    endloop
  endfacet
  facet normal 0 0 -1
    outer loop
      vertex -18 -10 0
      vertex -14.2866 -16.7546 0
      vertex -15.0994 -16.1641 0
    endloop
  endfacet
  facet normal 0 0 -1
    outer loop
      vertex -18 -10 0
      vertex -15.0994 -16.1641 0
      vertex -15.8317 -15.4764 0
    endloop
  endfacet
  facet normal 0 0 -1
    outer loop
      vertex -18 -10 0
      vertex -15.8317 -15.4764 0
      vertex -16.4721 -14.7023 0
    endloop
  endfacet
  facet normal 0 0 -1
    outer loop
      vertex -18 -10 0
      vertex -16.4721 -14.7023 0
      vertex -17.0105 -13.854 0
    endloop
  endfacet
  facet normal 0 0 -1
    outer loop
      vertex -18 -10 0
      vertex -17.0105 -13.854 0
      vertex -17.4382 -12.945 0
    endloop
  endfacet
  facet normal 0 0 -1
    outer loop
      vertex -18 -10 0
      vertex -17.4382 -12.945 0
      vertex -17.7487 -11.9895 0
    endloop
  endfacet
  facet normal 0 0 -1
    outer loop
      vertex -18 -10 0
      vertex -17.7487 -11.9895 0
      vertex -17.9369 -11.0027 0
    endloop
  endfacet
  facet normal 2.22045e-16 1 0
    outer loop
      vertex -17.9921 10 7
      vertex -17.9921 10 7.25116
      vertex -17.9842 10 7.31364
    endloop
  endfacet
  facet normal 2.22045e-16 1 0
    outer loop
      vertex -17.9921 10 7
      vertex -17.9842 10 7.31364
      vertex -17.9842 10 0
    endloop
  endfacet
  facet normal 2.22045e-16 1 0
    outer loop
      vertex -17.9921 10 7
      vertex -17.9842 10 0
      vertex -18 10 7
    endloop
  endfacet
  facet normal 2.22045e-16 1 0
    outer loop
      vertex -17.9842 10 0
      vertex -18 10 0
      vertex -18 10 7
    endloop
  endfacet
  facet normal 2.22045e-16 0 1
    outer loop
      vertex -18 -10 7
      vertex -17.9921 -10.1255 7
      vertex -17.9921 10 7
    endloop
  endfacet
  facet normal 2.22045e-16 0 1
    outer loop
      vertex -18 10 7
      vertex -18 -10 7
      vertex -17.9921 10 7
    endloop
  endfacet
  facet normal -0.998027 -0.0627901 0
    outer loop
      vertex -18 -10 0
      vertex -17.9369 -11.0027 0
      vertex -18 -10 7
    endloop
  endfacet
  facet normal -0.998027 -0.0627901 0
    outer loop
      vertex -17.9921 -10.1255 7
      vertex -17.9369 -11.0027 0
      vertex -17.9369 -11.0027 7.68803
    endloop
  endfacet
  facet normal -0.998027 -0.0627901 0
    outer loop
      vertex -18 -10 7
      vertex -17.9369 -11.0027 0
      vertex -17.9921 -10.1255 7
    endloop
  endfacet
  facet normal -0.998027 -0.0627901 0
    outer loop
      vertex -17.9921 -10.1255 7
      vertex -17.9369 -11.0027 7.68803
      vertex -17.9921 -10.1255 7.25116
    endloop
  endfacet
  facet normal -0.982287 -0.187382 0
    outer loop
      vertex -17.9369 -11.0027 0
      vertex -17.7487 -11.9895 0
      vertex -17.9369 -11.0027 7.68803
    endloop
  endfacet
  facet normal -0.982287 -0.187382 0
    outer loop
      vertex -17.9369 -11.0027 7.68803
      vertex -17.7487 -11.9895 0
      vertex -17.7487 -11.9895 8.3764
    endloop
  endfacet
  facet normal -0.982287 -0.187382 0
    outer loop
      vertex -17.9369 -11.0027 7.68803
      vertex -17.7487 -11.9895 8.3764
      vertex -17.8042 -11.6983 8.23607
    endloop
  endfacet
  facet normal -0.982287 -0.187382 0
    outer loop
      vertex -17.9369 -11.0027 7.68803
      vertex -17.8042 -11.6983 8.23607
      vertex -17.9291 -11.0434 7.74952
    endloop
  endfacet
  facet normal -0.951057 -0.309017 0
    outer loop
      vertex -17.7487 -11.9895 0
      vertex -17.4382 -12.945 0
      vertex -17.7487 -11.9895 8.3764
    endloop
  endfacet
  facet normal -0.951057 -0.309017 0
    outer loop
      vertex -17.7487 -11.9895 8.3764
      vertex -17.4382 -12.945 0
      vertex -17.4382 -12.945 9.03253
    endloop
  endfacet
  facet normal -0.951057 -0.309017 0
    outer loop
      vertex -17.7487 -11.9895 8.3764
      vertex -17.4382 -12.945 9.03253
      vertex -17.6193 -12.3876 8.70312
    endloop
  endfacet
  facet normal -0.904827 -0.42578 0
    outer loop
      vertex -17.4382 -12.945 0
      vertex -17.0105 -13.854 0
      vertex -17.4382 -12.945 9.03253
    endloop
  endfacet
  facet normal -0.904827 -0.42578 0
    outer loop
      vertex -17.4382 -12.945 9.03253
      vertex -17.0105 -13.854 0
      vertex -17.0105 -13.854 9.62594
    endloop
  endfacet
  facet normal -0.904827 -0.42578 0
    outer loop
      vertex -17.4382 -12.945 9.03253
      vertex -17.0105 -13.854 9.62594
      vertex -17.0821 -13.7019 9.5497
    endloop
  endfacet
  facet normal -0.904827 -0.42578 0
    outer loop
      vertex -17.4382 -12.945 9.03253
      vertex -17.0821 -13.7019 9.5497
      vertex -17.3773 -13.0744 9.14331
    endloop
  endfacet
  facet normal -0.844328 -0.535826 0
    outer loop
      vertex -17.0105 -13.854 0
      vertex -16.4721 -14.7023 0
      vertex -17.0105 -13.854 9.62594
    endloop
  endfacet
  facet normal -0.844328 -0.535826 0
    outer loop
      vertex -17.0105 -13.854 9.62594
      vertex -16.4721 -14.7023 0
      vertex -16.4721 -14.7023 10.136
    endloop
  endfacet
  facet normal -0.844328 -0.535826 0
    outer loop
      vertex -17.0105 -13.854 9.62594
      vertex -16.4721 -14.7023 10.136
      vertex -16.7382 -14.2831 9.91587
    endloop
  endfacet
  facet normal -0.770513 -0.637424 0
    outer loop
      vertex -16.4721 -14.7023 0
      vertex -15.8317 -15.4764 0
      vertex -16.4721 -14.7023 10.136
    endloop
  endfacet
  facet normal -0.770513 -0.637424 0
    outer loop
      vertex -16.4721 -14.7023 10.136
      vertex -15.8317 -15.4764 0
      vertex -15.8317 -15.4764 10.5501
    endloop
  endfacet
  facet normal -0.770513 -0.637424 0
    outer loop
      vertex -16.4721 -14.7023 10.136
      vertex -15.8317 -15.4764 10.5501
      vertex -15.927 -15.3612 10.5052
    endloop
  endfacet
  facet normal -0.770513 -0.637424 0
    outer loop
      vertex -16.4721 -14.7023 10.136
      vertex -15.927 -15.3612 10.5052
      vertex -16.3511 -14.8485 10.2361
    endloop
  endfacet
  facet normal -0.684547 -0.728969 0
    outer loop
      vertex -15.8317 -15.4764 10.5501
      vertex -15.8317 -15.4764 0
      vertex -15.0994 -16.1641 0
    endloop
  endfacet
  facet normal -0.684547 -0.728969 0
    outer loop
      vertex -15.5 -15.7879 8.75
      vertex -15.8317 -15.4764 10.5501
      vertex -15.0994 -16.1641 0
    endloop
  endfacet
  facet normal -0.684547 -0.728969 0
    outer loop
      vertex -15.0994 -16.1641 8.75
      vertex -15.5 -15.7879 8.75
      vertex -15.0994 -16.1641 0
    endloop
  endfacet
  facet normal -0.684547 -0.728969 0
    outer loop
      vertex -15.0994 -16.1641 10.8403
      vertex -15.8317 -15.4764 10.5501
      vertex -15.0994 -16.1641 9.26507
    endloop
  endfacet
  facet normal -0.684547 -0.728969 0
    outer loop
      vertex -15.4725 -15.8137 10.7191
      vertex -15.8317 -15.4764 10.5501
      vertex -15.0994 -16.1641 10.8403
    endloop
  endfacet
  facet normal -0.684547 -0.728969 0
    outer loop
      vertex -15.5 -15.7879 8.75
      vertex -15.0994 -16.1641 9.26507
      vertex -15.8317 -15.4764 10.5501
    endloop
  endfacet
  facet normal -0.587785 -0.809017 0
    outer loop
      vertex -15.0994 -16.1641 8.75
      vertex -15.0994 -16.1641 0
      vertex -14.2866 -16.7546 0
    endloop
  endfacet
  facet normal -0.587785 -0.809017 0
    outer loop
      vertex -14.2866 -16.7546 8.75
      vertex -15.0994 -16.1641 8.75
      vertex -14.2866 -16.7546 0
    endloop
  endfacet
  facet normal -0.481754 -0.876307 0
    outer loop
      vertex -14.2866 -16.7546 8.75
      vertex -14.2866 -16.7546 0
      vertex -13.4062 -17.2386 0
    endloop
  endfacet
  facet normal -0.481754 -0.876307 0
    outer loop
      vertex -13.4062 -17.2386 8.75
      vertex -14.2866 -16.7546 8.75
      vertex -13.4062 -17.2386 0
    endloop
  endfacet
  facet normal -0.368125 -0.929776 0
    outer loop
      vertex -13.4062 -17.2386 8.75
      vertex -13.4062 -17.2386 0
      vertex -12.4721 -17.6085 0
    endloop
  endfacet
  facet normal -0.368125 -0.929776 0
    outer loop
      vertex -12.4721 -17.6085 8.75
      vertex -13.4062 -17.2386 8.75
      vertex -12.4721 -17.6085 0
    endloop
  endfacet
  facet normal -0.24869 -0.968583 0
    outer loop
      vertex -12.4721 -17.6085 8.75
      vertex -12.4721 -17.6085 0
      vertex -11.4991 -17.8583 0
    endloop
  endfacet
  facet normal -0.24869 -0.968583 0
    outer loop
      vertex -11.4991 -17.8583 8.75
      vertex -12.4721 -17.6085 8.75
      vertex -11.4991 -17.8583 0
    endloop
  endfacet
  facet normal -0.125333 -0.992115 0
    outer loop
      vertex -11.4991 -17.8583 8.75
      vertex -11.4991 -17.8583 0
      vertex -10.5023 -17.9842 0
    endloop
  endfacet
  facet normal -0.125333 -0.992115 0
    outer loop
      vertex -10.5023 -17.9842 8.75
      vertex -11.4991 -17.8583 8.75
      vertex -10.5023 -17.9842 0
    endloop
  endfacet
  facet normal -1.22465e-16 -1 0
    outer loop
      vertex -10.5023 -17.9842 8.75
      vertex -10.5023 -17.9842 0
      vertex -10 -17.9842 0
    endloop
  endfacet
  facet normal -1.22465e-16 -1 0
    outer loop
      vertex -10 -17.9842 8.75
      vertex -10.5023 -17.9842 8.75
      vertex -10 -17.9842 0
    endloop
  endfacet
  facet normal -1 1.22465e-16 0
    outer loop
      vertex -10 -17.9842 8.75
      vertex -10 -17.9842 0
      vertex -10 -18 8.75
    endloop
  endfacet
  facet normal -1 1.22465e-16 0
    outer loop
      vertex -10 -18 8.75
      vertex -10 -17.9842 0
      vertex -10 -18 0
    endloop
  endfacet
  facet normal 0 -1 0
    outer loop
      vertex -10 -18 8.75
      vertex -10 -18 0
      vertex 10 -18 0
    endloop
  endfacet
  facet normal 0 -1 0
    outer loop
      vertex 10 -18 8.75
      vertex -10 -18 8.75
      vertex 10 -18 0
    endloop
  endfacet
  facet normal 0.0627901 -0.998027 0
    outer loop
      vertex 10 -18 8.75
      vertex 10 -18 0
      vertex 11.0027 -17.9369 0
    endloop
  endfacet
  facet normal 0.0627901 -0.998027 0
    outer loop
      vertex 11.0027 -17.9369 8.75
      vertex 10 -18 8.75
      vertex 11.0027 -17.9369 0
    endloop
  endfacet
  facet normal 0.187382 -0.982287 0
    outer loop
      vertex 11.0027 -17.9369 8.75
      vertex 11.0027 -17.9369 0
      vertex 11.9895 -17.7487 0
    endloop
  endfacet
  facet normal 0.187382 -0.982287 0
    outer loop
      vertex 11.9895 -17.7487 8.75
      vertex 11.0027 -17.9369 8.75
      vertex 11.9895 -17.7487 0
    endloop
  endfacet
  facet normal 0.309017 -0.951057 0
    outer loop
      vertex 11.9895 -17.7487 8.75
      vertex 11.9895 -17.7487 0
      vertex 12.945 -17.4382 0
    endloop
  endfacet
  facet normal 0.309017 -0.951057 0
    outer loop
      vertex 12.945 -17.4382 8.75
      vertex 11.9895 -17.7487 8.75
      vertex 12.945 -17.4382 0
    endloop
  endfacet
  facet normal 0.42578 -0.904827 0
    outer loop
      vertex 12.945 -17.4382 8.75
      vertex 12.945 -17.4382 0
      vertex 13.854 -17.0105 0
    endloop
  endfacet
  facet normal 0.42578 -0.904827 0
    outer loop
      vertex 13.854 -17.0105 8.75
      vertex 12.945 -17.4382 8.75
      vertex 13.854 -17.0105 0
    endloop
  endfacet
  facet normal 0.535826 -0.844328 0
    outer loop
      vertex 13.854 -17.0105 8.75
      vertex 13.854 -17.0105 0
      vertex 14.7023 -16.4721 0
    endloop
  endfacet
  facet normal 0.535826 -0.844328 0
    outer loop
      vertex 14.7023 -16.4721 8.75
      vertex 13.854 -17.0105 8.75
      vertex 14.7023 -16.4721 0
    endloop
  endfacet
  facet normal 0.637424 -0.770513 0
    outer loop
      vertex 14.7023 -16.4721 8.75
      vertex 14.7023 -16.4721 0
      vertex 15.4764 -15.8317 0
    endloop
  endfacet
  facet normal 0.637424 -0.770513 0
    outer loop
      vertex 15.4764 -15.8317 8.75
      vertex 14.7023 -16.4721 8.75
      vertex 15.4764 -15.8317 0
    endloop
  endfacet
  facet normal 0.728969 -0.684547 0
    outer loop
      vertex 15.4764 -15.8317 8.75
      vertex 15.4764 -15.8317 0
      vertex 16.1641 -15.0994 0
    endloop
  endfacet
  facet normal 0.728969 -0.684547 0
    outer loop
      vertex 15.5 -15.8066 8.75
      vertex 15.4764 -15.8317 8.75
      vertex 16.1641 -15.0994 0
    endloop
  endfacet
  facet normal 0.728969 -0.684547 0
    outer loop
      vertex 15.4764 -15.8317 10.7091
      vertex 15.4764 -15.8317 8.78037
      vertex 15.7031 -15.5903 10.6193
    endloop
  endfacet
  facet normal 0.728969 -0.684547 0
    outer loop
      vertex 16.1641 -15.0994 10.3622
      vertex 15.5 -15.8066 8.75
      vertex 16.1641 -15.0994 0
    endloop
  endfacet
  facet normal 0.728969 -0.684547 0
    outer loop
      vertex 15.4764 -15.8317 8.78037
      vertex 16.1433 -15.1215 10.3773
      vertex 15.7031 -15.5903 10.6193
    endloop
  endfacet
  facet normal 0.728969 -0.684547 0
    outer loop
      vertex 15.4764 -15.8317 8.78037
      vertex 16.1641 -15.0994 10.3622
      vertex 16.1433 -15.1215 10.3773
    endloop
  endfacet
  facet normal 0.728969 -0.684547 0
    outer loop
      vertex 15.4764 -15.8317 8.78037
      vertex 15.5 -15.8066 8.75
      vertex 16.1641 -15.0994 10.3622
    endloop
  endfacet
  facet normal 0.809017 -0.587785 0
    outer loop
      vertex 16.1641 -15.0994 10.3622
      vertex 16.1641 -15.0994 0
      vertex 16.7546 -14.2866 0
    endloop
  endfacet
  facet normal 0.809017 -0.587785 0
    outer loop
      vertex 16.5497 -14.5687 10.0821
      vertex 16.1641 -15.0994 10.3622
      vertex 16.7546 -14.2866 9.88961
    endloop
  endfacet
  facet normal 0.809017 -0.587785 0
    outer loop
      vertex 16.7546 -14.2866 9.88961
      vertex 16.1641 -15.0994 10.3622
      vertex 16.7546 -14.2866 0
    endloop
  endfacet
  facet normal 0.876307 -0.481754 0
    outer loop
      vertex 16.7546 -14.2866 9.88961
      vertex 16.7546 -14.2866 0
      vertex 17.2386 -13.4062 0
    endloop
  endfacet
  facet normal 0.876307 -0.481754 0
    outer loop
      vertex 17.2361 -13.4109 9.35114
      vertex 16.7546 -14.2866 9.88961
      vertex 17.2386 -13.4062 9.34713
    endloop
  endfacet
  facet normal 0.876307 -0.481754 0
    outer loop
      vertex 17.2386 -13.4062 9.34713
      vertex 16.7546 -14.2866 9.88961
      vertex 17.2386 -13.4062 0
    endloop
  endfacet
  facet normal 0.876307 -0.481754 0
    outer loop
      vertex 16.9159 -13.9933 9.73819
      vertex 16.7546 -14.2866 9.88961
      vertex 17.2361 -13.4109 9.35114
    endloop
  endfacet
  facet normal 0.929776 -0.368125 0
    outer loop
      vertex 17.2386 -13.4062 9.34713
      vertex 17.2386 -13.4062 0
      vertex 17.6085 -12.4721 0
    endloop
  endfacet
  facet normal 0.929776 -0.368125 0
    outer loop
      vertex 17.5052 -12.7329 8.92702
      vertex 17.2386 -13.4062 9.34713
      vertex 17.6085 -12.4721 8.70765
    endloop
  endfacet
  facet normal 0.929776 -0.368125 0
    outer loop
      vertex 17.6085 -12.4721 8.70765
      vertex 17.2386 -13.4062 9.34713
      vertex 17.6085 -12.4721 0
    endloop
  endfacet
  facet normal 0.968583 -0.24869 0
    outer loop
      vertex 17.6085 -12.4721 8.70765
      vertex 17.6085 -12.4721 0
      vertex 17.8583 -11.4991 0
    endloop
  endfacet
  facet normal 0.968583 -0.24869 0
    outer loop
      vertex 17.7191 -12.0412 8.4725
      vertex 17.6085 -12.4721 8.70765
      vertex 17.8583 -11.4991 8.04411
    endloop
  endfacet
  facet normal 0.968583 -0.24869 0
    outer loop
      vertex 17.8583 -11.4991 8.04411
      vertex 17.6085 -12.4721 8.70765
      vertex 17.8583 -11.4991 0
    endloop
  endfacet
  facet normal 0.992115 -0.125333 0
    outer loop
      vertex 17.8583 -11.4991 8.04411
      vertex 17.8583 -11.4991 0
      vertex 17.9842 -10.5023 0
    endloop
  endfacet
  facet normal 0.992115 -0.125333 0
    outer loop
      vertex 17.9685 -10.627 7.50133
      vertex 17.8583 -11.4991 8.04411
      vertex 17.9842 -10.5023 7.25091
    endloop
  endfacet
  facet normal 0.992115 -0.125333 0
    outer loop
      vertex 17.9842 -10.5023 7.25091
      vertex 17.8583 -11.4991 8.04411
      vertex 17.9842 -10.5023 0
    endloop
  endfacet
  facet normal 0.992115 -0.125333 0
    outer loop
      vertex 17.8743 -11.3721 7.99476
      vertex 17.8583 -11.4991 8.04411
      vertex 17.9685 -10.627 7.50133
    endloop
  endfacet
  facet normal 1 2.22045e-16 0
    outer loop
      vertex 17.9842 -10.5023 0
      vertex 17.9842 -10 0
      vertex 17.9842 -10 7.25091
    endloop
  endfacet
  facet normal 1 2.22045e-16 0
    outer loop
      vertex 17.9842 -10.5023 7.25091
      vertex 17.9842 -10.5023 0
      vertex 17.9842 -10 7.25091
    endloop
  endfacet
  facet normal 2.22045e-16 -1 0
    outer loop
      vertex 18 -10 0
      vertex 18 -10 7
      vertex 17.9842 -10 7.25091
    endloop
  endfacet
  facet normal 2.22045e-16 -1 0
    outer loop
      vertex 17.9842 -10 0
      vertex 18 -10 0
      vertex 17.9842 -10 7.25091
    endloop
  endfacet
  facet normal 1 0 0
    outer loop
      vertex 18 -10 7
      vertex 18 -10 0
      vertex 18 10 0
    endloop
  endfacet
  facet normal 1 0 0
    outer loop
      vertex 18 10 7
      vertex 18 -10 7
      vertex 18 10 0
    endloop
  endfacet
  facet normal 0.998027 0.0627901 0
    outer loop
      vertex 18 10 0
      vertex 17.9369 11.0027 0
      vertex 17.9369 11.0027 7.66668
    endloop
  endfacet
  facet normal 0.998027 0.0627901 0
    outer loop
      vertex 18 10 7
      vertex 18 10 0
      vertex 17.9685 10.5013 7.50133
    endloop
  endfacet
  facet normal 0.998027 0.0627901 0
    outer loop
      vertex 17.9685 10.5013 7.50133
      vertex 18 10 0
      vertex 17.9369 11.0027 7.66668
    endloop
  endfacet
  facet normal 0.982287 0.187382 0
    outer loop
      vertex 17.9369 11.0027 0
      vertex 17.7487 11.9895 0
      vertex 17.7487 11.9895 8.38153
    endloop
  endfacet
  facet normal 0.982287 0.187382 0
    outer loop
      vertex 17.9369 11.0027 7.66668
      vertex 17.9369 11.0027 0
      vertex 17.8743 11.3307 7.99476
    endloop
  endfacet
  facet normal 0.982287 0.187382 0
    outer loop
      vertex 17.8743 11.3307 7.99476
      vertex 17.9369 11.0027 0
      vertex 17.7487 11.9895 8.38153
    endloop
  endfacet
  facet normal 0.951057 0.309017 0
    outer loop
      vertex 17.7487 11.9895 0
      vertex 17.4382 12.945 0
      vertex 17.4382 12.945 9.03261
    endloop
  endfacet
  facet normal 0.951057 0.309017 0
    outer loop
      vertex 17.7191 12.0805 8.4725
      vertex 17.7487 11.9895 0
      vertex 17.5052 12.7387 8.92701
    endloop
  endfacet
  facet normal 0.951057 0.309017 0
    outer loop
      vertex 17.5052 12.7387 8.92701
      vertex 17.7487 11.9895 0
      vertex 17.4382 12.945 9.03261
    endloop
  endfacet
  facet normal 0.951057 0.309017 0
    outer loop
      vertex 17.7487 11.9895 8.38153
      vertex 17.7487 11.9895 0
      vertex 17.7191 12.0805 8.4725
    endloop
  endfacet
  facet normal 0.904827 0.42578 0
    outer loop
      vertex 17.4382 12.945 0
      vertex 17.0105 13.854 0
      vertex 17.0105 13.854 9.62386
    endloop
  endfacet
  facet normal 0.904827 0.42578 0
    outer loop
      vertex 17.4382 12.945 9.03261
      vertex 17.4382 12.945 0
      vertex 17.2361 13.3746 9.35114
    endloop
  endfacet
  facet normal 0.904827 0.42578 0
    outer loop
      vertex 17.2361 13.3746 9.35114
      vertex 17.4382 12.945 0
      vertex 17.0105 13.854 9.62386
    endloop
  endfacet
  facet normal 0.844328 0.535826 0
    outer loop
      vertex 17.0105 13.854 0
      vertex 16.4721 14.7023 0
      vertex 16.4721 14.7023 10.1384
    endloop
  endfacet
  facet normal 0.844328 0.535826 0
    outer loop
      vertex 16.9159 14.0031 9.73819
      vertex 17.0105 13.854 0
      vertex 16.5497 14.5801 10.0821
    endloop
  endfacet
  facet normal 0.844328 0.535826 0
    outer loop
      vertex 16.5497 14.5801 10.0821
      vertex 17.0105 13.854 0
      vertex 16.4721 14.7023 10.1384
    endloop
  endfacet
  facet normal 0.844328 0.535826 0
    outer loop
      vertex 17.0105 13.854 9.62386
      vertex 17.0105 13.854 0
      vertex 16.9159 14.0031 9.73819
    endloop
  endfacet
  facet normal 0.770513 0.637424 0
    outer loop
      vertex 16.4721 14.7023 0
      vertex 15.8317 15.4764 0
      vertex 15.8317 15.4764 10.5486
    endloop
  endfacet
  facet normal 0.770513 0.637424 0
    outer loop
      vertex 16.4721 14.7023 10.1384
      vertex 16.4721 14.7023 0
      vertex 16.1433 15.0998 10.3773
    endloop
  endfacet
  facet normal 0.770513 0.637424 0
    outer loop
      vertex 16.1433 15.0998 10.3773
      vertex 16.4721 14.7023 0
      vertex 15.8317 15.4764 10.5486
    endloop
  endfacet
  facet normal 0.684547 0.728969 0
    outer loop
      vertex 15.0994 16.1641 0
      vertex 15.0994 16.1641 10.8393
      vertex 15.8317 15.4764 0
    endloop
  endfacet
  facet normal 0.684547 0.728969 0
    outer loop
      vertex 15.8317 15.4764 0
      vertex 15.0994 16.1641 10.8393
      vertex 15.2361 16.0358 10.8042
    endloop
  endfacet
  facet normal 0.684547 0.728969 0
    outer loop
      vertex 15.8317 15.4764 0
      vertex 15.2361 16.0358 10.8042
      vertex 15.7031 15.5972 10.6193
    endloop
  endfacet
  facet normal 0.684547 0.728969 0
    outer loop
      vertex 15.8317 15.4764 0
      vertex 15.7031 15.5972 10.6193
      vertex 15.8317 15.4764 10.5486
    endloop
  endfacet
  facet normal 0.587785 0.809017 0
    outer loop
      vertex 14.2866 16.7546 0
      vertex 14.2866 16.7546 10.9876
      vertex 15.0994 16.1641 0
    endloop
  endfacet
  facet normal 0.587785 0.809017 0
    outer loop
      vertex 15.0994 16.1641 0
      vertex 14.2866 16.7546 10.9876
      vertex 14.7495 16.4183 10.9291
    endloop
  endfacet
  facet normal 0.587785 0.809017 0
    outer loop
      vertex 15.0994 16.1641 0
      vertex 14.7495 16.4183 10.9291
      vertex 15.0994 16.1641 10.8393
    endloop
  endfacet
  facet normal 0.481754 0.876307 0
    outer loop
      vertex 13.4062 17.2386 0
      vertex 13.4062 17.2386 11
      vertex 14.2866 16.7546 0
    endloop
  endfacet
  facet normal 0.481754 0.876307 0
    outer loop
      vertex 14 16.9122 10.9921
      vertex 13.4062 17.2386 11
      vertex 14 16.9122 11
    endloop
  endfacet
  facet normal 0.481754 0.876307 0
    outer loop
      vertex 14.2866 16.7546 0
      vertex 13.4062 17.2386 11
      vertex 14 16.9122 10.9921
    endloop
  endfacet
  facet normal 0.481754 0.876307 0
    outer loop
      vertex 14.2866 16.7546 0
      vertex 14.2512 16.7741 10.9921
      vertex 14.2866 16.7546 10.9876
    endloop
  endfacet
  facet normal 0.481754 0.876307 0
    outer loop
      vertex 14.2512 16.7741 10.9921
      vertex 14.2866 16.7546 0
      vertex 14 16.9122 10.9921
    endloop
  endfacet
  facet normal 0.368125 0.929776 0
    outer loop
      vertex 12.4721 17.6085 0
      vertex 12.4721 17.6085 11
      vertex 13.4062 17.2386 0
    endloop
  endfacet
  facet normal 0.368125 0.929776 0
    outer loop
      vertex 13.4062 17.2386 0
      vertex 12.4721 17.6085 11
      vertex 13.4062 17.2386 11
    endloop
  endfacet
  facet normal 0.24869 0.968583 0
    outer loop
      vertex 11.4991 17.8583 0
      vertex 11.4991 17.8583 11
      vertex 12.4721 17.6085 0
    endloop
  endfacet
  facet normal 0.24869 0.968583 0
    outer loop
      vertex 12.4721 17.6085 0
      vertex 11.4991 17.8583 11
      vertex 12.4721 17.6085 11
    endloop
  endfacet
  facet normal 0.125333 0.992115 0
    outer loop
      vertex 10.5023 17.9842 0
      vertex 10.5023 17.9842 11
      vertex 11.4991 17.8583 0
    endloop
  endfacet
  facet normal 0.125333 0.992115 0
    outer loop
      vertex 11.4991 17.8583 0
      vertex 10.5023 17.9842 11
      vertex 11.4991 17.8583 11
    endloop
  endfacet
  facet normal 0 1 0
    outer loop
      vertex 10 17.9842 0
      vertex 10 17.9842 11
      vertex 10.5023 17.9842 0
    endloop
  endfacet
  facet normal 0 1 0
    outer loop
      vertex 10.5023 17.9842 0
      vertex 10 17.9842 11
      vertex 10.5023 17.9842 11
    endloop
  endfacet
  facet normal 1 0 0
    outer loop
      vertex 10 18 0
      vertex 10 18 11
      vertex 10 17.9842 11
    endloop
  endfacet
  facet normal 1 0 0
    outer loop
      vertex 10 17.9842 0
      vertex 10 18 0
      vertex 10 17.9842 11
    endloop
  endfacet
  facet normal 0 1 0
    outer loop
      vertex 8.5 18 7.1
      vertex 10 18 0
      vertex -8.5 18 7.1
    endloop
  endfacet
  facet normal 0 1 0
    outer loop
      vertex -10 18 0
      vertex -10 18 11
      vertex -8.5 18 7.1
    endloop
  endfacet
  facet normal 0 1 0
    outer loop
      vertex -10 18 0
      vertex -8.5 18 7.1
      vertex 10 18 0
    endloop
  endfacet
  facet normal 0 1 0
    outer loop
      vertex 10 18 0
      vertex 8.5 18 7.1
      vertex 8.5 18 11
    endloop
  endfacet
  facet normal 0 1 0
    outer loop
      vertex 10 18 0
      vertex 8.5 18 11
      vertex 10 18 11
    endloop
  endfacet
  facet normal 0 1 0
    outer loop
      vertex -8.5 18 7.1
      vertex -10 18 11
      vertex -8.5 18 11
    endloop
  endfacet
  facet normal -0.0627901 0.998027 0
    outer loop
      vertex -11.0027 17.9369 0
      vertex -11.0027 17.9369 11
      vertex -10 18 0
    endloop
  endfacet
  facet normal -0.0627901 0.998027 0
    outer loop
      vertex -10 18 0
      vertex -11.0027 17.9369 11
      vertex -10 18 11
    endloop
  endfacet
  facet normal -0.187382 0.982287 0
    outer loop
      vertex -11.9895 17.7487 0
      vertex -11.9895 17.7487 11
      vertex -11.0027 17.9369 0
    endloop
  endfacet
  facet normal -0.187382 0.982287 0
    outer loop
      vertex -11.0027 17.9369 0
      vertex -11.9895 17.7487 11
      vertex -11.0027 17.9369 11
    endloop
  endfacet
  facet normal -0.309017 0.951057 0
    outer loop
      vertex -12.945 17.4382 0
      vertex -12.945 17.4382 11
      vertex -11.9895 17.7487 0
    endloop
  endfacet
  facet normal -0.309017 0.951057 0
    outer loop
      vertex -11.9895 17.7487 0
      vertex -12.945 17.4382 11
      vertex -11.9895 17.7487 11
    endloop
  endfacet
  facet normal -0.42578 0.904827 0
    outer loop
      vertex -13.854 17.0105 0
      vertex -13.854 17.0105 11
      vertex -12.945 17.4382 0
    endloop
  endfacet
  facet normal -0.42578 0.904827 0
    outer loop
      vertex -12.945 17.4382 0
      vertex -13.854 17.0105 11
      vertex -12.945 17.4382 11
    endloop
  endfacet
  facet normal -0.535826 0.844328 0
    outer loop
      vertex -14.7023 16.4721 0
      vertex -14.7023 16.4721 10.9301
      vertex -13.854 17.0105 0
    endloop
  endfacet
  facet normal -0.535826 0.844328 0
    outer loop
      vertex -13.854 17.0105 0
      vertex -14.7023 16.4721 10.9301
      vertex -14.5013 16.5997 10.9685
    endloop
  endfacet
  facet normal -0.535826 0.844328 0
    outer loop
      vertex -13.854 17.0105 0
      vertex -14.5013 16.5997 10.9685
      vertex -14 16.9178 11
    endloop
  endfacet
  facet normal -0.535826 0.844328 0
    outer loop
      vertex -13.854 17.0105 0
      vertex -14 16.9178 11
      vertex -13.854 17.0105 11
    endloop
  endfacet
  facet normal -0.637424 0.770513 0
    outer loop
      vertex -15.4764 15.8317 0
      vertex -15.4764 15.8317 10.7173
      vertex -14.7023 16.4721 0
    endloop
  endfacet
  facet normal -0.637424 0.770513 0
    outer loop
      vertex -14.7023 16.4721 0
      vertex -15.4764 15.8317 10.7173
      vertex -15.4725 15.835 10.7191
    endloop
  endfacet
  facet normal -0.637424 0.770513 0
    outer loop
      vertex -14.7023 16.4721 0
      vertex -15.4725 15.835 10.7191
      vertex -14.9948 16.2302 10.8743
    endloop
  endfacet
  facet normal -0.637424 0.770513 0
    outer loop
      vertex -14.7023 16.4721 0
      vertex -14.9948 16.2302 10.8743
      vertex -14.7023 16.4721 10.9301
    endloop
  endfacet
  facet normal -0.728969 0.684547 0
    outer loop
      vertex -16.1641 15.0994 0
      vertex -16.1641 15.0994 10.3548
      vertex -15.4764 15.8317 0
    endloop
  endfacet
  facet normal -0.728969 0.684547 0
    outer loop
      vertex -15.4764 15.8317 0
      vertex -16.1641 15.0994 10.3548
      vertex -15.927 15.3519 10.5052
    endloop
  endfacet
  facet normal -0.728969 0.684547 0
    outer loop
      vertex -15.4764 15.8317 0
      vertex -15.927 15.3519 10.5052
      vertex -15.4764 15.8317 10.7173
    endloop
  endfacet
  facet normal -0.809017 0.587785 0
    outer loop
      vertex -16.7546 14.2866 0
      vertex -16.7546 14.2866 9.89837
      vertex -16.1641 15.0994 0
    endloop
  endfacet
  facet normal -0.809017 0.587785 0
    outer loop
      vertex -16.1641 15.0994 0
      vertex -16.7546 14.2866 9.89837
      vertex -16.7382 14.3092 9.91587
    endloop
  endfacet
  facet normal -0.809017 0.587785 0
    outer loop
      vertex -16.1641 15.0994 0
      vertex -16.7382 14.3092 9.91587
      vertex -16.3511 14.842 10.2361
    endloop
  endfacet
  facet normal -0.809017 0.587785 0
    outer loop
      vertex -16.1641 15.0994 0
      vertex -16.3511 14.842 10.2361
      vertex -16.1641 15.0994 10.3548
    endloop
  endfacet
  facet normal -0.876307 0.481754 0
    outer loop
      vertex -17.2386 13.4062 0
      vertex -17.2386 13.4062 9.33421
      vertex -16.7546 14.2866 0
    endloop
  endfacet
  facet normal -0.876307 0.481754 0
    outer loop
      vertex -16.7546 14.2866 0
      vertex -17.2386 13.4062 9.33421
      vertex -17.0821 13.691 9.5497
    endloop
  endfacet
  facet normal -0.876307 0.481754 0
    outer loop
      vertex -16.7546 14.2866 0
      vertex -17.0821 13.691 9.5497
      vertex -16.7546 14.2866 9.89837
    endloop
  endfacet
  facet normal -0.929776 0.368125 0
    outer loop
      vertex -17.6085 12.4721 0
      vertex -17.6085 12.4721 8.72286
      vertex -17.2386 13.4062 0
    endloop
  endfacet
  facet normal -0.929776 0.368125 0
    outer loop
      vertex -17.2386 13.4062 0
      vertex -17.6085 12.4721 8.72286
      vertex -17.3773 13.0559 9.14331
    endloop
  endfacet
  facet normal -0.929776 0.368125 0
    outer loop
      vertex -17.2386 13.4062 0
      vertex -17.3773 13.0559 9.14331
      vertex -17.2386 13.4062 9.33421
    endloop
  endfacet
  facet normal -0.968583 0.24869 0
    outer loop
      vertex -17.8583 11.4991 0
      vertex -17.8583 11.4991 8.02547
      vertex -17.6085 12.4721 0
    endloop
  endfacet
  facet normal -0.968583 0.24869 0
    outer loop
      vertex -17.6085 12.4721 0
      vertex -17.8583 11.4991 8.02547
      vertex -17.8042 11.7096 8.23607
    endloop
  endfacet
  facet normal -0.968583 0.24869 0
    outer loop
      vertex -17.6085 12.4721 0
      vertex -17.8042 11.7096 8.23607
      vertex -17.6193 12.4299 8.70312
    endloop
  endfacet
  facet normal -0.968583 0.24869 0
    outer loop
      vertex -17.6085 12.4721 0
      vertex -17.6193 12.4299 8.70312
      vertex -17.6085 12.4721 8.72286
    endloop
  endfacet
  facet normal -0.992115 0.125333 0
    outer loop
      vertex -17.9842 10.5023 0
      vertex -17.9842 10.5023 7.31364
      vertex -17.8583 11.4991 0
    endloop
  endfacet
  facet normal -0.992115 0.125333 0
    outer loop
      vertex -17.8583 11.4991 0
      vertex -17.9842 10.5023 7.31364
      vertex -17.9291 10.9382 7.74952
    endloop
  endfacet
  facet normal -0.992115 0.125333 0
    outer loop
      vertex -17.8583 11.4991 0
      vertex -17.9291 10.9382 7.74952
      vertex -17.8583 11.4991 8.02547
    endloop
  endfacet
  facet normal -1 2.22045e-16 0
    outer loop
      vertex -17.9842 10 0
      vertex -17.9842 10 7.31364
      vertex -17.9842 10.5023 0
    endloop
  endfacet
  facet normal -1 2.22045e-16 0
    outer loop
      vertex -17.9842 10.5023 0
      vertex -17.9842 10 7.31364
      vertex -17.9842 10.5023 7.31364
    endloop
  endfacet
  facet normal 1 0 0
    outer loop
      vertex -4.5 4.5 0
      vertex -4.5 4.5 4
      vertex -4.5 -4.5 4
    endloop
  endfacet
  facet normal 1 0 0
    outer loop
      vertex -4.5 -4.5 0
      vertex -4.5 4.5 0
      vertex -4.5 -4.5 4
    endloop
  endfacet
  facet normal 0 -1 0
    outer loop
      vertex 4.5 4.5 0
      vertex 4.5 4.5 4
      vertex -4.5 4.5 4
    endloop
  endfacet
  facet normal 0 -1 0
    outer loop
      vertex -4.5 4.5 0
      vertex 4.5 4.5 0
      vertex -4.5 4.5 4
    endloop
  endfacet
  facet normal -1 0 0
    outer loop
      vertex 4.5 4.5 4
      vertex 4.5 4.5 0
      vertex 4.5 -4.5 4
    endloop
  endfacet
  facet normal -1 0 0
    outer loop
      vertex 4.5 -4.5 4
      vertex 4.5 4.5 0
      vertex 4.5 -4.5 0
    endloop
  endfacet
  facet normal 0 1 0
    outer loop
      vertex 4.5 -4.5 4
      vertex 4.5 -4.5 0
      vertex -4.5 -4.5 4
    endloop
  endfacet
  facet normal 0 1 0
    outer loop
      vertex -4.5 -4.5 4
      vertex 4.5 -4.5 0
      vertex -4.5 -4.5 0
    endloop
  endfacet
  facet normal -0.992115 2.20294e-16 0.125333
    outer loop
      vertex -17.9921 -10.1255 7.25116
      vertex -17.9369 -11.0027 7.68803
      vertex -17.9921 10 7.25116
    endloop
  endfacet
  facet normal -0.992115 2.20294e-16 0.125333
    outer loop
      vertex -17.9921 10 7.25116
      vertex -17.9369 -11.0027 7.68803
      vertex -17.9291 -11.0434 7.74952
    endloop
  endfacet
  facet normal -0.992115 2.20294e-16 0.125333
    outer loop
      vertex -17.9842 10 7.31364
      vertex -17.9291 -11.0434 7.74952
      vertex -17.9291 10.9382 7.74952
    endloop
  endfacet
  facet normal -0.992115 2.20294e-16 0.125333
    outer loop
      vertex -17.9921 10 7.25116
      vertex -17.9291 -11.0434 7.74952
      vertex -17.9842 10 7.31364
    endloop
  endfacet
  facet normal -0.992115 2.20294e-16 0.125333
    outer loop
      vertex -17.9842 10 7.31364
      vertex -17.9291 10.9382 7.74952
      vertex -17.9842 10.5023 7.31364
    endloop
  endfacet
  facet normal -1 2.22045e-16 2.22045e-16
    outer loop
      vertex -17.9921 -10.1255 7
      vertex -17.9921 -10.1255 7.25116
      vertex -17.9921 10 7
    endloop
  endfacet
  facet normal -1 2.22045e-16 2.22045e-16
    outer loop
      vertex -17.9921 10 7
      vertex -17.9921 -10.1255 7.25116
      vertex -17.9921 10 7.25116
    endloop
  endfacet
  facet normal -0.968583 2.15069e-16 0.24869
    outer loop
      vertex -17.9291 -11.0434 7.74952
      vertex -17.8042 -11.6983 8.23607
      vertex -17.9291 10.9382 7.74952
    endloop
  endfacet
  facet normal -0.968583 2.15069e-16 0.24869
    outer loop
      vertex -17.9291 10.9382 7.74952
      vertex -17.8042 -11.6983 8.23607
      vertex -17.8042 11.7096 8.23607
    endloop
  endfacet
  facet normal -0.968583 2.15069e-16 0.24869
    outer loop
      vertex -17.9291 10.9382 7.74952
      vertex -17.8042 11.7096 8.23607
      vertex -17.8583 11.4991 8.02547
    endloop
  endfacet
  facet normal -0.929776 2.06452e-16 0.368125
    outer loop
      vertex -17.8042 -11.6983 8.23607
      vertex -17.7487 -11.9895 8.3764
      vertex -17.8042 11.7096 8.23607
    endloop
  endfacet
  facet normal -0.929776 2.06452e-16 0.368125
    outer loop
      vertex -17.8042 11.7096 8.23607
      vertex -17.7487 -11.9895 8.3764
      vertex -17.6193 -12.3876 8.70312
    endloop
  endfacet
  facet normal -0.929776 2.06452e-16 0.368125
    outer loop
      vertex -17.8042 11.7096 8.23607
      vertex -17.6193 -12.3876 8.70312
      vertex -17.6193 12.4299 8.70312
    endloop
  endfacet
  facet normal -0.876307 1.94579e-16 0.481753
    outer loop
      vertex -17.6193 -12.3876 8.70312
      vertex -17.4382 -12.945 9.03253
      vertex -17.6193 12.4299 8.70312
    endloop
  endfacet
  facet normal -0.876307 1.94579e-16 0.481753
    outer loop
      vertex -17.6193 12.4299 8.70312
      vertex -17.4382 -12.945 9.03253
      vertex -17.3773 -13.0744 9.14331
    endloop
  endfacet
  facet normal -0.876307 1.94579e-16 0.481753
    outer loop
      vertex -17.6193 12.4299 8.70312
      vertex -17.3773 -13.0744 9.14331
      vertex -17.3773 13.0559 9.14331
    endloop
  endfacet
  facet normal -0.876307 1.94579e-16 0.481753
    outer loop
      vertex -17.6193 12.4299 8.70312
      vertex -17.3773 13.0559 9.14331
      vertex -17.6085 12.4721 8.72286
    endloop
  endfacet
  facet normal -0.809017 1.79638e-16 0.587785
    outer loop
      vertex -17.3773 -13.0744 9.14331
      vertex -17.0821 -13.7019 9.5497
      vertex -17.3773 13.0559 9.14331
    endloop
  endfacet
  facet normal -0.809017 1.79638e-16 0.587785
    outer loop
      vertex -17.3773 13.0559 9.14331
      vertex -17.0821 -13.7019 9.5497
      vertex -17.0821 13.691 9.5497
    endloop
  endfacet
  facet normal -0.809017 1.79638e-16 0.587785
    outer loop
      vertex -17.3773 13.0559 9.14331
      vertex -17.0821 13.691 9.5497
      vertex -17.2386 13.4062 9.33421
    endloop
  endfacet
  facet normal -0.728969 1.61864e-16 0.684547
    outer loop
      vertex -17.0821 -13.7019 9.5497
      vertex -17.0105 -13.854 9.62594
      vertex -17.0821 13.691 9.5497
    endloop
  endfacet
  facet normal -0.728969 1.61864e-16 0.684547
    outer loop
      vertex -17.0821 13.691 9.5497
      vertex -17.0105 -13.854 9.62594
      vertex -16.7382 -14.2831 9.91587
    endloop
  endfacet
  facet normal -0.728969 1.61864e-16 0.684547
    outer loop
      vertex -17.0821 13.691 9.5497
      vertex -16.7382 -14.2831 9.91587
      vertex -16.7382 14.3092 9.91587
    endloop
  endfacet
  facet normal -0.728969 1.61864e-16 0.684547
    outer loop
      vertex -17.0821 13.691 9.5497
      vertex -16.7382 14.3092 9.91587
      vertex -16.7546 14.2866 9.89837
    endloop
  endfacet
  facet normal -0.637424 1.41537e-16 0.770513
    outer loop
      vertex -16.7382 14.3092 9.91587
      vertex -16.7382 -14.2831 9.91587
      vertex -16.4721 -14.7023 10.136
    endloop
  endfacet
  facet normal -0.637424 1.41537e-16 0.770513
    outer loop
      vertex -16.3511 14.842 10.2361
      vertex -16.7382 14.3092 9.91587
      vertex -16.3511 -14.8485 10.2361
    endloop
  endfacet
  facet normal -0.637424 1.41537e-16 0.770513
    outer loop
      vertex -16.3511 -14.8485 10.2361
      vertex -16.7382 14.3092 9.91587
      vertex -16.4721 -14.7023 10.136
    endloop
  endfacet
  facet normal -0.535827 1.18978e-16 0.844328
    outer loop
      vertex -16.3511 14.842 10.2361
      vertex -16.3511 -14.8485 10.2361
      vertex -15.927 -15.3612 10.5052
    endloop
  endfacet
  facet normal -0.535827 1.18978e-16 0.844328
    outer loop
      vertex -16.1641 15.0994 10.3548
      vertex -16.3511 14.842 10.2361
      vertex -15.927 15.3519 10.5052
    endloop
  endfacet
  facet normal -0.535827 1.18978e-16 0.844328
    outer loop
      vertex -15.927 15.3519 10.5052
      vertex -16.3511 14.842 10.2361
      vertex -15.927 -15.3612 10.5052
    endloop
  endfacet
  facet normal -0.425779 9.45418e-17 0.904827
    outer loop
      vertex -15.927 15.3519 10.5052
      vertex -15.927 -15.3612 10.5052
      vertex -15.8317 -15.4764 10.5501
    endloop
  endfacet
  facet normal -0.425779 9.45418e-17 0.904827
    outer loop
      vertex -15.4725 15.835 10.7191
      vertex -15.927 15.3519 10.5052
      vertex -15.4725 -15.8137 10.7191
    endloop
  endfacet
  facet normal -0.425779 9.45418e-17 0.904827
    outer loop
      vertex -15.4725 -15.8137 10.7191
      vertex -15.927 15.3519 10.5052
      vertex -15.8317 -15.4764 10.5501
    endloop
  endfacet
  facet normal -0.425779 9.45418e-17 0.904827
    outer loop
      vertex -15.4764 15.8317 10.7173
      vertex -15.927 15.3519 10.5052
      vertex -15.4725 15.835 10.7191
    endloop
  endfacet
  facet normal -0.309018 6.86158e-17 0.951056
    outer loop
      vertex -15.4725 15.835 10.7191
      vertex -15.4725 -15.8137 10.7191
      vertex -15.0994 -16.1641 10.8403
    endloop
  endfacet
  facet normal -0.309018 6.86158e-17 0.951056
    outer loop
      vertex -14.9948 16.2302 10.8743
      vertex -15.4725 15.835 10.7191
      vertex -14.9948 -16.2401 10.8743
    endloop
  endfacet
  facet normal -0.309018 6.86158e-17 0.951056
    outer loop
      vertex -14.9948 -16.2401 10.8743
      vertex -15.4725 15.835 10.7191
      vertex -15.0994 -16.1641 10.8403
    endloop
  endfacet
  facet normal -0.587785 -0.809017 0
    outer loop
      vertex -15.0994 -16.1641 10.8403
      vertex -15.0994 -16.1641 9.26507
      vertex -14.2866 -16.7546 10.3101
    endloop
  endfacet
  facet normal -0.587785 -0.809017 0
    outer loop
      vertex -14.5013 -16.5986 10.9685
      vertex -15.0994 -16.1641 10.8403
      vertex -14.2866 -16.7546 10.982
    endloop
  endfacet
  facet normal -0.587785 -0.809017 0
    outer loop
      vertex -14.2866 -16.7546 10.982
      vertex -15.0994 -16.1641 10.8403
      vertex -14.2866 -16.7546 10.3101
    endloop
  endfacet
  facet normal -0.587785 -0.809017 0
    outer loop
      vertex -14.9948 -16.2401 10.8743
      vertex -15.0994 -16.1641 10.8403
      vertex -14.5013 -16.5986 10.9685
    endloop
  endfacet
  facet normal 0.789352 0 -0.613941
    outer loop
      vertex -15.0994 -16.1641 9.26507
      vertex -15.5 -15.7879 8.75
      vertex -15.5 10.25 8.75
    endloop
  endfacet
  facet normal 0.789352 0 -0.613941
    outer loop
      vertex -13.75 -17.0496 11
      vertex -15.0994 -16.1641 9.26507
      vertex -13.75 10.25 11
    endloop
  endfacet
  facet normal 0.789352 0 -0.613941
    outer loop
      vertex -13.75 10.25 11
      vertex -15.0994 -16.1641 9.26507
      vertex -15.5 10.25 8.75
    endloop
  endfacet
  facet normal 0.789352 0 -0.613941
    outer loop
      vertex -14.2866 -16.7546 10.3101
      vertex -15.0994 -16.1641 9.26507
      vertex -13.75 -17.0496 11
    endloop
  endfacet
  facet normal 0 0 1
    outer loop
      vertex -15.0994 -16.1641 8.75
      vertex -14.2866 -16.7546 8.75
      vertex -13.4062 -17.2386 8.75
    endloop
  endfacet
  facet normal 0 0 1
    outer loop
      vertex -11.4991 -17.8583 8.75
      vertex -15.0994 -16.1641 8.75
      vertex -12.4721 -17.6085 8.75
    endloop
  endfacet
  facet normal 0 0 1
    outer loop
      vertex -12.4721 -17.6085 8.75
      vertex -15.0994 -16.1641 8.75
      vertex -13.4062 -17.2386 8.75
    endloop
  endfacet
  facet normal 0 0 1
    outer loop
      vertex -10.5023 -17.9842 8.75
      vertex -15.0994 -16.1641 8.75
      vertex -11.4991 -17.8583 8.75
    endloop
  endfacet
  facet normal 0 0 1
    outer loop
      vertex -10 -17.9842 8.75
      vertex -15.0994 -16.1641 8.75
      vertex -10.5023 -17.9842 8.75
    endloop
  endfacet
  facet normal 0 0 1
    outer loop
      vertex 10 -18 8.75
      vertex -15.0994 -16.1641 8.75
      vertex -10 -17.9842 8.75
    endloop
  endfacet
  facet normal 0 0 1
    outer loop
      vertex 10 -18 8.75
      vertex -10 -17.9842 8.75
      vertex -10 -18 8.75
    endloop
  endfacet
  facet normal 0 0 1
    outer loop
      vertex 11.0027 -17.9369 8.75
      vertex -15.0994 -16.1641 8.75
      vertex 10 -18 8.75
    endloop
  endfacet
  facet normal 0 0 1
    outer loop
      vertex 11.9895 -17.7487 8.75
      vertex -15.0994 -16.1641 8.75
      vertex 11.0027 -17.9369 8.75
    endloop
  endfacet
  facet normal 0 0 1
    outer loop
      vertex 12.945 -17.4382 8.75
      vertex -15.0994 -16.1641 8.75
      vertex 11.9895 -17.7487 8.75
    endloop
  endfacet
  facet normal 0 0 1
    outer loop
      vertex 13.854 -17.0105 8.75
      vertex -15.0994 -16.1641 8.75
      vertex 12.945 -17.4382 8.75
    endloop
  endfacet
  facet normal 0 0 1
    outer loop
      vertex 14.7023 -16.4721 8.75
      vertex -15.0994 -16.1641 8.75
      vertex 13.854 -17.0105 8.75
    endloop
  endfacet
  facet normal 0 0 1
    outer loop
      vertex 15.4764 -15.8317 8.75
      vertex -15.0994 -16.1641 8.75
      vertex 14.7023 -16.4721 8.75
    endloop
  endfacet
  facet normal 0 0 1
    outer loop
      vertex 15.5 -15.8066 8.75
      vertex -15.0994 -16.1641 8.75
      vertex 15.4764 -15.8317 8.75
    endloop
  endfacet
  facet normal 0 0 1
    outer loop
      vertex 12.8 -15.3 8.75
      vertex -15.0994 -16.1641 8.75
      vertex 15.5 -15.8066 8.75
    endloop
  endfacet
  facet normal 0 0 1
    outer loop
      vertex -10.75 9.3 8.75
      vertex -10.75 10.25 8.75
      vertex -12.8 9.3 8.75
    endloop
  endfacet
  facet normal 0 0 1
    outer loop
      vertex 10.75 10.25 8.75
      vertex 10.75 9.3 8.75
      vertex 15.5 10.25 8.75
    endloop
  endfacet
  facet normal 0 0 1
    outer loop
      vertex 10.75 9.3 8.75
      vertex 12.8 9.3 8.75
      vertex 15.5 10.25 8.75
    endloop
  endfacet
  facet normal 0 0 1
    outer loop
      vertex 15.5 10.25 8.75
      vertex 12.8 -15.3 8.75
      vertex 15.5 -15.8066 8.75
    endloop
  endfacet
  facet normal 0 0 1
    outer loop
      vertex -12.8 -15.3 8.75
      vertex -15.0994 -16.1641 8.75
      vertex 12.8 -15.3 8.75
    endloop
  endfacet
  facet normal 0 0 1
    outer loop
      vertex -15.5 10.25 8.75
      vertex -15.0994 -16.1641 8.75
      vertex -12.8 9.3 8.75
    endloop
  endfacet
  facet normal 0 0 1
    outer loop
      vertex -15.5 10.25 8.75
      vertex -12.8 9.3 8.75
      vertex -10.75 10.25 8.75
    endloop
  endfacet
  facet normal 0 0 1
    outer loop
      vertex -15.5 -15.7879 8.75
      vertex -15.0994 -16.1641 8.75
      vertex -15.5 10.25 8.75
    endloop
  endfacet
  facet normal 0 0 1
    outer loop
      vertex 12.8 9.3 8.75
      vertex 12.8 -15.3 8.75
      vertex 15.5 10.25 8.75
    endloop
  endfacet
  facet normal 0 0 1
    outer loop
      vertex -12.8 -15.3 8.75
      vertex -12.8 9.3 8.75
      vertex -15.0994 -16.1641 8.75
    endloop
  endfacet
  facet normal -0.789352 0 -0.613941
    outer loop
      vertex 15.5 10.25 8.75
      vertex 15.5 -15.8066 8.75
      vertex 13.75 10.25 11
    endloop
  endfacet
  facet normal -0.789352 0 -0.613941
    outer loop
      vertex 13.75 10.25 11
      vertex 15.5 -15.8066 8.75
      vertex 15.4764 -15.8317 8.78037
    endloop
  endfacet
  facet normal -0.789352 0 -0.613941
    outer loop
      vertex 13.75 10.25 11
      vertex 15.4764 -15.8317 8.78037
      vertex 14.7023 -16.4721 9.77564
    endloop
  endfacet
  facet normal -0.789352 0 -0.613941
    outer loop
      vertex 13.75 10.25 11
      vertex 14.7023 -16.4721 9.77564
      vertex 13.854 -17.0105 10.8662
    endloop
  endfacet
  facet normal -0.789352 0 -0.613941
    outer loop
      vertex 13.75 10.25 11
      vertex 13.854 -17.0105 10.8662
      vertex 13.75 -17.0594 11
    endloop
  endfacet
  facet normal 0.637424 -0.770513 0
    outer loop
      vertex 14.7023 -16.4721 10.9351
      vertex 14.7023 -16.4721 9.77564
      vertex 15.4764 -15.8317 8.78037
    endloop
  endfacet
  facet normal 0.637424 -0.770513 0
    outer loop
      vertex 15.2361 -16.0305 10.8042
      vertex 14.7023 -16.4721 10.9351
      vertex 15.4764 -15.8317 10.7091
    endloop
  endfacet
  facet normal 0.637424 -0.770513 0
    outer loop
      vertex 15.4764 -15.8317 10.7091
      vertex 14.7023 -16.4721 10.9351
      vertex 15.4764 -15.8317 8.78037
    endloop
  endfacet
  facet normal 0.637424 -0.770513 0
    outer loop
      vertex 14.7495 -16.4331 10.9291
      vertex 14.7023 -16.4721 10.9351
      vertex 15.2361 -16.0305 10.8042
    endloop
  endfacet
  facet normal 0.368125 2.06452e-16 0.929776
    outer loop
      vertex 15.2361 16.0358 10.8042
      vertex 15.2361 -16.0305 10.8042
      vertex 15.4764 -15.8317 10.7091
    endloop
  endfacet
  facet normal 0.368125 2.06452e-16 0.929776
    outer loop
      vertex 15.7031 15.5972 10.6193
      vertex 15.2361 16.0358 10.8042
      vertex 15.7031 -15.5903 10.6193
    endloop
  endfacet
  facet normal 0.368125 2.06452e-16 0.929776
    outer loop
      vertex 15.7031 -15.5903 10.6193
      vertex 15.2361 16.0358 10.8042
      vertex 15.4764 -15.8317 10.7091
    endloop
  endfacet
  facet normal 0.481753 1.94579e-16 0.876307
    outer loop
      vertex 15.7031 15.5972 10.6193
      vertex 15.7031 -15.5903 10.6193
      vertex 16.1433 -15.1215 10.3773
    endloop
  endfacet
  facet normal 0.481753 1.94579e-16 0.876307
    outer loop
      vertex 15.8317 15.4764 10.5486
      vertex 15.7031 15.5972 10.6193
      vertex 16.1433 15.0998 10.3773
    endloop
  endfacet
  facet normal 0.481753 1.94579e-16 0.876307
    outer loop
      vertex 16.1433 15.0998 10.3773
      vertex 15.7031 15.5972 10.6193
      vertex 16.1433 -15.1215 10.3773
    endloop
  endfacet
  facet normal 0.587785 1.79638e-16 0.809017
    outer loop
      vertex 16.1433 15.0998 10.3773
      vertex 16.1433 -15.1215 10.3773
      vertex 16.1641 -15.0994 10.3622
    endloop
  endfacet
  facet normal 0.587785 1.79638e-16 0.809017
    outer loop
      vertex 16.5497 14.5801 10.0821
      vertex 16.1433 15.0998 10.3773
      vertex 16.5497 -14.5687 10.0821
    endloop
  endfacet
  facet normal 0.587785 1.79638e-16 0.809017
    outer loop
      vertex 16.5497 -14.5687 10.0821
      vertex 16.1433 15.0998 10.3773
      vertex 16.1641 -15.0994 10.3622
    endloop
  endfacet
  facet normal 0.587785 1.79638e-16 0.809017
    outer loop
      vertex 16.4721 14.7023 10.1384
      vertex 16.1433 15.0998 10.3773
      vertex 16.5497 14.5801 10.0821
    endloop
  endfacet
  facet normal 0.684547 1.61864e-16 0.728969
    outer loop
      vertex 16.5497 14.5801 10.0821
      vertex 16.5497 -14.5687 10.0821
      vertex 16.7546 -14.2866 9.88961
    endloop
  endfacet
  facet normal 0.684547 1.61864e-16 0.728969
    outer loop
      vertex 16.9159 14.0031 9.73819
      vertex 16.5497 14.5801 10.0821
      vertex 16.9159 -13.9933 9.73819
    endloop
  endfacet
  facet normal 0.684547 1.61864e-16 0.728969
    outer loop
      vertex 16.9159 -13.9933 9.73819
      vertex 16.5497 14.5801 10.0821
      vertex 16.7546 -14.2866 9.88961
    endloop
  endfacet
  facet normal 0.770513 1.41537e-16 0.637424
    outer loop
      vertex 16.9159 14.0031 9.73819
      vertex 16.9159 -13.9933 9.73819
      vertex 17.2361 -13.4109 9.35114
    endloop
  endfacet
  facet normal 0.770513 1.41537e-16 0.637424
    outer loop
      vertex 17.0105 13.854 9.62386
      vertex 16.9159 14.0031 9.73819
      vertex 17.2361 13.3746 9.35114
    endloop
  endfacet
  facet normal 0.770513 1.41537e-16 0.637424
    outer loop
      vertex 17.2361 13.3746 9.35114
      vertex 16.9159 14.0031 9.73819
      vertex 17.2361 -13.4109 9.35114
    endloop
  endfacet
  facet normal 0.844328 1.18978e-16 0.535827
    outer loop
      vertex 17.2361 13.3746 9.35114
      vertex 17.2361 -13.4109 9.35114
      vertex 17.2386 -13.4062 9.34713
    endloop
  endfacet
  facet normal 0.844328 1.18978e-16 0.535827
    outer loop
      vertex 17.5052 12.7387 8.92701
      vertex 17.2361 13.3746 9.35114
      vertex 17.5052 -12.7329 8.92702
    endloop
  endfacet
  facet normal 0.844328 1.18978e-16 0.535827
    outer loop
      vertex 17.5052 -12.7329 8.92702
      vertex 17.2361 13.3746 9.35114
      vertex 17.2386 -13.4062 9.34713
    endloop
  endfacet
  facet normal 0.844328 1.18978e-16 0.535827
    outer loop
      vertex 17.4382 12.945 9.03261
      vertex 17.2361 13.3746 9.35114
      vertex 17.5052 12.7387 8.92701
    endloop
  endfacet
  facet normal 0.904827 9.45418e-17 0.425779
    outer loop
      vertex 17.5052 12.7387 8.92701
      vertex 17.5052 -12.7329 8.92702
      vertex 17.6085 -12.4721 8.70765
    endloop
  endfacet
  facet normal 0.904827 9.45418e-17 0.425779
    outer loop
      vertex 17.7191 12.0805 8.4725
      vertex 17.5052 12.7387 8.92701
      vertex 17.7191 -12.0412 8.4725
    endloop
  endfacet
  facet normal 0.904827 9.45418e-17 0.425779
    outer loop
      vertex 17.7191 -12.0412 8.4725
      vertex 17.5052 12.7387 8.92701
      vertex 17.6085 -12.4721 8.70765
    endloop
  endfacet
  facet normal 0.951056 6.86158e-17 0.309018
    outer loop
      vertex 17.7191 12.0805 8.4725
      vertex 17.7191 -12.0412 8.4725
      vertex 17.8583 -11.4991 8.04411
    endloop
  endfacet
  facet normal 0.951056 6.86158e-17 0.309018
    outer loop
      vertex 17.8743 11.3307 7.99476
      vertex 17.7191 12.0805 8.4725
      vertex 17.8743 -11.3721 7.99476
    endloop
  endfacet
  facet normal 0.951056 6.86158e-17 0.309018
    outer loop
      vertex 17.8743 -11.3721 7.99476
      vertex 17.7191 12.0805 8.4725
      vertex 17.8583 -11.4991 8.04411
    endloop
  endfacet
  facet normal 0.951056 6.86158e-17 0.309018
    outer loop
      vertex 17.7487 11.9895 8.38153
      vertex 17.7191 12.0805 8.4725
      vertex 17.8743 11.3307 7.99476
    endloop
  endfacet
  facet normal 0.982287 4.16069e-17 0.187381
    outer loop
      vertex 17.8743 11.3307 7.99476
      vertex 17.8743 -11.3721 7.99476
      vertex 17.9685 -10.627 7.50133
    endloop
  endfacet
  facet normal 0.982287 4.16069e-17 0.187381
    outer loop
      vertex 17.9369 11.0027 7.66668
      vertex 17.8743 11.3307 7.99476
      vertex 17.9685 10.5013 7.50133
    endloop
  endfacet
  facet normal 0.982287 4.16069e-17 0.187381
    outer loop
      vertex 17.9685 10.5013 7.50133
      vertex 17.8743 11.3307 7.99476
      vertex 17.9685 -10.627 7.50133
    endloop
  endfacet
  facet normal 0.998027 1.39422e-17 0.0627901
    outer loop
      vertex 17.9685 10.5013 7.50133
      vertex 17.9685 -10.627 7.50133
      vertex 17.9842 -10.5023 7.25091
    endloop
  endfacet
  facet normal 0.998027 1.39422e-17 0.0627901
    outer loop
      vertex 18 -10 7
      vertex 17.9685 10.5013 7.50133
      vertex 17.9842 -10 7.25091
    endloop
  endfacet
  facet normal 0.998027 1.39422e-17 0.0627901
    outer loop
      vertex 17.9842 -10 7.25091
      vertex 17.9685 10.5013 7.50133
      vertex 17.9842 -10.5023 7.25091
    endloop
  endfacet
  facet normal 0.998027 1.39422e-17 0.0627901
    outer loop
      vertex 18 10 7
      vertex 17.9685 10.5013 7.50133
      vertex 18 -10 7
    endloop
  endfacet
  facet normal 0.24869 2.15069e-16 0.968583
    outer loop
      vertex 14.7495 16.4183 10.9291
      vertex 14.7495 -16.4331 10.9291
      vertex 15.2361 -16.0305 10.8042
    endloop
  endfacet
  facet normal 0.24869 2.15069e-16 0.968583
    outer loop
      vertex 15.0994 16.1641 10.8393
      vertex 14.7495 16.4183 10.9291
      vertex 15.2361 16.0358 10.8042
    endloop
  endfacet
  facet normal 0.24869 2.15069e-16 0.968583
    outer loop
      vertex 15.2361 16.0358 10.8042
      vertex 14.7495 16.4183 10.9291
      vertex 15.2361 -16.0305 10.8042
    endloop
  endfacet
  facet normal 0.125333 2.20294e-16 0.992115
    outer loop
      vertex 14.2512 16.7741 10.9921
      vertex 14.2512 -16.7584 10.9921
      vertex 14.7023 -16.4721 10.9351
    endloop
  endfacet
  facet normal 0.125333 2.20294e-16 0.992115
    outer loop
      vertex 14.7495 16.4183 10.9291
      vertex 14.2512 16.7741 10.9921
      vertex 14.7495 -16.4331 10.9291
    endloop
  endfacet
  facet normal 0.125333 2.20294e-16 0.992115
    outer loop
      vertex 14.7495 -16.4331 10.9291
      vertex 14.2512 16.7741 10.9921
      vertex 14.7023 -16.4721 10.9351
    endloop
  endfacet
  facet normal 0.125333 2.20294e-16 0.992115
    outer loop
      vertex 14.2866 16.7546 10.9876
      vertex 14.2512 16.7741 10.9921
      vertex 14.7495 16.4183 10.9291
    endloop
  endfacet
  facet normal 0 2.22045e-16 1
    outer loop
      vertex 14 16.9122 10.9921
      vertex 14 -16.9178 10.9921
      vertex 14.2512 -16.7584 10.9921
    endloop
  endfacet
  facet normal 0 2.22045e-16 1
    outer loop
      vertex 14.2512 16.7741 10.9921
      vertex 14 16.9122 10.9921
      vertex 14.2512 -16.7584 10.9921
    endloop
  endfacet
  facet normal 1 0 0
    outer loop
      vertex 14 16.9122 10.9921
      vertex 14 16.9122 11
      vertex 14 -16.9178 11
    endloop
  endfacet
  facet normal 1 0 0
    outer loop
      vertex 14 -16.9178 10.9921
      vertex 14 16.9122 10.9921
      vertex 14 -16.9178 11
    endloop
  endfacet
  facet normal 0 0 1
    outer loop
      vertex 8.5 18 11
      vertex 8.5 9.3 11
      vertex 10.75 9.3 11
    endloop
  endfacet
  facet normal 0 0 1
    outer loop
      vertex 13.75 10.25 11
      vertex 8.5 18 11
      vertex 10.75 10.25 11
    endloop
  endfacet
  facet normal 0 0 1
    outer loop
      vertex 10.75 10.25 11
      vertex 8.5 18 11
      vertex 10.75 9.3 11
    endloop
  endfacet
  facet normal 0 0 1
    outer loop
      vertex 14 16.9122 11
      vertex 8.5 18 11
      vertex 13.75 10.25 11
    endloop
  endfacet
  facet normal 0 0 1
    outer loop
      vertex 13.854 -17.0105 11
      vertex 13.75 10.25 11
      vertex 13.75 -17.0594 11
    endloop
  endfacet
  facet normal 0 0 1
    outer loop
      vertex 14 -16.9178 11
      vertex 13.75 10.25 11
      vertex 13.854 -17.0105 11
    endloop
  endfacet
  facet normal 0 0 1
    outer loop
      vertex 14 16.9122 11
      vertex 13.75 10.25 11
      vertex 14 -16.9178 11
    endloop
  endfacet
  facet normal 0 0 1
    outer loop
      vertex 13.4062 17.2386 11
      vertex 8.5 18 11
      vertex 14 16.9122 11
    endloop
  endfacet
  facet normal 0 0 1
    outer loop
      vertex 12.4721 17.6085 11
      vertex 8.5 18 11
      vertex 13.4062 17.2386 11
    endloop
  endfacet
  facet normal 0 0 1
    outer loop
      vertex 11.4991 17.8583 11
      vertex 8.5 18 11
      vertex 12.4721 17.6085 11
    endloop
  endfacet
  facet normal 0 0 1
    outer loop
      vertex 10 17.9842 11
      vertex 8.5 18 11
      vertex 11.4991 17.8583 11
    endloop
  endfacet
  facet normal 0 0 1
    outer loop
      vertex 10.5023 17.9842 11
      vertex 10 17.9842 11
      vertex 11.4991 17.8583 11
    endloop
  endfacet
  facet normal 0 0 1
    outer loop
      vertex 10 17.9842 11
      vertex 10 18 11
      vertex 8.5 18 11
    endloop
  endfacet
  facet normal -1 0 0
    outer loop
      vertex 8.5 18 11
      vertex 8.5 18 7.1
      vertex 8.5 9.3 11
    endloop
  endfacet
  facet normal -1 0 0
    outer loop
      vertex 8.5 9.3 11
      vertex 8.5 18 7.1
      vertex 8.5 9.3 7.1
    endloop
  endfacet
  facet normal 0 0 1
    outer loop
      vertex 8.5 9.3 7.1
      vertex 8.5 18 7.1
      vertex -8.5 18 7.1
    endloop
  endfacet
  facet normal 0 0 1
    outer loop
      vertex -8.5 9.3 7.1
      vertex 8.5 9.3 7.1
      vertex -8.5 18 7.1
    endloop
  endfacet
  facet normal 1 0 0
    outer loop
      vertex -8.5 18 7.1
      vertex -8.5 18 11
      vertex -8.5 9.3 11
    endloop
  endfacet
  facet normal 1 0 0
    outer loop
      vertex -8.5 9.3 7.1
      vertex -8.5 18 7.1
      vertex -8.5 9.3 11
    endloop
  endfacet
  facet normal 0 0 1
    outer loop
      vertex -14 16.9178 11
      vertex -14 -16.9122 11
      vertex -13.75 -17.0496 11
    endloop
  endfacet
  facet normal 0 0 1
    outer loop
      vertex -10.75 10.25 11
      vertex -14 16.9178 11
      vertex -13.75 10.25 11
    endloop
  endfacet
  facet normal 0 0 1
    outer loop
      vertex -13.75 10.25 11
      vertex -14 16.9178 11
      vertex -13.75 -17.0496 11
    endloop
  endfacet
  facet normal 0 0 1
    outer loop
      vertex -8.5 9.3 11
      vertex -14 16.9178 11
      vertex -10.75 10.25 11
    endloop
  endfacet
  facet normal 0 0 1
    outer loop
      vertex -8.5 9.3 11
      vertex -10.75 10.25 11
      vertex -10.75 9.3 11
    endloop
  endfacet
  facet normal 0 0 1
    outer loop
      vertex -8.5 18 11
      vertex -14 16.9178 11
      vertex -8.5 9.3 11
    endloop
  endfacet
  facet normal 0 0 1
    outer loop
      vertex -10 18 11
      vertex -14 16.9178 11
      vertex -8.5 18 11
    endloop
  endfacet
  facet normal 0 0 1
    outer loop
      vertex -11.9895 17.7487 11
      vertex -14 16.9178 11
      vertex -11.0027 17.9369 11
    endloop
  endfacet
  facet normal 0 0 1
    outer loop
      vertex -12.945 17.4382 11
      vertex -14 16.9178 11
      vertex -11.9895 17.7487 11
    endloop
  endfacet
  facet normal 0 0 1
    outer loop
      vertex -13.854 17.0105 11
      vertex -14 16.9178 11
      vertex -12.945 17.4382 11
    endloop
  endfacet
  facet normal 0 0 1
    outer loop
      vertex -10 18 11
      vertex -11.0027 17.9369 11
      vertex -14 16.9178 11
    endloop
  endfacet
  facet normal -0.0627901 1.39422e-17 0.998027
    outer loop
      vertex -14.5013 16.5997 10.9685
      vertex -14.5013 -16.5986 10.9685
      vertex -14.2866 -16.7546 10.982
    endloop
  endfacet
  facet normal -0.0627901 1.39422e-17 0.998027
    outer loop
      vertex -14 16.9178 11
      vertex -14.5013 16.5997 10.9685
      vertex -14 -16.9122 11
    endloop
  endfacet
  facet normal -0.0627901 1.39422e-17 0.998027
    outer loop
      vertex -14 -16.9122 11
      vertex -14.5013 16.5997 10.9685
      vertex -14.2866 -16.7546 10.982
    endloop
  endfacet
  facet normal -0.187381 4.16069e-17 0.982287
    outer loop
      vertex -14.9948 16.2302 10.8743
      vertex -14.9948 -16.2401 10.8743
      vertex -14.5013 -16.5986 10.9685
    endloop
  endfacet
  facet normal -0.187381 4.16069e-17 0.982287
    outer loop
      vertex -14.7023 16.4721 10.9301
      vertex -14.9948 16.2302 10.8743
      vertex -14.5013 16.5997 10.9685
    endloop
  endfacet
  facet normal -0.187381 4.16069e-17 0.982287
    outer loop
      vertex -14.5013 16.5997 10.9685
      vertex -14.9948 16.2302 10.8743
      vertex -14.5013 -16.5986 10.9685
    endloop
  endfacet
  facet normal 0 0 1
    outer loop
      vertex -4.5 4.5 4
      vertex 10.3 9.3 4
      vertex -10.3 9.3 4
    endloop
  endfacet
  facet normal 0 0 1
    outer loop
      vertex 4.5 -4.5 4
      vertex -4.5 -4.5 4
      vertex 10.3 -15.3 4
    endloop
  endfacet
  facet normal 0 0 1
    outer loop
      vertex 4.5 4.5 4
      vertex 10.3 9.3 4
      vertex -4.5 4.5 4
    endloop
  endfacet
  facet normal 0 0 1
    outer loop
      vertex 10.3 -15.3 4
      vertex 10.3 9.3 4
      vertex 4.5 4.5 4
    endloop
  endfacet
  facet normal 0 0 1
    outer loop
      vertex 10.3 -15.3 4
      vertex 4.5 4.5 4
      vertex 4.5 -4.5 4
    endloop
  endfacet
  facet normal 0 0 1
    outer loop
      vertex -10.3 -15.3 4
      vertex -4.5 -4.5 4
      vertex -10.3 9.3 4
    endloop
  endfacet
  facet normal 0 0 1
    outer loop
      vertex -10.3 -15.3 4
      vertex 10.3 -15.3 4
      vertex -4.5 -4.5 4
    endloop
  endfacet
  facet normal 0 0 1
    outer loop
      vertex -4.5 -4.5 4
      vertex -4.5 4.5 4
      vertex -10.3 9.3 4
    endloop
  endfacet
  facet normal -0.481754 -0.876307 0
    outer loop
      vertex -14.2866 -16.7546 10.982
      vertex -14.2866 -16.7546 10.3101
      vertex -13.75 -17.0496 11
    endloop
  endfacet
  facet normal -0.481754 -0.876307 0
    outer loop
      vertex -14 -16.9122 11
      vertex -14.2866 -16.7546 10.982
      vertex -13.75 -17.0496 11
    endloop
  endfacet
  facet normal 0 -1 0
    outer loop
      vertex -10.75 10.25 8.75
      vertex -10.75 10.25 11
      vertex -13.75 10.25 11
    endloop
  endfacet
  facet normal 0 -1 0
    outer loop
      vertex -15.5 10.25 8.75
      vertex -10.75 10.25 8.75
      vertex -13.75 10.25 11
    endloop
  endfacet
  facet normal -1 0 0
    outer loop
      vertex -10.75 9.3 8.75
      vertex -10.75 9.3 11
      vertex -10.75 10.25 8.75
    endloop
  endfacet
  facet normal -1 0 0
    outer loop
      vertex -10.75 10.25 8.75
      vertex -10.75 9.3 11
      vertex -10.75 10.25 11
    endloop
  endfacet
  facet normal 0 -1 0
    outer loop
      vertex -10.3 9.3 6
      vertex -10.3 9.3 4
      vertex 10.3 9.3 4
    endloop
  endfacet
  facet normal 0 -1 0
    outer loop
      vertex 8.5 9.3 7.1
      vertex -10.3 9.3 6
      vertex 10.3 9.3 6
    endloop
  endfacet
  facet normal 0 -1 0
    outer loop
      vertex 10.3 9.3 6
      vertex -10.3 9.3 6
      vertex 10.3 9.3 4
    endloop
  endfacet
  facet normal 0 -1 0
    outer loop
      vertex 12.8 9.3 8.75
      vertex 10.3 9.3 6
      vertex 12.8 9.3 6
    endloop
  endfacet
  facet normal 0 -1 0
    outer loop
      vertex 8.5 9.3 7.1
      vertex -8.5 9.3 7.1
      vertex -10.3 9.3 6
    endloop
  endfacet
  facet normal 0 -1 0
    outer loop
      vertex 12.8 9.3 8.75
      vertex 8.5 9.3 7.1
      vertex 10.3 9.3 6
    endloop
  endfacet
  facet normal 0 -1 0
    outer loop
      vertex -8.5 9.3 11
      vertex -10.3 9.3 6
      vertex -8.5 9.3 7.1
    endloop
  endfacet
  facet normal 0 -1 0
    outer loop
      vertex -10.75 9.3 11
      vertex -10.3 9.3 6
      vertex -8.5 9.3 11
    endloop
  endfacet
  facet normal 0 -1 0
    outer loop
      vertex 8.5 9.3 11
      vertex 10.75 9.3 8.75
      vertex 10.75 9.3 11
    endloop
  endfacet
  facet normal 0 -1 0
    outer loop
      vertex 10.75 9.3 8.75
      vertex 8.5 9.3 7.1
      vertex 12.8 9.3 8.75
    endloop
  endfacet
  facet normal 0 -1 0
    outer loop
      vertex 8.5 9.3 11
      vertex 8.5 9.3 7.1
      vertex 10.75 9.3 8.75
    endloop
  endfacet
  facet normal 0 -1 0
    outer loop
      vertex -12.8 9.3 6
      vertex -10.75 9.3 8.75
      vertex -12.8 9.3 8.75
    endloop
  endfacet
  facet normal 0 -1 0
    outer loop
      vertex -10.75 9.3 8.75
      vertex -10.3 9.3 6
      vertex -10.75 9.3 11
    endloop
  endfacet
  facet normal 0 -1 0
    outer loop
      vertex -12.8 9.3 6
      vertex -10.3 9.3 6
      vertex -10.75 9.3 8.75
    endloop
  endfacet
  facet normal 1 0 0
    outer loop
      vertex -12.8 9.3 6
      vertex -12.8 9.3 8.75
      vertex -12.8 -15.3 8.75
    endloop
  endfacet
  facet normal 1 0 0
    outer loop
      vertex -12.8 -15.3 6
      vertex -12.8 9.3 6
      vertex -12.8 -15.3 8.75
    endloop
  endfacet
  facet normal 0 1 0
    outer loop
      vertex 12.8 -15.3 8.75
      vertex 12.8 -15.3 6
      vertex -12.8 -15.3 8.75
    endloop
  endfacet
  facet normal 0 1 0
    outer loop
      vertex -12.8 -15.3 8.75
      vertex 12.8 -15.3 6
      vertex 10.3 -15.3 6
    endloop
  endfacet
  facet normal 0 1 0
    outer loop
      vertex -12.8 -15.3 8.75
      vertex 10.3 -15.3 6
      vertex 10.3 -15.3 4
    endloop
  endfacet
  facet normal 0 1 0
    outer loop
      vertex -10.3 -15.3 6
      vertex 10.3 -15.3 4
      vertex -10.3 -15.3 4
    endloop
  endfacet
  facet normal 0 1 0
    outer loop
      vertex -12.8 -15.3 8.75
      vertex 10.3 -15.3 4
      vertex -10.3 -15.3 6
    endloop
  endfacet
  facet normal 0 1 0
    outer loop
      vertex -12.8 -15.3 6
      vertex -12.8 -15.3 8.75
      vertex -10.3 -15.3 6
    endloop
  endfacet
  facet normal -1 0 0
    outer loop
      vertex 12.8 9.3 8.75
      vertex 12.8 9.3 6
      vertex 12.8 -15.3 8.75
    endloop
  endfacet
  facet normal -1 0 0
    outer loop
      vertex 12.8 -15.3 8.75
      vertex 12.8 9.3 6
      vertex 12.8 -15.3 6
    endloop
  endfacet
  facet normal 1 0 0
    outer loop
      vertex 10.75 9.3 11
      vertex 10.75 9.3 8.75
      vertex 10.75 10.25 8.75
    endloop
  endfacet
  facet normal 1 0 0
    outer loop
      vertex 10.75 10.25 11
      vertex 10.75 9.3 11
      vertex 10.75 10.25 8.75
    endloop
  endfacet
  facet normal 0 -1 0
    outer loop
      vertex 15.5 10.25 8.75
      vertex 13.75 10.25 11
      vertex 10.75 10.25 11
    endloop
  endfacet
  facet normal 0 -1 0
    outer loop
      vertex 10.75 10.25 8.75
      vertex 15.5 10.25 8.75
      vertex 10.75 10.25 11
    endloop
  endfacet
  facet normal 0.42578 -0.904827 0
    outer loop
      vertex 13.854 -17.0105 11
      vertex 13.75 -17.0594 11
      vertex 13.854 -17.0105 10.8662
    endloop
  endfacet
  facet normal 0.535826 -0.844328 0
    outer loop
      vertex 13.854 -17.0105 11
      vertex 13.854 -17.0105 10.8662
      vertex 14.7023 -16.4721 9.77564
    endloop
  endfacet
  facet normal 0.535826 -0.844328 0
    outer loop
      vertex 14 -16.9178 10.9921
      vertex 13.854 -17.0105 11
      vertex 14.7023 -16.4721 10.9351
    endloop
  endfacet
  facet normal 0.535826 -0.844328 0
    outer loop
      vertex 14.7023 -16.4721 10.9351
      vertex 13.854 -17.0105 11
      vertex 14.7023 -16.4721 9.77564
    endloop
  endfacet
  facet normal 0.535826 -0.844328 0
    outer loop
      vertex 14.2512 -16.7584 10.9921
      vertex 14 -16.9178 10.9921
      vertex 14.7023 -16.4721 10.9351
    endloop
  endfacet
  facet normal 0.535826 -0.844328 0
    outer loop
      vertex 14 -16.9178 10.9921
      vertex 14 -16.9178 11
      vertex 13.854 -17.0105 11
    endloop
  endfacet
  facet normal -1 0 0
    outer loop
      vertex 10.3 9.3 6
      vertex 10.3 9.3 4
      vertex 10.3 -15.3 6
    endloop
  endfacet
  facet normal -1 0 0
    outer loop
      vertex 10.3 -15.3 6
      vertex 10.3 9.3 4
      vertex 10.3 -15.3 4
    endloop
  endfacet
  facet normal 1 0 0
    outer loop
      vertex -10.3 9.3 4
      vertex -10.3 9.3 6
      vertex -10.3 -15.3 6
    endloop
  endfacet
  facet normal 1 0 0
    outer loop
      vertex -10.3 -15.3 4
      vertex -10.3 9.3 4
      vertex -10.3 -15.3 6
    endloop
  endfacet
  facet normal 0 0 1
    outer loop
      vertex -10.3 -15.3 6
      vertex -10.3 9.3 6
      vertex -12.8 9.3 6
    endloop
  endfacet
  facet normal 0 0 1
    outer loop
      vertex -12.8 -15.3 6
      vertex -10.3 -15.3 6
      vertex -12.8 9.3 6
    endloop
  endfacet
  facet normal 0 0 1
    outer loop
      vertex 12.8 -15.3 6
      vertex 12.8 9.3 6
      vertex 10.3 9.3 6
    endloop
  endfacet
  facet normal 0 0 1
    outer loop
      vertex 10.3 -15.3 6
      vertex 12.8 -15.3 6
      vertex 10.3 9.3 6
    endloop
  endfacet
  facet normal -0.8 0 0.6
    outer loop
      vertex 22.5 -13.1871 2
      vertex 22.5 14 2
      vertex 21.7134 -12.7546 0.951181
    endloop
  endfacet
  facet normal -0.8 0 0.6
    outer loop
      vertex 21.7134 -12.7546 0.951181
      vertex 22.5 14 2
      vertex 21 14 0
    endloop
  endfacet
  facet normal -0.8 0 0.6
    outer loop
      vertex 21.7134 -12.7546 0.951181
      vertex 21 14 0
      vertex 21 -12.2363 0
    endloop
  endfacet
  facet normal -0.587785 -0.809017 0
    outer loop
      vertex 21.7134 -12.7546 0.951181
      vertex 21 -12.2363 0
      vertex 21.7134 -12.7546 0
    endloop
  endfacet
  facet normal 0 0 -1
    outer loop
      vertex 21 -12.2363 0
      vertex 21 14 0
      vertex 21.7134 -12.7546 0
    endloop
  endfacet
  facet normal 0 0 -1
    outer loop
      vertex 21.7134 -12.7546 0
      vertex 21 14 0
      vertex 25 14 0
    endloop
  endfacet
  facet normal 0 0 -1
    outer loop
      vertex 21.7134 -12.7546 0
      vertex 25 14 0
      vertex 25 6.5 0
    endloop
  endfacet
  facet normal 0 0 -1
    outer loop
      vertex 21.7134 -12.7546 0
      vertex 25 6.5 0
      vertex 47 6.5 0
    endloop
  endfacet
  facet normal 0 0 -1
    outer loop
      vertex 47 6.5 0
      vertex 47 14 0
      vertex 51 14 0
    endloop
  endfacet
  facet normal 0 0 -1
    outer loop
      vertex 47 6.5 0
      vertex 51 14 0
      vertex 51 -12.2258 0
    endloop
  endfacet
  facet normal 0 0 -1
    outer loop
      vertex 47 6.5 0
      vertex 51 -12.2258 0
      vertex 21.7134 -12.7546 0
    endloop
  endfacet
  facet normal 0 0 -1
    outer loop
      vertex 21.7134 -12.7546 0
      vertex 51 -12.2258 0
      vertex 50.7023 -12.4721 0
    endloop
  endfacet
  facet normal 0 0 -1
    outer loop
      vertex 21.7134 -12.7546 0
      vertex 50.7023 -12.4721 0
      vertex 49.854 -13.0105 0
    endloop
  endfacet
  facet normal 0 0 -1
    outer loop
      vertex 21.7134 -12.7546 0
      vertex 49.854 -13.0105 0
      vertex 48.945 -13.4382 0
    endloop
  endfacet
  facet normal 0 0 -1
    outer loop
      vertex 21.7134 -12.7546 0
      vertex 48.945 -13.4382 0
      vertex 47.9895 -13.7487 0
    endloop
  endfacet
  facet normal 0 0 -1
    outer loop
      vertex 21.7134 -12.7546 0
      vertex 47.9895 -13.7487 0
      vertex 47.0027 -13.9369 0
    endloop
  endfacet
  facet normal 0 0 -1
    outer loop
      vertex 21.7134 -12.7546 0
      vertex 47.0027 -13.9369 0
      vertex 46 -14 0
    endloop
  endfacet
  facet normal 0 0 -1
    outer loop
      vertex 26 -13.9842 0
      vertex 46 -14 0
      vertex 26 -14 0
    endloop
  endfacet
  facet normal 0 0 -1
    outer loop
      vertex 21.7134 -12.7546 0
      vertex 46 -14 0
      vertex 26 -13.9842 0
    endloop
  endfacet
  facet normal 0 0 -1
    outer loop
      vertex 21.7134 -12.7546 0
      vertex 25.4977 -13.9842 0
      vertex 24.5009 -13.8583 0
    endloop
  endfacet
  facet normal 0 0 -1
    outer loop
      vertex 21.7134 -12.7546 0
      vertex 24.5009 -13.8583 0
      vertex 23.5279 -13.6085 0
    endloop
  endfacet
  facet normal 0 0 -1
    outer loop
      vertex 21.7134 -12.7546 0
      vertex 23.5279 -13.6085 0
      vertex 22.5938 -13.2386 0
    endloop
  endfacet
  facet normal 0 0 -1
    outer loop
      vertex 25.4977 -13.9842 0
      vertex 21.7134 -12.7546 0
      vertex 26 -13.9842 0
    endloop
  endfacet
  facet normal -0.481754 -0.876307 0
    outer loop
      vertex 21.7134 -12.7546 0.951181
      vertex 21.7134 -12.7546 0
      vertex 22.5938 -13.2386 0
    endloop
  endfacet
  facet normal -0.481754 -0.876307 0
    outer loop
      vertex 22.5 -13.1871 2
      vertex 21.7134 -12.7546 0.951181
      vertex 22.5938 -13.2386 2
    endloop
  endfacet
  facet normal -0.481754 -0.876307 0
    outer loop
      vertex 22.5938 -13.2386 2
      vertex 21.7134 -12.7546 0.951181
      vertex 22.5938 -13.2386 0
    endloop
  endfacet
  facet normal 0 1 0
    outer loop
      vertex 21 14 0
      vertex 22.5 14 2
      vertex 25 14 0
    endloop
  endfacet
  facet normal 0 1 0
    outer loop
      vertex 25 14 0
      vertex 22.5 14 2
      vertex 25 14 2
    endloop
  endfacet
  facet normal 0 0 1
    outer loop
      vertex 22.5 14 2
      vertex 22.5 -13.1871 2
      vertex 22.5938 -13.2386 2
    endloop
  endfacet
  facet normal 0 0 1
    outer loop
      vertex 24.5009 -13.8583 2
      vertex 22.5 14 2
      vertex 23.5279 -13.6085 2
    endloop
  endfacet
  facet normal 0 0 1
    outer loop
      vertex 23.5279 -13.6085 2
      vertex 22.5 14 2
      vertex 22.5938 -13.2386 2
    endloop
  endfacet
  facet normal 0 0 1
    outer loop
      vertex 24.5 -11.8537 2
      vertex 22.5 14 2
      vertex 24.5009 -13.8583 2
    endloop
  endfacet
  facet normal 0 0 1
    outer loop
      vertex 24.5 -10.1463 2
      vertex 47 6.5 2
      vertex 25 6.5 2
    endloop
  endfacet
  facet normal 0 0 1
    outer loop
      vertex 24.5 -10.1463 2
      vertex 47.5 -10.1463 2
      vertex 47 6.5 2
    endloop
  endfacet
  facet normal 0 0 1
    outer loop
      vertex 46 -14 2
      vertex 26 -13.9842 2
      vertex 26 -14 2
    endloop
  endfacet
  facet normal 0 0 1
    outer loop
      vertex 25 6.5 2
      vertex 25 14 2
      vertex 22.5 14 2
    endloop
  endfacet
  facet normal 0 0 1
    outer loop
      vertex 47.5 -11.8537 2
      vertex 46 -14 2
      vertex 47.0027 -13.9369 2
    endloop
  endfacet
  facet normal 0 0 1
    outer loop
      vertex 47.5 -11.8537 2
      vertex 25.4977 -13.9842 2
      vertex 26 -13.9842 2
    endloop
  endfacet
  facet normal 0 0 1
    outer loop
      vertex 49.5 14 2
      vertex 47 14 2
      vertex 49.5 -13.177 2
    endloop
  endfacet
  facet normal 0 0 1
    outer loop
      vertex 47 14 2
      vertex 47 6.5 2
      vertex 49.5 -13.177 2
    endloop
  endfacet
  facet normal 0 0 1
    outer loop
      vertex 24.5 -10.1463 2
      vertex 25 6.5 2
      vertex 22.5 14 2
    endloop
  endfacet
  facet normal 0 0 1
    outer loop
      vertex 25.4977 -13.9842 2
      vertex 24.5 -11.8537 2
      vertex 24.5009 -13.8583 2
    endloop
  endfacet
  facet normal 0 0 1
    outer loop
      vertex 24.5 -10.1463 2
      vertex 22.5 14 2
      vertex 24.5 -11.8537 2
    endloop
  endfacet
  facet normal 0 0 1
    outer loop
      vertex 47 6.5 2
      vertex 47.5 -10.1463 2
      vertex 49.5 -13.177 2
    endloop
  endfacet
  facet normal 0 0 1
    outer loop
      vertex 47.5 -11.8537 2
      vertex 24.5 -11.8537 2
      vertex 25.4977 -13.9842 2
    endloop
  endfacet
  facet normal 0 0 1
    outer loop
      vertex 49.5 -13.177 2
      vertex 47.5 -11.8537 2
      vertex 48.945 -13.4382 2
    endloop
  endfacet
  facet normal 0 0 1
    outer loop
      vertex 47.5 -11.8537 2
      vertex 26 -13.9842 2
      vertex 46 -14 2
    endloop
  endfacet
  facet normal 0 0 1
    outer loop
      vertex 47.5 -10.1463 2
      vertex 47.5 -11.8537 2
      vertex 49.5 -13.177 2
    endloop
  endfacet
  facet normal 0 0 1
    outer loop
      vertex 47.5 -11.8537 2
      vertex 47.9895 -13.7487 2
      vertex 48.945 -13.4382 2
    endloop
  endfacet
  facet normal 0 0 1
    outer loop
      vertex 47.5 -11.8537 2
      vertex 47.0027 -13.9369 2
      vertex 47.9895 -13.7487 2
    endloop
  endfacet
  facet normal -0.368125 -0.929776 0
    outer loop
      vertex 22.5938 -13.2386 2
      vertex 22.5938 -13.2386 0
      vertex 23.5279 -13.6085 0
    endloop
  endfacet
  facet normal -0.368125 -0.929776 0
    outer loop
      vertex 23.5279 -13.6085 2
      vertex 22.5938 -13.2386 2
      vertex 23.5279 -13.6085 0
    endloop
  endfacet
  facet normal -0.24869 -0.968583 0
    outer loop
      vertex 23.5279 -13.6085 2
      vertex 23.5279 -13.6085 0
      vertex 24.5009 -13.8583 0
    endloop
  endfacet
  facet normal -0.24869 -0.968583 0
    outer loop
      vertex 24.5009 -13.8583 2
      vertex 23.5279 -13.6085 2
      vertex 24.5009 -13.8583 0
    endloop
  endfacet
  facet normal -0.125333 -0.992115 0
    outer loop
      vertex 24.5009 -13.8583 2
      vertex 24.5009 -13.8583 0
      vertex 25.4977 -13.9842 0
    endloop
  endfacet
  facet normal -0.125333 -0.992115 0
    outer loop
      vertex 25.4977 -13.9842 2
      vertex 24.5009 -13.8583 2
      vertex 25.4977 -13.9842 0
    endloop
  endfacet
  facet normal -1.22465e-16 -1 0
    outer loop
      vertex 25.4977 -13.9842 2
      vertex 25.4977 -13.9842 0
      vertex 26 -13.9842 0
    endloop
  endfacet
  facet normal -1.22465e-16 -1 0
    outer loop
      vertex 26 -13.9842 2
      vertex 25.4977 -13.9842 2
      vertex 26 -13.9842 0
    endloop
  endfacet
  facet normal -1 1.22465e-16 0
    outer loop
      vertex 26 -13.9842 2
      vertex 26 -13.9842 0
      vertex 26 -14 2
    endloop
  endfacet
  facet normal -1 1.22465e-16 0
    outer loop
      vertex 26 -14 2
      vertex 26 -13.9842 0
      vertex 26 -14 0
    endloop
  endfacet
  facet normal 0 -1 0
    outer loop
      vertex 26 -14 2
      vertex 26 -14 0
      vertex 46 -14 0
    endloop
  endfacet
  facet normal 0 -1 0
    outer loop
      vertex 46 -14 2
      vertex 26 -14 2
      vertex 46 -14 0
    endloop
  endfacet
  facet normal 0.0627901 -0.998027 0
    outer loop
      vertex 46 -14 2
      vertex 46 -14 0
      vertex 47.0027 -13.9369 0
    endloop
  endfacet
  facet normal 0.0627901 -0.998027 0
    outer loop
      vertex 47.0027 -13.9369 2
      vertex 46 -14 2
      vertex 47.0027 -13.9369 0
    endloop
  endfacet
  facet normal 0.187382 -0.982287 0
    outer loop
      vertex 47.0027 -13.9369 2
      vertex 47.0027 -13.9369 0
      vertex 47.9895 -13.7487 0
    endloop
  endfacet
  facet normal 0.187382 -0.982287 0
    outer loop
      vertex 47.9895 -13.7487 2
      vertex 47.0027 -13.9369 2
      vertex 47.9895 -13.7487 0
    endloop
  endfacet
  facet normal 0.309017 -0.951057 0
    outer loop
      vertex 47.9895 -13.7487 2
      vertex 47.9895 -13.7487 0
      vertex 48.945 -13.4382 0
    endloop
  endfacet
  facet normal 0.309017 -0.951057 0
    outer loop
      vertex 48.945 -13.4382 2
      vertex 47.9895 -13.7487 2
      vertex 48.945 -13.4382 0
    endloop
  endfacet
  facet normal 0.42578 -0.904827 0
    outer loop
      vertex 48.945 -13.4382 2
      vertex 48.945 -13.4382 0
      vertex 49.854 -13.0105 0
    endloop
  endfacet
  facet normal 0.42578 -0.904827 0
    outer loop
      vertex 49.5 -13.177 2
      vertex 48.945 -13.4382 2
      vertex 49.854 -13.0105 1.52796
    endloop
  endfacet
  facet normal 0.42578 -0.904827 0
    outer loop
      vertex 49.854 -13.0105 1.52796
      vertex 48.945 -13.4382 2
      vertex 49.854 -13.0105 0
    endloop
  endfacet
  facet normal 0.535826 -0.844328 0
    outer loop
      vertex 49.854 -13.0105 1.52796
      vertex 49.854 -13.0105 0
      vertex 50.7023 -12.4721 0
    endloop
  endfacet
  facet normal 0.535826 -0.844328 0
    outer loop
      vertex 50.7023 -12.4721 0.396957
      vertex 49.854 -13.0105 1.52796
      vertex 50.7023 -12.4721 0
    endloop
  endfacet
  facet normal 0.637424 -0.770513 0
    outer loop
      vertex 50.7023 -12.4721 0.396957
      vertex 50.7023 -12.4721 0
      vertex 51 -12.2258 0
    endloop
  endfacet
  facet normal 0.8 0 0.6
    outer loop
      vertex 49.5 14 2
      vertex 49.5 -13.177 2
      vertex 49.854 -13.0105 1.52796
    endloop
  endfacet
  facet normal 0.8 0 0.6
    outer loop
      vertex 51 -12.2258 0
      vertex 49.5 14 2
      vertex 50.7023 -12.4721 0.396957
    endloop
  endfacet
  facet normal 0.8 0 0.6
    outer loop
      vertex 50.7023 -12.4721 0.396957
      vertex 49.5 14 2
      vertex 49.854 -13.0105 1.52796
    endloop
  endfacet
  facet normal 0.8 0 0.6
    outer loop
      vertex 51 14 0
      vertex 49.5 14 2
      vertex 51 -12.2258 0
    endloop
  endfacet
  facet normal 0 1 0
    outer loop
      vertex 47 14 0
      vertex 47 14 2
      vertex 51 14 0
    endloop
  endfacet
  facet normal 0 1 0
    outer loop
      vertex 51 14 0
      vertex 47 14 2
      vertex 49.5 14 2
    endloop
  endfacet
  facet normal -1 0 0
    outer loop
      vertex 47 14 2
      vertex 47 14 0
      vertex 47 6.5 2
    endloop
  endfacet
  facet normal -1 0 0
    outer loop
      vertex 47 6.5 2
      vertex 47 14 0
      vertex 47 6.5 0
    endloop
  endfacet
  facet normal 0 1 0
    outer loop
      vertex 47 6.5 2
      vertex 47 6.5 0
      vertex 25 6.5 2
    endloop
  endfacet
  facet normal 0 1 0
    outer loop
      vertex 25 6.5 2
      vertex 47 6.5 0
      vertex 25 6.5 0
    endloop
  endfacet
  facet normal 1 0 0
    outer loop
      vertex 25 14 0
      vertex 25 14 2
      vertex 25 6.5 2
    endloop
  endfacet
  facet normal 1 0 0
    outer loop
      vertex 25 6.5 0
      vertex 25 14 0
      vertex 25 6.5 2
    endloop
  endfacet
  facet normal 1 0 2.22045e-16
    outer loop
      vertex 24.5 -11.809 1.91221
      vertex 24.5 -11.5878 1.69098
      vertex 24.5 -11.309 1.54894
    endloop
  endfacet
  facet normal 1 0 2.22045e-16
    outer loop
      vertex 24.5 -10.691 1.54894
      vertex 24.5 -11.809 1.91221
      vertex 24.5 -11 1.5
    endloop
  endfacet
  facet normal 1 0 2.22045e-16
    outer loop
      vertex 24.5 -11 1.5
      vertex 24.5 -11.809 1.91221
      vertex 24.5 -11.309 1.54894
    endloop
  endfacet
  facet normal 1 0 2.22045e-16
    outer loop
      vertex 24.5 -10.4122 1.69098
      vertex 24.5 -11.809 1.91221
      vertex 24.5 -10.691 1.54894
    endloop
  endfacet
  facet normal 1 0 2.22045e-16
    outer loop
      vertex 24.5 -10.191 1.91221
      vertex 24.5 -11.809 1.91221
      vertex 24.5 -10.4122 1.69098
    endloop
  endfacet
  facet normal 1 0 2.22045e-16
    outer loop
      vertex 24.5 -10.1463 2
      vertex 24.5 -11.809 1.91221
      vertex 24.5 -10.191 1.91221
    endloop
  endfacet
  facet normal 1 0 2.22045e-16
    outer loop
      vertex 24.5 -11.8537 2
      vertex 24.5 -11.809 1.91221
      vertex 24.5 -10.1463 2
    endloop
  endfacet
  facet normal -1.00806e-16 0.891006 0.453992
    outer loop
      vertex 47.5 -11.809 1.91222
      vertex 24.5 -11.809 1.91221
      vertex 47.5 -11.8537 2
    endloop
  endfacet
  facet normal -1.00806e-16 0.891006 0.453992
    outer loop
      vertex 47.5 -11.8537 2
      vertex 24.5 -11.809 1.91221
      vertex 24.5 -11.8537 2
    endloop
  endfacet
  facet normal -1 0 -2.22045e-16
    outer loop
      vertex 47.5 -10.191 1.91222
      vertex 47.5 -10.4122 1.69098
      vertex 47.5 -10.1463 2
    endloop
  endfacet
  facet normal -1 0 -2.22045e-16
    outer loop
      vertex 47.5 -10.1463 2
      vertex 47.5 -10.4122 1.69098
      vertex 47.5 -10.691 1.54894
    endloop
  endfacet
  facet normal -1 0 -2.22045e-16
    outer loop
      vertex 47.5 -10.1463 2
      vertex 47.5 -10.691 1.54894
      vertex 47.5 -11 1.5
    endloop
  endfacet
  facet normal -1 0 -2.22045e-16
    outer loop
      vertex 47.5 -10.1463 2
      vertex 47.5 -11 1.5
      vertex 47.5 -11.309 1.54894
    endloop
  endfacet
  facet normal -1 0 -2.22045e-16
    outer loop
      vertex 47.5 -10.1463 2
      vertex 47.5 -11.309 1.54894
      vertex 47.5 -11.5878 1.69098
    endloop
  endfacet
  facet normal -1 0 -2.22045e-16
    outer loop
      vertex 47.5 -10.1463 2
      vertex 47.5 -11.5878 1.69098
      vertex 47.5 -11.809 1.91222
    endloop
  endfacet
  facet normal -1 0 -2.22045e-16
    outer loop
      vertex 47.5 -10.1463 2
      vertex 47.5 -11.809 1.91222
      vertex 47.5 -11.8537 2
    endloop
  endfacet
  facet normal -1.00806e-16 -0.891006 0.453992
    outer loop
      vertex 24.5 -10.191 1.91221
      vertex 47.5 -10.191 1.91222
      vertex 47.5 -10.1463 2
    endloop
  endfacet
  facet normal -1.00806e-16 -0.891006 0.453992
    outer loop
      vertex 24.5 -10.1463 2
      vertex 24.5 -10.191 1.91221
      vertex 47.5 -10.1463 2
    endloop
  endfacet
  facet normal -1.57009e-16 0.707107 0.707107
    outer loop
      vertex 47.5 -11.5878 1.69098
      vertex 24.5 -11.5878 1.69098
      vertex 47.5 -11.809 1.91222
    endloop
  endfacet
  facet normal -1.57009e-16 0.707107 0.707107
    outer loop
      vertex 47.5 -11.809 1.91222
      vertex 24.5 -11.5878 1.69098
      vertex 24.5 -11.809 1.91221
    endloop
  endfacet
  facet normal -1.57009e-16 -0.707107 0.707107
    outer loop
      vertex 24.5 -10.4122 1.69098
      vertex 47.5 -10.4122 1.69098
      vertex 47.5 -10.191 1.91222
    endloop
  endfacet
  facet normal -1.57009e-16 -0.707107 0.707107
    outer loop
      vertex 24.5 -10.191 1.91221
      vertex 24.5 -10.4122 1.69098
      vertex 47.5 -10.191 1.91222
    endloop
  endfacet
  facet normal -1.97843e-16 -0.453992 0.891006
    outer loop
      vertex 24.5 -10.691 1.54894
      vertex 47.5 -10.691 1.54894
      vertex 47.5 -10.4122 1.69098
    endloop
  endfacet
  facet normal -1.97843e-16 -0.453992 0.891006
    outer loop
      vertex 24.5 -10.4122 1.69098
      vertex 24.5 -10.691 1.54894
      vertex 47.5 -10.4122 1.69098
    endloop
  endfacet
  facet normal -2.19311e-16 -0.156433 0.987689
    outer loop
      vertex 24.5 -11 1.5
      vertex 47.5 -11 1.5
      vertex 47.5 -10.691 1.54894
    endloop
  endfacet
  facet normal -2.19311e-16 -0.156433 0.987689
    outer loop
      vertex 24.5 -10.691 1.54894
      vertex 24.5 -11 1.5
      vertex 47.5 -10.691 1.54894
    endloop
  endfacet
  facet normal -2.19311e-16 0.156433 0.987689
    outer loop
      vertex 47.5 -11.309 1.54894
      vertex 47.5 -11 1.5
      vertex 24.5 -11 1.5
    endloop
  endfacet
  facet normal -2.19311e-16 0.156433 0.987689
    outer loop
      vertex 24.5 -11.309 1.54894
      vertex 47.5 -11.309 1.54894
      vertex 24.5 -11 1.5
    endloop
  endfacet
  facet normal -1.97843e-16 0.453992 0.891006
    outer loop
      vertex 47.5 -11.5878 1.69098
      vertex 47.5 -11.309 1.54894
      vertex 24.5 -11.309 1.54894
    endloop
  endfacet
  facet normal -1.97843e-16 0.453992 0.891006
    outer loop
      vertex 24.5 -11.5878 1.69098
      vertex 47.5 -11.5878 1.69098
      vertex 24.5 -11.309 1.54894
    endloop
  endfacet
endsolid OpenSCAD_Model
