solid OpenSCAD_Model
  facet normal -1 0 0
    outer loop
      vertex -20 -20.5 15
      vertex -20 -20.5 25
      vertex -20 -8 15
    endloop
  endfacet
  facet normal -1 0 0
    outer loop
      vertex -20 -10 17
      vertex -20 -20.5 25
      vertex -20 19.5 25
    endloop
  endfacet
  facet normal -1 0 0
    outer loop
      vertex -20 8 15
      vertex -20 19.5 25
      vertex -20 19.5 15
    endloop
  endfacet
  facet normal -1 0 0
    outer loop
      vertex -20 10 17
      vertex -20 19.5 25
      vertex -20 8 15
    endloop
  endfacet
  facet normal -1 0 0
    outer loop
      vertex -20 -8 15
      vertex -20 -20.5 25
      vertex -20 -10 17
    endloop
  endfacet
  facet normal -1 0 0
    outer loop
      vertex -20 -10 17
      vertex -20 19.5 25
      vertex -20 10 17
    endloop
  endfacet
  facet normal 0 -1 0
    outer loop
      vertex 20 -20.5 15
      vertex 20 -20.5 25
      vertex 13 -20.5 25
    endloop
  endfacet
  facet normal 0 -1 0
    outer loop
      vertex -14 -20.5 23
      vertex 20 -20.5 15
      vertex 14 -20.5 23
    endloop
  endfacet
  facet normal 0 -1 0
    outer loop
      vertex 14 -20.5 23
      vertex 20 -20.5 15
      vertex 13 -20.5 25
    endloop
  endfacet
  facet normal 0 -1 0
    outer loop
      vertex -20 -20.5 15
      vertex 20 -20.5 15
      vertex -14 -20.5 23
    endloop
  endfacet
  facet normal 0 -1 0
    outer loop
      vertex -20 -20.5 25
      vertex -14 -20.5 23
      vertex -13 -20.5 25
    endloop
  endfacet
  facet normal 0 -1 0
    outer loop
      vertex -20 -20.5 15
      vertex -14 -20.5 23
      vertex -20 -20.5 25
    endloop
  endfacet
  facet normal 0 0 -1
    outer loop
      vertex -20 -20.5 15
      vertex -20 -8 15
      vertex 20 -20.5 15
    endloop
  endfacet
  facet normal 0 0 -1
    outer loop
      vertex 20 -20.5 15
      vertex -20 -8 15
      vertex 20 -8 15
    endloop
  endfacet
  facet normal -4.32978e-17 0.707107 0.707107
    outer loop
      vertex 20 -8 15
      vertex -20 -8 15
      vertex 20 -10 17
    endloop
  endfacet
  facet normal -4.32978e-17 0.707107 0.707107
    outer loop
      vertex 20 -10 17
      vertex -20 -8 15
      vertex -20 -10 17
    endloop
  endfacet
  facet normal 6.12323e-17 0 -1
    outer loop
      vertex -4.5 -4.5 17
      vertex 20 -10 17
      vertex -20 -10 17
    endloop
  endfacet
  facet normal 6.12323e-17 0 -1
    outer loop
      vertex 4.5 -4.5 17
      vertex 20 -10 17
      vertex -4.5 -4.5 17
    endloop
  endfacet
  facet normal 6.12323e-17 0 -1
    outer loop
      vertex -20 10 17
      vertex -4.5 -4.5 17
      vertex -20 -10 17
    endloop
  endfacet
  facet normal 6.12323e-17 0 -1
    outer loop
      vertex 4.5 4.5 17
      vertex 20 -10 17
      vertex 4.5 -4.5 17
    endloop
  endfacet
  facet normal 6.12323e-17 0 -1
    outer loop
      vertex 20 10 17
      vertex 20 -10 17
      vertex 4.5 4.5 17
    endloop
  endfacet
  facet normal 6.12323e-17 0 -1
    outer loop
      vertex 20 10 17
      vertex 4.5 4.5 17
      vertex -20 10 17
    endloop
  endfacet
  facet normal 6.12323e-17 0 -1
    outer loop
      vertex 4.5 4.5 17
      vertex -4.5 4.5 17
      vertex -20 10 17
    endloop
  endfacet
  facet normal 6.12323e-17 0 -1
    outer loop
      vertex -4.5 -4.5 17
      vertex -20 10 17
      vertex -4.5 4.5 17
    endloop
  endfacet
  facet normal -4.32978e-17 -0.707107 0.707107
    outer loop
      vertex 20 8 15
      vertex 20 10 17
      vertex -20 10 17
    endloop
  endfacet
  facet normal -4.32978e-17 -0.707107 0.707107
    outer loop
      vertex -20 8 15
      vertex 20 8 15
      vertex -20 10 17
    endloop
  endfacet
  facet normal 0 0 -1
    outer loop
      vertex -20 8 15
      vertex -20 19.5 15
      vertex 20 8 15
    endloop
  endfacet
  facet normal 0 0 -1
    outer loop
      vertex 20 8 15
      vertex -20 19.5 15
      vertex 20 19.5 15
    endloop
  endfacet
  facet normal 0 1 0
    outer loop
      vertex 8.5 19.5 21
      vertex 20 19.5 15
      vertex -8.5 19.5 21
    endloop
  endfacet
  facet normal 0 1 0
    outer loop
      vertex -20 19.5 15
      vertex -20 19.5 25
      vertex -8.5 19.5 21
    endloop
  endfacet
  facet normal 0 1 0
    outer loop
      vertex -20 19.5 15
      vertex -8.5 19.5 21
      vertex 20 19.5 15
    endloop
  endfacet
  facet normal 0 1 0
    outer loop
      vertex 20 19.5 15
      vertex 8.5 19.5 21
      vertex 8.5 19.5 25
    endloop
  endfacet
  facet normal 0 1 0
    outer loop
      vertex 20 19.5 15
      vertex 8.5 19.5 25
      vertex 20 19.5 25
    endloop
  endfacet
  facet normal 0 1 0
    outer loop
      vertex -8.5 19.5 21
      vertex -20 19.5 25
      vertex -8.5 19.5 25
    endloop
  endfacet
  facet normal 0 0 1
    outer loop
      vertex -20 19.5 25
      vertex -20 -20.5 25
      vertex -13 -20.5 25
    endloop
  endfacet
  facet normal 0 0 1
    outer loop
      vertex -8.5 9.5 25
      vertex -20 19.5 25
      vertex -13 9.5 25
    endloop
  endfacet
  facet normal 0 0 1
    outer loop
      vertex -13 9.5 25
      vertex -20 19.5 25
      vertex -13 -20.5 25
    endloop
  endfacet
  facet normal 0 0 1
    outer loop
      vertex -8.5 19.5 25
      vertex -20 19.5 25
      vertex -8.5 9.5 25
    endloop
  endfacet
  facet normal 1 0 0
    outer loop
      vertex 20 -20.5 25
      vertex 20 -20.5 15
      vertex 20 -8 15
    endloop
  endfacet
  facet normal 1 0 0
    outer loop
      vertex 20 10 17
      vertex 20 -20.5 25
      vertex 20 -10 17
    endloop
  endfacet
  facet normal 1 0 0
    outer loop
      vertex 20 -10 17
      vertex 20 -20.5 25
      vertex 20 -8 15
    endloop
  endfacet
  facet normal 1 0 0
    outer loop
      vertex 20 19.5 15
      vertex 20 -20.5 25
      vertex 20 10 17
    endloop
  endfacet
  facet normal 1 0 0
    outer loop
      vertex 20 19.5 15
      vertex 20 10 17
      vertex 20 8 15
    endloop
  endfacet
  facet normal 1 0 0
    outer loop
      vertex 20 19.5 25
      vertex 20 -20.5 25
      vertex 20 19.5 15
    endloop
  endfacet
  facet normal 0.894427 0 -0.447214
    outer loop
      vertex -14 9.5 23
      vertex -13 9.5 25
      vertex -13 -20.5 25
    endloop
  endfacet
  facet normal 0.894427 0 -0.447214
    outer loop
      vertex -14 -20.5 23
      vertex -14 9.5 23
      vertex -13 -20.5 25
    endloop
  endfacet
  facet normal 0 0 1
    outer loop
      vertex -13 -15.5 23
      vertex -14 -20.5 23
      vertex 14 -20.5 23
    endloop
  endfacet
  facet normal 0 0 1
    outer loop
      vertex -13 -15.5 23
      vertex -13 9.5 23
      vertex -14 9.5 23
    endloop
  endfacet
  facet normal 0 0 1
    outer loop
      vertex 14 9.5 23
      vertex 13 9.5 23
      vertex 14 -20.5 23
    endloop
  endfacet
  facet normal 0 0 1
    outer loop
      vertex 13 9.5 23
      vertex 13 -15.5 23
      vertex 14 -20.5 23
    endloop
  endfacet
  facet normal 0 0 1
    outer loop
      vertex -14 9.5 23
      vertex -14 -20.5 23
      vertex -13 -15.5 23
    endloop
  endfacet
  facet normal 0 0 1
    outer loop
      vertex 13 -15.5 23
      vertex -13 -15.5 23
      vertex 14 -20.5 23
    endloop
  endfacet
  facet normal -0.894427 0 -0.447214
    outer loop
      vertex 13 -20.5 25
      vertex 13 9.5 25
      vertex 14 -20.5 23
    endloop
  endfacet
  facet normal -0.894427 0 -0.447214
    outer loop
      vertex 14 -20.5 23
      vertex 13 9.5 25
      vertex 14 9.5 23
    endloop
  endfacet
  facet normal 0 0 1
    outer loop
      vertex 8.5 19.5 25
      vertex 8.5 9.5 25
      vertex 13 9.5 25
    endloop
  endfacet
  facet normal 0 0 1
    outer loop
      vertex 20 19.5 25
      vertex 8.5 19.5 25
      vertex 13 9.5 25
    endloop
  endfacet
  facet normal 0 0 1
    outer loop
      vertex 13 -20.5 25
      vertex 20 -20.5 25
      vertex 13 9.5 25
    endloop
  endfacet
  facet normal 0 0 1
    outer loop
      vertex 20 -20.5 25
      vertex 20 19.5 25
      vertex 13 9.5 25
    endloop
  endfacet
  facet normal 1 0 0
    outer loop
      vertex -4.5 -4.5 18
      vertex -4.5 -4.5 17
      vertex -4.5 4.5 17
    endloop
  endfacet
  facet normal 1 0 0
    outer loop
      vertex -4.5 -15 20
      vertex -4.5 -4.5 18
      vertex -4.5 4.5 20
    endloop
  endfacet
  facet normal 1 0 0
    outer loop
      vertex -4.5 4.5 20
      vertex -4.5 -4.5 18
      vertex -4.5 4.5 17
    endloop
  endfacet
  facet normal 1 0 0
    outer loop
      vertex -4.5 -15 18
      vertex -4.5 -4.5 18
      vertex -4.5 -15 20
    endloop
  endfacet
  facet normal 0 1 0
    outer loop
      vertex 4.5 -4.5 18
      vertex 4.5 -4.5 17
      vertex -4.5 -4.5 18
    endloop
  endfacet
  facet normal 0 1 0
    outer loop
      vertex -4.5 -4.5 18
      vertex 4.5 -4.5 17
      vertex -4.5 -4.5 17
    endloop
  endfacet
  facet normal 0 -1 0
    outer loop
      vertex 4.5 4.5 17
      vertex 4.5 4.5 20
      vertex -4.5 4.5 20
    endloop
  endfacet
  facet normal 0 -1 0
    outer loop
      vertex -4.5 4.5 17
      vertex 4.5 4.5 17
      vertex -4.5 4.5 20
    endloop
  endfacet
  facet normal -1 0 0
    outer loop
      vertex 4.5 4.5 20
      vertex 4.5 4.5 17
      vertex 4.5 -15 20
    endloop
  endfacet
  facet normal -1 0 0
    outer loop
      vertex 4.5 -4.5 18
      vertex 4.5 4.5 17
      vertex 4.5 -4.5 17
    endloop
  endfacet
  facet normal -1 0 0
    outer loop
      vertex 4.5 -15 20
      vertex 4.5 4.5 17
      vertex 4.5 -4.5 18
    endloop
  endfacet
  facet normal -1 0 0
    outer loop
      vertex 4.5 -15 18
      vertex 4.5 -15 20
      vertex 4.5 -4.5 18
    endloop
  endfacet
  facet normal -1 0 0
    outer loop
      vertex 8.5 19.5 25
      vertex 8.5 19.5 21
      vertex 8.5 9.5 25
    endloop
  endfacet
  facet normal -1 0 0
    outer loop
      vertex 8.5 9.5 25
      vertex 8.5 19.5 21
      vertex 8.5 9.5 21
    endloop
  endfacet
  facet normal 0 0 1
    outer loop
      vertex 8.5 9.5 21
      vertex 8.5 19.5 21
      vertex -8.5 19.5 21
    endloop
  endfacet
  facet normal 0 0 1
    outer loop
      vertex -8.5 9.5 21
      vertex 8.5 9.5 21
      vertex -8.5 19.5 21
    endloop
  endfacet
  facet normal 1 0 0
    outer loop
      vertex -8.5 19.5 21
      vertex -8.5 19.5 25
      vertex -8.5 9.5 25
    endloop
  endfacet
  facet normal 1 0 0
    outer loop
      vertex -8.5 9.5 21
      vertex -8.5 19.5 21
      vertex -8.5 9.5 25
    endloop
  endfacet
  facet normal 0 -1 0
    outer loop
      vertex -13 9.5 25
      vertex -14 9.5 23
      vertex -13 9.5 23
    endloop
  endfacet
  facet normal 0 -1 0
    outer loop
      vertex -8.5 9.5 21
      vertex -8.5 9.5 25
      vertex -13 9.5 25
    endloop
  endfacet
  facet normal 0 -1 0
    outer loop
      vertex -8.5 9.5 21
      vertex -13 9.5 25
      vertex -13 9.5 23
    endloop
  endfacet
  facet normal 0 -1 0
    outer loop
      vertex 14 9.5 23
      vertex 13 9.5 25
      vertex 8.5 9.5 25
    endloop
  endfacet
  facet normal 0 -1 0
    outer loop
      vertex 13 9.5 20
      vertex 13 9.5 23
      vertex 8.5 9.5 21
    endloop
  endfacet
  facet normal 0 -1 0
    outer loop
      vertex -13 9.5 20
      vertex -8.5 9.5 21
      vertex -13 9.5 23
    endloop
  endfacet
  facet normal 0 -1 0
    outer loop
      vertex -13 9.5 20
      vertex 13 9.5 20
      vertex -8.5 9.5 21
    endloop
  endfacet
  facet normal 0 -1 0
    outer loop
      vertex 8.5 9.5 21
      vertex -8.5 9.5 21
      vertex 13 9.5 20
    endloop
  endfacet
  facet normal 0 -1 0
    outer loop
      vertex 8.5 9.5 25
      vertex 13 9.5 23
      vertex 14 9.5 23
    endloop
  endfacet
  facet normal 0 -1 0
    outer loop
      vertex 8.5 9.5 25
      vertex 8.5 9.5 21
      vertex 13 9.5 23
    endloop
  endfacet
  facet normal 1 0 0
    outer loop
      vertex -13 9.5 20
      vertex -13 9.5 23
      vertex -13 -15.5 23
    endloop
  endfacet
  facet normal 1 0 0
    outer loop
      vertex -13 -15.5 20
      vertex -13 9.5 20
      vertex -13 -15.5 23
    endloop
  endfacet
  facet normal 0 1 0
    outer loop
      vertex 13 -15.5 23
      vertex 13 -15.5 20
      vertex -13 -15.5 23
    endloop
  endfacet
  facet normal 0 1 0
    outer loop
      vertex -13 -15.5 23
      vertex 13 -15.5 20
      vertex -13 -15.5 20
    endloop
  endfacet
  facet normal -1 0 0
    outer loop
      vertex 13 9.5 23
      vertex 13 9.5 20
      vertex 13 -15.5 23
    endloop
  endfacet
  facet normal -1 0 0
    outer loop
      vertex 13 -15.5 23
      vertex 13 9.5 20
      vertex 13 -15.5 20
    endloop
  endfacet
  facet normal 0 0 1
    outer loop
      vertex 4.5 -15 18
      vertex 4.5 -4.5 18
      vertex -4.5 -4.5 18
    endloop
  endfacet
  facet normal 0 0 1
    outer loop
      vertex -4.5 -15 18
      vertex 4.5 -15 18
      vertex -4.5 -4.5 18
    endloop
  endfacet
  facet normal 0 1 0
    outer loop
      vertex 4.5 -15 20
      vertex 4.5 -15 18
      vertex -4.5 -15 20
    endloop
  endfacet
  facet normal 0 1 0
    outer loop
      vertex -4.5 -15 20
      vertex 4.5 -15 18
      vertex -4.5 -15 18
    endloop
  endfacet
  facet normal 0 0 1
    outer loop
      vertex -4.5 4.5 20
      vertex 13 9.5 20
      vertex -13 9.5 20
    endloop
  endfacet
  facet normal 0 0 1
    outer loop
      vertex 4.5 4.5 20
      vertex 4.5 -15 20
      vertex 13 -15.5 20
    endloop
  endfacet
  facet normal 0 0 1
    outer loop
      vertex 4.5 4.5 20
      vertex 13 9.5 20
      vertex -4.5 4.5 20
    endloop
  endfacet
  facet normal 0 0 1
    outer loop
      vertex 13 -15.5 20
      vertex 13 9.5 20
      vertex 4.5 4.5 20
    endloop
  endfacet
  facet normal 0 0 1
    outer loop
      vertex -13 -15.5 20
      vertex 13 -15.5 20
      vertex 4.5 -15 20
    endloop
  endfacet
  facet normal 0 0 1
    outer loop
      vertex -13 -15.5 20
      vertex -4.5 -15 20
      vertex -13 9.5 20
    endloop
  endfacet
  facet normal 0 0 1
    outer loop
      vertex -13 -15.5 20
      vertex 4.5 -15 20
      vertex -4.5 -15 20
    endloop
  endfacet
  facet normal 0 0 1
    outer loop
      vertex -4.5 -15 20
      vertex -4.5 4.5 20
      vertex -13 9.5 20
    endloop
  endfacet
  facet normal -0.894427 0 0.447214
    outer loop
      vertex 36.4 -20.5 15
      vertex 37.4 -20.5 17
      vertex 36.4 9.5 15
    endloop
  endfacet
  facet normal -0.894427 0 0.447214
    outer loop
      vertex 36.4 9.5 15
      vertex 37.4 -20.5 17
      vertex 37.4 9.5 17
    endloop
  endfacet
  facet normal 0 -1 0
    outer loop
      vertex 63.6 -20.5 15
      vertex 62.6 -20.5 17
      vertex 37.4 -20.5 17
    endloop
  endfacet
  facet normal 0 -1 0
    outer loop
      vertex 36.4 -20.5 15
      vertex 63.6 -20.5 15
      vertex 37.4 -20.5 17
    endloop
  endfacet
  facet normal 0 0 -1
    outer loop
      vertex 60 3 15
      vertex 63.6 -20.5 15
      vertex 40 3 15
    endloop
  endfacet
  facet normal 0 0 -1
    outer loop
      vertex 36.4 -20.5 15
      vertex 36.4 9.5 15
      vertex 40 3 15
    endloop
  endfacet
  facet normal 0 0 -1
    outer loop
      vertex 36.4 -20.5 15
      vertex 40 3 15
      vertex 63.6 -20.5 15
    endloop
  endfacet
  facet normal 0 0 -1
    outer loop
      vertex 63.6 -20.5 15
      vertex 60 3 15
      vertex 60 9.5 15
    endloop
  endfacet
  facet normal 0 0 -1
    outer loop
      vertex 63.6 -20.5 15
      vertex 60 9.5 15
      vertex 63.6 9.5 15
    endloop
  endfacet
  facet normal 0 0 -1
    outer loop
      vertex 40 3 15
      vertex 36.4 9.5 15
      vertex 40 9.5 15
    endloop
  endfacet
  facet normal 0 1 0
    outer loop
      vertex 40 9.5 17
      vertex 40 9.5 15
      vertex 37.4 9.5 17
    endloop
  endfacet
  facet normal 0 1 0
    outer loop
      vertex 37.4 9.5 17
      vertex 40 9.5 15
      vertex 36.4 9.5 15
    endloop
  endfacet
  facet normal 0 0 1
    outer loop
      vertex 40 3 17
      vertex 37.4 -20.5 17
      vertex 62.6 -20.5 17
    endloop
  endfacet
  facet normal 0 0 1
    outer loop
      vertex 40 3 17
      vertex 40 9.5 17
      vertex 37.4 9.5 17
    endloop
  endfacet
  facet normal 0 0 1
    outer loop
      vertex 62.6 9.5 17
      vertex 60 9.5 17
      vertex 62.6 -20.5 17
    endloop
  endfacet
  facet normal 0 0 1
    outer loop
      vertex 60 9.5 17
      vertex 60 3 17
      vertex 62.6 -20.5 17
    endloop
  endfacet
  facet normal 0 0 1
    outer loop
      vertex 37.4 9.5 17
      vertex 37.4 -20.5 17
      vertex 40 3 17
    endloop
  endfacet
  facet normal 0 0 1
    outer loop
      vertex 60 3 17
      vertex 40 3 17
      vertex 62.6 -20.5 17
    endloop
  endfacet
  facet normal 0.894427 0 0.447214
    outer loop
      vertex 63.6 -20.5 15
      vertex 63.6 9.5 15
      vertex 62.6 9.5 17
    endloop
  endfacet
  facet normal 0.894427 0 0.447214
    outer loop
      vertex 62.6 -20.5 17
      vertex 63.6 -20.5 15
      vertex 62.6 9.5 17
    endloop
  endfacet
  facet normal 0 1 0
    outer loop
      vertex 62.6 9.5 17
      vertex 63.6 9.5 15
      vertex 60 9.5 17
    endloop
  endfacet
  facet normal 0 1 0
    outer loop
      vertex 60 9.5 17
      vertex 63.6 9.5 15
      vertex 60 9.5 15
    endloop
  endfacet
  facet normal -1 0 0
    outer loop
      vertex 60 9.5 17
      vertex 60 9.5 15
      vertex 60 3 17
    endloop
  endfacet
  facet normal -1 0 0
    outer loop
      vertex 60 3 17
      vertex 60 9.5 15
      vertex 60 3 15
    endloop
  endfacet
  facet normal 0 1 0
    outer loop
      vertex 60 3 17
      vertex 60 3 15
      vertex 40 3 17
    endloop
  endfacet
  facet normal 0 1 0
    outer loop
      vertex 40 3 17
      vertex 60 3 15
      vertex 40 3 15
    endloop
  endfacet
  facet normal 1 0 0
    outer loop
      vertex 40 9.5 15
      vertex 40 9.5 17
      vertex 40 3 17
    endloop
  endfacet
  facet normal 1 0 0
    outer loop
      vertex 40 3 15
      vertex 40 9.5 15
      vertex 40 3 17
    endloop
  endfacet
endsolid OpenSCAD_Model
