  0
SECTION
  2
HEADER
  9
$ACADVER
  1
AC1009
  9
$EXTMIN
 10
0.0
 20
0.0
 30
0.0
  9
$EXTMAX
 10
1000.0
 20
1000.0
 30
0.0
  9
$FILLMODE
 70
 0
  9
$SPLFRAME
 70
 1
  0
ENDSEC
  0
SECTION
  2
TABLES
  0
TABLE
  2
LAYER
 70
1
  0
LAYER
  2
0
 70
     0
 62
     7
  6
CONTINUOUS
  0
ENDTAB
  0
ENDSEC
  0
SECTION
  2
ENTITIES
  0
POLYLINE
  8
0
 62
     0
 66
     1
 10
0
 20
0
 30
0.0
 70
     1
 40
1.4203
 41
1.4203
  0
VERTEX
  8
0
 10
0.387804
 20
2.43821
 30
0.0
 40
0.0197264
 41
0.0197264
  0
VERTEX
  8
0
 10
0.299968
 20
2.42057
 30
0.0
 40
0.0197264
 41
0.0197264
  0
VERTEX
  8
0
 10
0.228407
 20
2.37244
 30
0.0
 40
0.0197264
 41
0.0197264
  0
VERTEX
  8
0
 10
0.180285
 20
2.30089
 30
0.0
 40
0.0197264
 41
0.0197264
  0
VERTEX
  8
0
 10
0.162651
 20
2.21306
 30
0.0
 40
0.0197264
 41
0.0197264
  0
VERTEX
  8
0
 10
0.162651
 20
1.83512
 30
0.0
 40
0.0197264
 41
0.0197264
  0
VERTEX
  8
0
 10
0.00987414
 20
1.83512
 30
0.0
 40
0.0197264
 41
0.0197264
  0
VERTEX
  8
0
 10
0.00987414
 20
0.612901
 30
0.0
 40
0.0197264
 41
0.0197264
  0
VERTEX
  8
0
 10
0.162651
 20
0.612901
 30
0.0
 40
0.0197264
 41
0.0197264
  0
VERTEX
  8
0
 10
0.162651
 20
0.234972
 30
0.0
 40
0.0197264
 41
0.0197264
  0
VERTEX
  8
0
 10
0.180285
 20
0.14719
 30
0.0
 40
0.0197264
 41
0.0197264
  0
VERTEX
  8
0
 10
0.228407
 20
0.0756293
 30
0.0
 40
0.0197264
 41
0.0197264
  0
VERTEX
  8
0
 10
0.299968
 20
0.0275065
 30
0.0
 40
0.0197264
 41
0.0197264
  0
VERTEX
  8
0
 10
0.387804
 20
0.00981988
 30
0.0
 40
0.0197264
 41
0.0197264
  0
VERTEX
  8
0
 10
10.6802
 20
0.00981988
 30
0.0
 40
0.0197264
 41
0.0197264
  0
VERTEX
  8
0
 10
10.768
 20
0.0275065
 30
0.0
 40
0.0197264
 41
0.0197264
  0
VERTEX
  8
0
 10
10.8396
 20
0.0756293
 30
0.0
 40
0.0197264
 41
0.0197264
  0
VERTEX
  8
0
 10
10.8877
 20
0.14719
 30
0.0
 40
0.0197264
 41
0.0197264
  0
VERTEX
  8
0
 10
10.9054
 20
0.234972
 30
0.0
 40
0.0197264
 41
0.0197264
  0
VERTEX
  8
0
 10
10.9054
 20
0.878256
 30
0.0
 40
0.0197264
 41
0.0197264
  0
VERTEX
  8
0
 10
11.1949
 20
0.878256
 30
0.0
 40
0.0197264
 41
0.0197264
  0
VERTEX
  8
0
 10
11.1949
 20
1.56976
 30
0.0
 40
0.0197264
 41
0.0197264
  0
VERTEX
  8
0
 10
10.9054
 20
1.56976
 30
0.0
 40
0.0197264
 41
0.0197264
  0
VERTEX
  8
0
 10
10.9054
 20
2.21306
 30
0.0
 40
0.0197264
 41
0.0197264
  0
VERTEX
  8
0
 10
10.8877
 20
2.30089
 30
0.0
 40
0.0197264
 41
0.0197264
  0
VERTEX
  8
0
 10
10.8396
 20
2.37244
 30
0.0
 40
0.0197264
 41
0.0197264
  0
VERTEX
  8
0
 10
10.768
 20
2.42057
 30
0.0
 40
0.0197264
 41
0.0197264
  0
VERTEX
  8
0
 10
10.6802
 20
2.43821
 30
0.0
 40
0.0197264
 41
0.0197264
  0
VERTEX
  8
0
 10
0.387804
 20
2.43821
 30
0.0
 40
0.0197264
 41
0.0197264
  0
SEQEND
 8
0
  0
POLYLINE
  8
0
 62
     0
 66
     1
 10
0
 20
0
 30
0.0
 70
     1
 40
1.4203
 41
1.4203
  0
VERTEX
  8
0
 10
0.379775
 20
2.29351
 30
0.0
 40
0.0197264
 41
0.0197264
  0
VERTEX
  8
0
 10
0.500379
 20
2.29351
 30
0.0
 40
0.0197264
 41
0.0197264
  0
VERTEX
  8
0
 10
0.500379
 20
1.87537
 30
0.0
 40
0.0197264
 41
0.0197264
  0
VERTEX
  8
0
 10
0.612956
 20
1.87537
 30
0.0
 40
0.0197264
 41
0.0197264
  0
VERTEX
  8
0
 10
0.612956
 20
0.5727
 30
0.0
 40
0.0197264
 41
0.0197264
  0
VERTEX
  8
0
 10
0.500379
 20
0.5727
 30
0.0
 40
0.0197264
 41
0.0197264
  0
VERTEX
  8
0
 10
0.500379
 20
0.154568
 30
0.0
 40
0.0197264
 41
0.0197264
  0
VERTEX
  8
0
 10
0.379775
 20
0.154568
 30
0.0
 40
0.0197264
 41
0.0197264
  0
VERTEX
  8
0
 10
0.379775
 20
2.29351
 30
0.0
 40
0.0197264
 41
0.0197264
  0
SEQEND
 8
0
  0
POLYLINE
  8
0
 62
     0
 66
     1
 10
0
 20
0
 30
0.0
 70
     1
 40
1.4203
 41
1.4203
  0
VERTEX
  8
0
 10
8.78911
 20
2.29351
 30
0.0
 40
0.0197264
 41
0.0197264
  0
VERTEX
  8
0
 10
8.90972
 20
2.29351
 30
0.0
 40
0.0197264
 41
0.0197264
  0
VERTEX
  8
0
 10
8.90972
 20
0.154568
 30
0.0
 40
0.0197264
 41
0.0197264
  0
VERTEX
  8
0
 10
8.78911
 20
0.154568
 30
0.0
 40
0.0197264
 41
0.0197264
  0
VERTEX
  8
0
 10
8.78911
 20
0.5727
 30
0.0
 40
0.0197264
 41
0.0197264
  0
VERTEX
  8
0
 10
8.67654
 20
0.5727
 30
0.0
 40
0.0197264
 41
0.0197264
  0
VERTEX
  8
0
 10
8.67654
 20
1.87537
 30
0.0
 40
0.0197264
 41
0.0197264
  0
VERTEX
  8
0
 10
8.78911
 20
1.87537
 30
0.0
 40
0.0197264
 41
0.0197264
  0
VERTEX
  8
0
 10
8.78911
 20
2.29351
 30
0.0
 40
0.0197264
 41
0.0197264
  0
SEQEND
 8
0
  0
ENDSEC
  0
EOF
